<?xml version="1.0" encoding="iso-8859-1"?>
<!-- Generator: Adobe Illustrator 19.0.0, SVG Export Plug-In . SVG Version: 6.00 Build 0)  -->
<svg xmlns="http://www.w3.org/2000/svg" xmlns:xlink="http://www.w3.org/1999/xlink" version="1.1" id="Capa_1" x="0px" y="0px" viewBox="0 0 409.6 409.6" style="enable-background:new 0 0 409.6 409.6;" xml:space="preserve">
<circle style="fill:#E05B49;" cx="204.8" cy="204.8" r="204.8"/>
<path style="opacity:0.1;enable-background:new    ;" d="M406.552,239.846l-87.598-87.598c-0.828-1.083-1.791-2.046-2.874-2.874  l-0.212-0.212l-0.035,0.008c-2.534-1.856-5.629-2.987-9.005-2.987h-22.513l-26.853-26.853c-2.321-2.931-5.869-4.849-9.898-4.849  H100.15c-6.997,0-12.672,5.675-12.672,12.672v74.667c0,3.968,1.862,7.467,4.718,9.79l-0.003,0.006l17.803,17.803l-9.932,23.601  l151.217,151.218C330.82,385.769,392.55,321.002,406.552,239.846z"/>
<path style="fill:#FCD462;" d="M306.813,146.173H174.065c-8.461,0-15.32,6.859-15.32,15.321v73.023c0,8.461,6.859,15.32,15.32,15.32  h76.112l60.714,45.263l-21.428-45.263h17.35c8.461,0,15.32-6.859,15.32-15.32v-73.023  C322.133,153.033,315.274,146.173,306.813,146.173z"/>
<path style="fill:#44C4A1;" d="M247.573,114.5H100.129c-6.993,0-12.663,5.669-12.663,12.662v74.658  c0,6.993,5.669,12.663,12.663,12.663h16.166l-16.231,38.551l45.987-38.551h101.522c6.993,0,12.663-5.67,12.663-12.663v-74.658  C260.235,120.169,254.566,114.5,247.573,114.5z"/>
<g>
	<rect x="107.264" y="126.093" style="fill:#3EA69B;" width="133.163" height="18.475"/>
	<rect x="107.264" y="155.264" style="fill:#3EA69B;" width="133.163" height="18.475"/>
	<rect x="107.264" y="184.533" style="fill:#3EA69B;" width="133.163" height="18.475"/>
</g>
<g>
</g>
<g>
</g>
<g>
</g>
<g>
</g>
<g>
</g>
<g>
</g>
<g>
</g>
<g>
</g>
<g>
</g>
<g>
</g>
<g>
</g>
<g>
</g>
<g>
</g>
<g>
</g>
<g>
</g>
</svg>
