<svg id="Layer_1" height="512" viewBox="0 0 150 150" width="512" xmlns="http://www.w3.org/2000/svg" data-name="Layer 1"><circle cx="75" cy="75" fill="#21b3a9" r="64"/><rect fill="#f7be56" height="62.77" rx="1" width="6.31" x="41.04" y="43.62"/><rect fill="#f7be56" height="62.77" rx="1" width="6.31" x="102.65" y="43.62"/><path d="m114.11 50.35a1.85 1.85 0 0 0 -.41-.07l-.07.14a2.7 2.7 0 0 1 -1.63 1.25 5 5 0 0 1 -2.54-.07 2.91 2.91 0 0 1 -1.66-1.36h-8.7a2.83 2.83 0 0 1 -1.92.81 13.94 13.94 0 0 1 -1.44-.05 3.19 3.19 0 0 1 -1.84-.73h-9.33a2.84 2.84 0 0 1 -2 .88h-1.43a2.66 2.66 0 0 1 -2-.88h-8.76a4.29 4.29 0 0 1 -3.38 1.21 2.69 2.69 0 0 1 -2.26-1.24h-8.8a3 3 0 0 1 -1.24.76 12 12 0 0 1 -2.47.32 2.37 2.37 0 0 1 -2.14-1.1h-13.55a1.91 1.91 0 0 0 -1.91 1.92v12.86a1.91 1.91 0 0 0 1.91 2h.11a2.15 2.15 0 0 1 .48-.36 6.07 6.07 0 0 1 1.87-.64 2.89 2.89 0 0 1 2.88 1h9.32a2.41 2.41 0 0 1 1.4-1l.71-.11c.48-.06.48-.06 0 0h.18a2.81 2.81 0 0 1 2.9 1.11h9a2.38 2.38 0 0 1 1.29-.79 2.5 2.5 0 0 1 1.94-.81 2.47 2.47 0 0 1 2.44 1.6h8.94a2.46 2.46 0 0 1 2-1 2.65 2.65 0 0 1 1.27-.3 2.47 2.47 0 0 1 2.26 1.3h9.35a2.46 2.46 0 0 1 2.19-1.17 2.74 2.74 0 0 1 .51.06 2.79 2.79 0 0 1 .43-.06 2.47 2.47 0 0 1 2.19 1.17h13.26a1.92 1.92 0 0 0 1.92-2v-12.84a1.94 1.94 0 0 0 -1.27-1.81z" fill="#3a556a"/><g fill="#fcd462"><path d="m56.33 50.24-13.65 16.72h-6.65l13.65-16.72z"/><path d="m70.79 50.24-13.64 16.72h-6.65l13.64-16.72z"/><path d="m85.25 50.24-13.65 16.72h-6.64l13.64-16.72z"/><path d="m99.71 50.24-13.64 16.72h-6.65l13.65-16.72z"/><path d="m114.11 50.35-13.58 16.65h-6.65l13.64-16.72h5.94a2 2 0 0 1 .65.07z"/></g><path d="m114.11 72a2.2 2.2 0 0 0 -.58-.1 2.45 2.45 0 0 1 -1.28 1.1 2.63 2.63 0 0 1 -4.43-1.09h-8.76a2.42 2.42 0 0 1 -1.55 1.18 2.6 2.6 0 0 1 -1.58.48 2.46 2.46 0 0 1 -2.43-1.67h-9a2.39 2.39 0 0 1 -1.72 1.21 2.71 2.71 0 0 1 -1.25.29 2.46 2.46 0 0 1 -2.37-1.5h-9a2.47 2.47 0 0 1 -2.37 1.5 2.65 2.65 0 0 1 -.5-.05 2.87 2.87 0 0 1 -.52.05 2.46 2.46 0 0 1 -2.37-1.5h-8.87a2.48 2.48 0 0 1 -2.47 1.74c-.12 0-.22 0-.33 0a3.4 3.4 0 0 1 -.45 0 2.47 2.47 0 0 1 -2.47-1.74h-13.27a1.91 1.91 0 0 0 -1.91 1.92v12.88a1.91 1.91 0 0 0 1.91 1.92h.46l.14-.2a2.6 2.6 0 0 1 5.17.2h8.79a2.45 2.45 0 0 1 1.81-1.62 2.6 2.6 0 0 1 1.41-.38 2.49 2.49 0 0 1 2.54 2h9a2.51 2.51 0 0 1 1-.45 2.45 2.45 0 0 1 2.08-1 2.48 2.48 0 0 1 2.36 1.47h8.94a2.38 2.38 0 0 1 1.76-1.21 2.68 2.68 0 0 1 1.37-.36 2.45 2.45 0 0 1 2.38 1.55h8.88a2.5 2.5 0 0 1 2-.84h.13a2.63 2.63 0 0 1 1.45-.4 2.44 2.44 0 0 1 2.23 1.23h13.09a1.92 1.92 0 0 0 1.92-1.92v-12.87a1.94 1.94 0 0 0 -1.34-1.82z" fill="#3a556a"/><path d="m56.33 71.9-13.65 16.72h-6.65l13.65-16.72z" fill="#fcd462"/><path d="m70.79 71.9-13.64 16.72h-6.65l13.64-16.72z" fill="#fcd462"/><path d="m85.25 71.9-13.65 16.72h-6.64l13.64-16.72z" fill="#fcd462"/><path d="m99.71 71.9-13.64 16.72h-6.65l13.65-16.72z" fill="#fcd462"/><path d="m114.11 72-13.58 16.62h-6.65l13.64-16.72h5.94a2 2 0 0 1 .65.1z" fill="#fcd462"/></svg>