<?xml version="1.0" encoding="iso-8859-1"?>
<!-- Generator: Adobe Illustrator 19.0.0, SVG Export Plug-In . SVG Version: 6.00 Build 0)  -->
<svg xmlns="http://www.w3.org/2000/svg" xmlns:xlink="http://www.w3.org/1999/xlink" version="1.1" id="Capa_1" x="0px" y="0px" viewBox="0 0 409.6 409.6" style="enable-background:new 0 0 409.6 409.6;" xml:space="preserve">
<circle style="fill:#EFC84A;" cx="204.8" cy="204.8" r="204.8"/>
<path style="opacity:0.1;enable-background:new    ;" d="M394.822,281.179L220.777,107.134l-0.054,0.053  c-24.354-23.689-63.014-26.664-90.791-5.335c-30.507,23.381-36.267,67.072-12.885,97.579c1.449,1.89,2.988,3.669,4.585,5.368  l-0.006,0.008l180.319,180.319C343.835,362.511,376.904,325.711,394.822,281.179z"/>
<rect x="207.021" y="199.307" transform="matrix(-0.7935 0.6086 -0.6086 -0.7935 520.3269 246.7137)" style="fill:#DC8744;" width="22.571" height="24.657"/>
<path style="fill:#D15241;" d="M300.604,318.945L300.604,318.945c-9.427,7.23-24.918,1.634-33.882-11.451l-52.356-77.293  l22.889-17.554l61.074,70.606C308.643,295.303,310.031,311.715,300.604,318.945z"/>
<g>
	<polygon style="fill:#D5D6DB;" points="253.848,232.033 228.787,251.253 220.043,238.489 243.787,220.279  "/>
	<polygon style="fill:#D5D6DB;" points="274.232,255.85 246.504,277.116 235.858,261.575 261.984,241.539  "/>
</g>
<g transform="matrix(0.7935 -0.60857 0.60857 0.7935 -18.891 41.955)">
	
		<ellipse transform="matrix(-0.7935 -0.6086 0.6086 -0.7935 20.0398 422.1753)" style="fill:#64798A;" cx="81.646" cy="207.688" rx="69.606" ry="69.606"/>
	
		<ellipse transform="matrix(-0.7935 -0.6086 0.6086 -0.7935 20.0398 422.1753)" style="fill:#D5D6DB;" cx="81.646" cy="207.688" rx="48.388" ry="48.388"/>
</g>
<path style="fill:#FFFFFF;" d="M208.243,167.624c-2.275,0-4.163-1.796-4.258-4.092c-0.65-15.654-5.308-26.596-13.85-32.512  c-14.1-9.771-34.742-3.146-34.946-3.079c-2.263,0.733-4.65-0.479-5.388-2.713c-0.742-2.233,0.467-4.642,2.7-5.388  c1.008-0.333,24.808-8.042,42.446,4.133c10.887,7.517,16.796,20.708,17.563,39.208c0.1,2.354-1.733,4.342-4.087,4.438  C208.364,167.624,208.306,167.624,208.243,167.624z"/>
<g>
</g>
<g>
</g>
<g>
</g>
<g>
</g>
<g>
</g>
<g>
</g>
<g>
</g>
<g>
</g>
<g>
</g>
<g>
</g>
<g>
</g>
<g>
</g>
<g>
</g>
<g>
</g>
<g>
</g>
</svg>
