<svg id="Capa_1" enable-background="new 0 0 512 512" height="512" viewBox="0 0 512 512" width="512" xmlns="http://www.w3.org/2000/svg"><path id="XMLID_1196_" d="m0 256c0-141.385 114.615-256 256-256s256 114.615 256 256c0 71.028-28.927 135.3-75.642 181.678-46.274 45.94-110.001 21.322-180.358 21.322-70.356 0-134.083 24.618-180.357-21.32-46.716-46.378-75.643-110.651-75.643-181.68z" fill="#00aeed"/><path id="XMLID_403_" d="m256 459c70.357 0 134.085 24.618 180.358-21.322 46.715-46.378 75.642-110.65 75.642-181.678 0-24.888-3.566-48.94-10.19-71.689l-145.31-145.311c-17.789 12.393-222.822 287.038-222.822 287.038-32.953 5.673-58.028 111.632-58.028 111.632.803.797 1.629 1.57 2.444 2.355 46.06 42.733 108.783 18.975 177.906 18.975z" fill="#0083d5"/><path id="XMLID_1152_" d="m307.8 275.663h-103.6l-10.257 52.836h124.114z" fill="#ffc473"/><path id="XMLID_1151_" d="m318.06 328.5h-62.06v-52.833h51.802z" fill="#ffaa20"/><path id="XMLID_1150_" d="m347.618 173.369c-3.826-56.31-51.848-88.27-91.618-88.27s-87.792 31.959-91.618 88.27c-10.291 1.928-17.594 11.545-16.449 22.12l1.772 16.362c1.202 11.101 11.268 19.199 22.368 17.997l1.912-.207c22.723 59.149 59.393 74.378 82.015 77.837 22.621-3.46 59.291-18.688 82.015-77.837l1.912.207c11.101 1.202 21.166-6.896 22.368-17.997l1.772-16.362c1.145-10.575-6.158-20.193-16.449-22.12z" fill="#ffdba9"/><path id="XMLID_1149_" d="m364.065 195.489-1.772 16.366c-1.203 11.098-11.265 19.192-22.363 17.989l-1.912-.205c-22.726 59.152-59.395 74.381-82.019 77.841v-222.378c39.774 0 87.791 31.959 91.615 88.267 10.296 1.93 17.598 11.545 16.451 22.12z" fill="#ffc473"/><path id="XMLID_1148_" d="m312.427 187.296h-56.427v66.357h20.046v-47.759h36.381z" fill="#ffaa20"/><path id="XMLID_1147_" d="m436.35 394.98v42.69c-12.36 12.27-25.96 23.29-40.6 32.84-40.18 26.24-88.18-.01-139.75-.01s-99.57 26.25-139.75.01c-14.64-9.55-28.24-20.57-40.6-32.84v-42.69c0-38.65 31.33-69.98 69.98-69.98h220.74c38.65 0 69.98 31.33 69.98 69.98z" fill="#ffdba9"/><path id="XMLID_1146_" d="m436.35 394.98v42.69c-12.36 12.27-25.96 23.29-40.6 32.84-.42.27-.84.55-1.26.8-39.92 24.9-87.46-.81-138.49-.81v-145.5h110.37c38.65 0 69.98 31.33 69.98 69.98z" fill="#ffc473"/><path id="XMLID_1966_" d="m402.25 426.25v39.88c-41.46 28.91-91.88 45.87-146.25 45.87s-104.79-16.96-146.25-45.87v-39.88s61.29-3.25 59.51-101.25h13.62s24.37 78.59 73.12 78.59 73.12-78.59 73.12-78.59h13.62c-1.78 98 59.51 101.25 59.51 101.25z" fill="#58235e"/><path id="XMLID_402_" d="m402.25 426.25v39.88c-41.46 28.91-91.88 45.87-146.25 45.87v-108.41c48.75 0 73.12-78.59 73.12-78.59h13.62c-1.78 98 59.51 101.25 59.51 101.25z" fill="#411544"/><path id="XMLID_1145_" d="m256 60.333c76.492 0 122.322 52.285 122.322 142.656v151.047c0 16.042-13.005 29.047-29.047 29.047-16.043 0-29.047-13.005-29.047-29.047v-159.439c0-44.54-11.942-77.46-64.227-77.46v-56.804z" fill="#cf0050"/><path id="XMLID_935_" d="m256 60.333c-76.492 0-122.322 52.285-122.322 142.656v151.047c0 15.8 12.615 28.654 28.323 29.039.06.001 12.247-26.536 10.5-58.574-6-110-7.5-235 83.5-207.363v-56.805z" fill="#ff415b"/><path id="XMLID_934_" d="m197.046 187.296h42.287v18.599h-42.287z" fill="#ffc473"/><path id="XMLID_933_" d="m378.322 99c-22.072 18.5-42.273 8-42.273 8 32.951-19.25 20.451-68 20.451-68-54.729 38.128-108.837 50.785-134.087 54.842-13.174 2.117-25.285 8.551-34.308 18.381-12.396 13.506-26.105 35.432-26.105 66.348v204.494c.242.006.482.018.725.018 16.043 0 29.047-13.005 29.047-29.047v-159.439c0-29.858 5.373-54.489 24.663-67.487 17.526 32.017 59.356 57.016 107.565 50.39 63.333-8.704 54.322-78.5 54.322-78.5z" fill="#ffe767"/><path id="XMLID_400_" d="m324 177.5c-25.28 3.48-48.81-1.75-68-12.13v-79.02c27.59-7.75 63.91-21.86 100.5-47.35 0 0 12.5 48.75-20.45 68 0 0 20.2 10.5 42.27-8 0 0 9.01 69.8-54.32 78.5z" fill="#ffdc00"/></svg>