<svg id="Capa_1" enable-background="new 0 0 512 512" height="512" viewBox="0 0 512 512" width="512" xmlns="http://www.w3.org/2000/svg"><path id="XMLID_220_" d="m0 256c0-141.385 114.615-256 256-256s256 114.615 256 256c0 70.692-28.654 134.692-74.981 181.019-46.326 46.327-110.326-.519-181.019-.519-70.358 0-134.087 47.117-180.361 1.176-46.713-46.378-75.639-110.649-75.639-181.676z" fill="#58235e"/><path id="XMLID_634_" d="m256 436.5c70.692 0 134.692 46.846 181.019.519s74.981-110.327 74.981-181.019c0-6.757-.266-13.452-.78-20.078l-162.589-162.589-24.869 22.887-67.762-69.387 5.023 85.477-97.654-38.977 42.131 61.5c-12.133 14.193-52.935 92.011-49.544 95.209l28.973 28.774c23.619 6.684 33.463 21.742 25.915 33.007l16.216 57.451-151.41 88.396c.718.713 1.458 1.402 2.186 2.105 46.084 42.371 108.913-3.275 178.164-3.275z" fill="#290a2d"/><path id="XMLID_478_" d="m284.684 78.603-28.684-51.77-28.684 51.77-63.947-5.27 35.264 77.334h114.734l35.264-77.334z" fill="#99f9ff"/><path id="XMLID_542_" d="m348.63 73.33-35.26 77.34h-57.37v-123.84l28.68 51.77z" fill="#00dae1"/><path id="XMLID_40_" d="m202.786 283.12h106.427v153.38h-106.427z" fill="#ffc473"/><path id="XMLID_39_" d="m256 283.12h53.214v153.38h-53.214z" fill="#ffaa20"/><path id="XMLID_38_" d="m347.618 179.035c-3.826-56.31-51.848-88.27-91.618-88.27s-87.792 31.959-91.618 88.27c-10.291 1.928-17.594 11.545-16.449 22.12l1.772 16.362c1.202 11.101 11.268 19.199 22.368 17.997l1.912-.207c22.723 59.149 59.393 74.378 82.015 77.837 22.621-3.46 59.291-18.688 82.015-77.837l1.912.207c11.101 1.202 21.166-6.896 22.368-17.997l1.772-16.362c1.145-10.575-6.158-20.192-16.449-22.12z" fill="#ffdba9"/><path id="XMLID_37_" d="m364.065 201.156-1.772 16.366c-1.203 11.098-11.265 19.192-22.363 17.989l-1.912-.205c-22.726 59.152-59.395 74.381-82.019 77.841v-222.378c39.774 0 87.791 31.959 91.615 88.267 10.296 1.93 17.598 11.545 16.451 22.12z" fill="#ffc473"/><path id="XMLID_33_" d="m312.427 192.962h-56.427v66.357h20.046v-47.758h36.381z" fill="#ffaa20"/><path id="XMLID_355_" d="m172.017 171.872h167.965v30h-167.965z" fill="#8d8a94"/><path id="XMLID_541_" d="m256 171.87h83.98v30h-83.98z" fill="#797880"/><path id="XMLID_32_" d="m436.35 394.98v42.69c-46.27 45.94-109.99 74.33-180.35 74.33s-134.08-28.39-180.35-74.33v-42.69c0-38.65 31.33-69.98 69.98-69.98h57.16c0 29.39 53.21 98.5 53.21 98.5s53.21-69.11 53.21-98.5h57.16c38.65 0 69.98 31.33 69.98 69.98z" fill="#9adb05"/><path id="XMLID_31_" d="m436.35 394.98v42.69c-46.27 45.94-109.99 74.33-180.35 74.33v-88.5s53.21-69.11 53.21-98.5h57.16c21.46 0 40.66 9.65 53.48 24.86 10.3 12.18 16.5 27.93 16.5 45.12z" fill="#00ca76"/><path id="XMLID_30_" d="m123.8 413.33v61.93c9.603 5.803 19.627 10.977 30 15.5v-77.43z" fill="#00ca76"/><path id="XMLID_29_" d="m358.2 413.33v77.43c10.373-4.523 20.397-9.697 30-15.5v-61.93z" fill="#00a461"/><path id="XMLID_28_" d="m197.046 192.962h42.287v18.599h-42.287z" fill="#ffc473"/><path id="XMLID_182_" d="m220.327 232.038h-23.56c-13.669 0-24.75-11.081-24.75-24.75v-35.417h73.06v35.417c0 13.67-11.081 24.75-24.75 24.75z" fill="#57545c"/><path id="XMLID_258_" d="m315.233 232.038h-23.56c-13.669 0-24.75-11.081-24.75-24.75v-35.417h73.06v35.417c0 13.67-11.081 24.75-24.75 24.75z" fill="#3a383f"/></svg>