<svg id="Capa_1" enable-background="new 0 0 512 512" height="512" viewBox="0 0 512 512" width="512" xmlns="http://www.w3.org/2000/svg"><path id="XMLID_1890_" d="m512 256c0 83.18-39.67 157.09-101.13 203.85-43 32.72-96.67-.183-154.87-.183-40.81 0-142.066 9.931-154.876.184-61.455-46.762-101.124-120.677-101.124-203.851 0-141.38 114.62-256 256-256s256 114.62 256 256z" fill="#00aeed"/><path id="XMLID_1740_" d="m256 452.045c70.357 0 134.085 31.572 180.358-14.367 46.715-46.378 75.642-110.65 75.642-181.678 0-21.307-2.62-41.999-7.525-61.789l-112.554-112.058.579.014c-64-63-73.7 21.55-73.7 21.55s-135.3-84.55-199.3-21.55l56.099 56.735c-17.602 13.038-79.45-7.376-88.599 19.265l55.487 54.096c-9.258 24.53-46.487 32.605-41.357 79.904l49.195 45.055c-24.651 4.425-44.164 96.863-48.356 118.232 42.86 17.907 96.205-3.409 154.031-3.409z" fill="#0083d5"/><path id="XMLID_1046_" d="m425 158.167c-17-49.5-75.5-77-75.5-77l43 1c-64-63-136.5-41.25-136.5-41.25s-72.5-21.75-136.5 41.25l43-1s-58.5 27.5-75.5 77l44.5-9.5s-40.24 52.5-30.37 143.5l41.87-35.5 28.5 99.5h84.5 84.5l28.5-99.5 41.87 35.5c9.87-91-30.37-143.5-30.37-143.5z" fill="#57545c"/><path id="XMLID_1393_" d="m380.5 148.67s40.24 52.5 30.37 143.5l-41.87-35.5-28.5 99.5h-84.5v-315.25s72.5-21.75 136.5 41.25l-43-1s58.5 27.5 75.5 77z" fill="#3a383f"/><path id="XMLID_2009_" d="m210.984 274.333h90.033v84h-90.033z" fill="#ffc473"/><path id="XMLID_2008_" d="m256 274.333h45.016v84h-45.016z" fill="#ffaa20"/><path id="XMLID_1043_" d="m205.583 308.335h100.833v30h-100.833z" fill="#797880"/><path id="XMLID_1388_" d="m256 308.33h50.42v30h-50.42z" fill="#57545c"/><path id="XMLID_2007_" d="m348.251 170.093c-3.852-56.7-52.206-88.88-92.251-88.88s-88.399 32.18-92.251 88.88c-10.362 1.941-17.716 11.625-16.563 22.273l1.784 16.475c1.211 11.177 11.346 19.331 22.523 18.121l1.925-.209c22.88 59.558 59.804 74.892 82.581 78.375 22.778-3.484 59.701-18.817 82.582-78.375l1.925.209c11.177 1.211 21.312-6.944 22.523-18.121l1.784-16.475c1.154-10.648-6.2-20.332-16.562-22.273z" fill="#ffdba9"/><path id="XMLID_2006_" d="m197.046 182.169h42.287v18.599h-42.287z" fill="#ffc473"/><path id="XMLID_2005_" d="m364.81 192.37-1.78 16.47c-1.21 11.18-11.35 19.33-22.52 18.12l-1.93-.21c-22.88 59.56-59.8 74.9-82.58 78.38v-223.92c40.04 0 88.4 32.18 92.25 88.88 10.36 1.94 17.72 11.63 16.56 22.28z" fill="#ffc473"/><path id="XMLID_2004_" d="m310.561 182.169h-54.561v64.162h19.383v-46.179h35.178z" fill="#ffaa20"/><path id="XMLID_2003_" d="m410.87 395.97v63.88c-43 32.72-96.67 52.15-154.87 52.15s-111.87-19.43-154.87-52.15v-63.88c0-32.83 26.85-59.7 59.71-59.7h41.946 106.428 42.206c32.73.14 59.45 26.96 59.45 59.7z" fill="#ffdba9"/><path id="XMLID_2001_" d="m410.87 395.97v63.88c-43 32.72-96.67 52.15-154.87 52.15v-175.73h53.214 42.206c32.73.14 59.45 26.96 59.45 59.7z" fill="#ffc473"/><path id="XMLID_1041_" d="m352.88 426.9v66.13c-29.88 12.23-62.6 18.97-96.88 18.97s-67-6.74-96.88-18.97v-66.13l13.2-21.26c8.3-13.38 12.74-29.15 12.74-45.29v-24.08h17.95v23.06c0 7.46 2.46 14.38 6.6 19.77 4.15 5.38 9.97 9.23 16.72 10.54 9.81 1.9 19.74 2.86 29.67 2.86s19.86-.96 29.67-2.86c13.49-2.62 23.32-15.39 23.32-30.31v-23.06h17.95v24.08c0 16.14 4.44 31.91 12.74 45.29z" fill="#8d8a94"/><path id="XMLID_1038_" d="m352.88 426.9v66.13c-29.88 12.23-62.6 18.97-96.88 18.97v-119.5c9.93 0 19.85-.96 29.67-2.86 13.49-2.62 23.32-15.39 23.32-30.31v-23.06h17.95v24.08c0 16.14 4.44 31.91 12.74 45.29z" fill="#797880"/><path id="XMLID_1036_" d="m256 61.5c-58.954 0-108.333 37.251-98.333 141.25l48.84-67.75 18.493 26 31-35.208 31 35.208 18.493-26 48.841 67.75c9.999-103.999-39.38-141.25-98.334-141.25z" fill="#797880"/><path id="XMLID_1387_" d="m354.33 202.75-48.84-67.75-18.49 26-31-35.21v-64.29c58.95 0 108.33 37.25 98.33 141.25z" fill="#57545c"/></svg>