<svg id="Capa_1" enable-background="new 0 0 512 512" height="512" viewBox="0 0 512 512" width="512" xmlns="http://www.w3.org/2000/svg"><path id="XMLID_281_" d="m0 256c0-141.385 114.615-256 256-256s256 114.615 256 256c0 83.18-39.671 157.095-101.126 203.855-43.002 32.721-96.67-26.355-154.874-26.355s-111.87 59.076-154.872 26.357c-61.456-46.76-101.128-120.676-101.128-203.857z" fill="#ff415b"/><path id="XMLID_1471_" d="m256 433.5c58.204 0 111.872 59.076 154.874 26.356 61.455-46.761 101.126-120.676 101.126-203.856 0-1.552-.031-3.096-.059-4.641l-164.793-164.794c-21.646-23.973-217.481 222.931-217.481 258.55-17.089 10.535-28.537 114.735-28.537 114.735l.031.031c42.996 32.664 96.65-26.381 154.839-26.381z" fill="#cf0050"/><path id="XMLID_1160_" d="m256 49.75c79 0 126.333 54 126.333 147.333s0 186 0 186h-60s0-148.667 0-194.667-12.333-80-66.333-80z" fill="#411544"/><path id="XMLID_942_" d="m210.983 274.333h90.033v84h-90.033z" fill="#ffc473"/><path id="XMLID_941_" d="m256 274.333h45.016v84h-45.016z" fill="#ffaa20"/><path id="XMLID_940_" d="m348.251 170.093c-3.852-56.7-52.206-88.88-92.251-88.88s-88.399 32.18-92.251 88.88c-10.362 1.941-17.716 11.625-16.563 22.273l1.784 16.475c1.211 11.177 11.346 19.331 22.523 18.121l1.925-.209c22.88 59.558 59.804 74.892 82.582 78.375 22.778-3.484 59.701-18.817 82.582-78.375l1.925.209c11.177 1.211 21.312-6.944 22.523-18.121l1.784-16.475c1.153-10.648-6.201-20.332-16.563-22.273z" fill="#ffdba9"/><path id="XMLID_1138_" d="m364.81 192.37-1.78 16.47c-1.21 11.18-11.35 19.33-22.52 18.12l-1.93-.21c-22.88 59.56-59.8 74.9-82.58 78.38v-223.92c40.04 0 88.4 32.18 92.25 88.88 10.36 1.94 17.72 11.63 16.56 22.28z" fill="#ffc473"/><circle id="XMLID_598_" cx="346.119" cy="229.049" fill="#fff5ca" r="10"/><path id="XMLID_939_" d="m197.046 182.169h42.287v18.599h-42.287z" fill="#ffc473"/><path id="XMLID_938_" d="m310.561 182.169h-54.561v64.162h19.383v-46.179h35.178z" fill="#ffaa20"/><path id="XMLID_937_" d="m410.87 395.97v63.88c-43 32.72-96.67 52.15-154.87 52.15s-111.87-19.43-154.87-52.15v-63.88c0-32.83 26.85-59.7 59.71-59.7h41.946 106.428 42.206c32.73.14 59.45 26.96 59.45 59.7z" fill="#ffdba9"/><path id="XMLID_936_" d="m410.87 395.97v63.88c-43 32.72-96.67 52.15-154.87 52.15v-175.73h53.214 42.206c32.73.14 59.45 26.96 59.45 59.7z" fill="#ffc473"/><path id="XMLID_341_" d="m370.63 420.33-19.66 73.48c-29.36 11.73-61.41 18.19-94.97 18.19s-65.61-6.46-94.98-18.2l-19.65-73.47 31.34-31.33v-52.83h20.5c0 .03.01.07.01.1 6.11 65.02 62.53 61.75 62.78 61.78.25-.03 56.67 3.24 62.78-61.78 0-.03.01-.07.01-.1h20.5v52.83z" fill="#00aeed"/><path id="XMLID_1286_" d="m370.63 420.33-19.66 73.48c-29.36 11.73-61.41 18.19-94.97 18.19v-113.95c.25-.03 56.67 3.24 62.78-61.78 0-.03.01-.07.01-.1h20.5v52.83z" fill="#0083d5"/><path id="XMLID_1130_" d="m186 104.25s64 89.68 162.25 65.84c0 0-2.083-103.032-101.75-94.84-36.5 3-60.5 29-60.5 29z" fill="#58235e"/><path id="XMLID_1285_" d="m350.077 170.01c-36.479 8.852-68.327 2.356-94.077-9.484v-87.683c92.089-1.122 94.077 97.167 94.077 97.167z" fill="#411544"/><path id="XMLID_1159_" d="m256 49.75c-79 0-126.333 54-126.333 147.333s0 186 0 186h60s0-148.667 0-194.667 12.333-80 66.333-80z" fill="#58235e"/></svg>