<svg id="Capa_1" enable-background="new 0 0 512.166 512.166" height="512" viewBox="0 0 512.166 512.166" width="512" xmlns="http://www.w3.org/2000/svg"><path id="XMLID_297_" d="m.166 256.034c6.195-141.249 114.615-256 256-256s256 114.615 256 256c0 83.206-39.715 158.517-101.206 205.598-42.996 32.92-96.638-12.962-154.794-14.598-57.753-1.624-111.65 40.522-154.96 5.979-63.421-50.58-104.143-126.225-101.04-196.979z" fill="#9adb05"/><path id="XMLID_1702_" d="m256.166 447.034c58.156 1.636 111.798 47.518 154.794 14.598 61.491-47.081 101.206-122.392 101.206-205.598 0-9.925-.585-19.713-1.684-29.344l-152.053-152.053c-21.613-24.846-147.088 154.927-150.68 251.73-1.197 32.266-106.537 126.647-106.537 126.647.152.121.308.237.46.358 43.232 33.873 96.948-7.957 154.494-6.338z" fill="#00ca76"/><path id="XMLID_725_" d="m160.083 225.534h192v119.5h-192z" fill="#ffe767"/><path id="XMLID_892_" d="m256.083 225.534h96v119.5h-96z" fill="#ffd000"/><path id="XMLID_647_" d="m211.066 274.367h90.033v84h-90.033z" fill="#ffc473"/><path id="XMLID_646_" d="m256.083 274.367h45.016v84h-45.016z" fill="#ffaa20"/><path id="XMLID_669_" d="m410.953 396.004v65.62c-42.99 32.93-96.63 52.05-154.79 50.41h-.08c-57.72-1.65-111.58-24.5-154.87-59.02v-57.01c0-32.83 26.85-59.7 59.71-59.7h190.58c32.73.14 59.45 26.96 59.45 59.7z" fill="#ffdba9"/><path id="XMLID_667_" d="m410.953 396.004v65.62c-42.99 32.93-96.63 52.05-154.79 50.41h-.08v-175.73h95.42c32.73.14 59.45 26.96 59.45 59.7z" fill="#ffc473"/><path id="XMLID_645_" d="m348.334 170.127c-3.852-56.7-52.206-88.88-92.251-88.88s-88.399 32.18-92.251 88.88c-10.362 1.941-17.716 11.625-16.562 22.273l1.784 16.475c1.211 11.177 11.346 19.331 22.523 18.121l1.925-.209c22.88 59.558 59.804 74.892 82.582 78.375 22.778-3.483 59.701-18.817 82.582-78.375l1.925.209c11.177 1.211 21.312-6.944 22.523-18.121l1.784-16.475c1.152-10.648-6.202-20.332-16.564-22.273z" fill="#ffdba9"/><path id="XMLID_644_" d="m364.893 192.404-1.78 16.47c-1.21 11.18-11.35 19.33-22.52 18.12l-1.93-.21c-22.88 59.56-59.8 74.9-82.58 78.38v-223.92c40.04 0 88.4 32.18 92.25 88.88 10.36 1.94 17.72 11.63 16.56 22.28z" fill="#ffc473"/><path id="XMLID_685_" d="m172.1 152.203h167.967v30h-167.967z" fill="#ff415b"/><path id="XMLID_681_" d="m256.084 152.201h83.981v30h-83.981z" fill="#cf0050"/><path id="XMLID_643_" d="m197.129 182.203h42.287v18.599h-42.287z" fill="#ffc473"/><path id="XMLID_642_" d="m310.644 182.203h-54.561v64.162h19.383v-46.179h35.178z" fill="#ffaa20"/><path id="XMLID_1382_" d="m172.1 171.906v35.417c0 13.669 11.081 24.75 24.75 24.75h23.559c13.669 0 24.75-11.081 24.75-24.75v-2.577c0-4.811 3.9-8.712 8.712-8.712h4.423c4.811 0 8.712 3.9 8.712 8.712v2.577c0 13.669 11.081 24.75 24.75 24.75h23.56c13.669 0 24.75-11.081 24.75-24.75v-35.417z" fill="#57545c"/><path id="XMLID_708_" d="m244.773 511.444c-34.61-2.66-67.65-12.86-97.62-28.48v-58.85l38.93-87.81 24.98-.1.02.1z" fill="#58235e"/><path id="XMLID_707_" d="m365.013 424.114v65.41c-29.88 13.94-62.91 21.98-97.74 22.57l33.81-175.79.02-.1 24.98.1z" fill="#411544"/><path id="XMLID_758_" d="m404.446 271.038c-3.592-96.803-8.225-246.866-148.363-228.962-140.138-17.904-144.772 132.159-148.363 228.962-3.604 97.146 100.407 114.996 100.407 114.996s-47.371-45.312-29.865-77.236c17.381-31.694 6.045-99.577 1.647-118.75-3.147-13.722 3.777-27.728 16.646-33.438 39.749-17.638 55.198-44.384 59.528-53.601 4.33 9.217 19.779 35.963 59.528 53.601 12.868 5.71 19.793 19.715 16.646 33.438-4.397 19.173-15.733 87.056 1.647 118.75 17.507 31.924-29.865 77.236-29.865 77.236s104.011-17.85 100.407-114.996z" fill="#fff5ca"/><path id="XMLID_1418_" d="m304.043 386.034s47.37-45.31 29.86-77.24c-17.38-31.69-6.04-99.57-1.65-118.75 3.15-13.72-3.77-27.72-16.64-33.43-39.75-17.64-55.2-44.39-59.53-53.6v-60.94c140.14-17.9 144.77 132.16 148.36 228.96 3.61 97.15-100.4 115-100.4 115z" fill="#ffe767"/></svg>