<svg id="Capa_1" enable-background="new 0 0 512 512" height="512" viewBox="0 0 512 512" width="512" xmlns="http://www.w3.org/2000/svg"><path id="XMLID_312_" d="m0 256c0-141.385 114.615-256 256-256s256 114.615 256 256c0 83.18-39.671 157.095-101.126 203.855-43.002 32.72-96.67-38.189-154.874-38.189s-111.87 70.909-154.872 38.19c-61.456-46.759-101.128-120.675-101.128-203.856z" fill="#58235e"/><path id="XMLID_853_" d="m256 421.667c58.205 0 111.872 70.909 154.874 38.189 61.455-46.761 101.126-120.676 101.126-203.856 0-.717-.021-1.43-.027-2.145l-196.585-196.478c-2.474-3.254-163.403 161.117-159.825 164.36l32.276 31.924c-43.133 15.71-58.324 59.464-58.324 59.464l36.834 35.958c-29.639 3.444-65.219 110.767-65.219 110.767.126.096.255.188.381.283 42.938 32.013 96.458-38.466 154.489-38.466z" fill="#290a2d"/><path id="XMLID_1057_" d="m129.515 313.125s84.797-1.402 77.088-77.088c-75.686-7.709-77.088 77.088-77.088 77.088z" fill="#ff415b"/><path id="XMLID_997_" d="m382.484 313.125s-84.797-1.402-77.088-77.088c75.687-7.709 77.088 77.088 77.088 77.088z" fill="#cf0050"/><path id="XMLID_65_" d="m210.984 274.333h90.033v116.428h-90.033z" fill="#ffc473"/><path id="XMLID_64_" d="m256 274.333h45.016v116.428h-45.016z" fill="#ffaa20"/><path id="XMLID_63_" d="m348.251 170.093c-3.852-56.7-52.206-88.88-92.251-88.88s-88.399 32.18-92.251 88.88c-10.362 1.941-17.716 11.625-16.563 22.273l1.784 16.475c1.211 11.177 11.346 19.331 22.523 18.121l1.925-.209c22.88 59.558 59.804 74.892 82.581 78.375 22.778-3.484 59.701-18.817 82.582-78.375l1.925.209c11.177 1.211 21.312-6.944 22.523-18.121l1.784-16.475c1.154-10.648-6.2-20.332-16.562-22.273z" fill="#ffdba9"/><path id="XMLID_100_" d="m197.046 182.169h42.287v18.599h-42.287z" fill="#ffc473"/><path id="XMLID_62_" d="m364.81 192.37-1.78 16.47c-1.21 11.18-11.35 19.33-22.52 18.12l-1.93-.21c-22.88 59.56-59.8 74.9-82.58 78.38v-223.92c40.04 0 88.4 32.18 92.25 88.88 10.36 1.94 17.72 11.63 16.56 22.28z" fill="#ffc473"/><path id="XMLID_998_" d="m323.242 79.701c-20.532-17.334-39.514-24.701-67.242-24.701s-46.71 7.367-67.242 24.701c-25.511 21.528-32.338 70.627-28.231 123.049h15.912l4.363-45.56 5.39 14.821h37.727l9.753-26.688v26.963h44.657v-26.963l9.753 26.688h37.727l5.39-14.821 4.363 45.56h15.912c4.106-52.421-2.721-101.52-28.232-123.049z" fill="#ff415b"/><path id="XMLID_606_" d="m351.47 202.75h-15.91l-4.36-45.56-5.39 14.82h-37.73l-9.75-26.69v26.97h-22.33v-117.29c27.73 0 46.71 7.37 67.24 24.7 25.51 21.53 32.34 70.63 28.23 123.05z" fill="#cf0050"/><path id="XMLID_61_" d="m310.561 182.169h-54.561v64.162h19.383v-46.179h35.178z" fill="#ffaa20"/><path id="XMLID_183_" d="m410.87 395.97v63.88c-43 32.72-96.67 42.483-154.87 42.483-40.81 0-79.393.113-113.631-16.877-14.59-7.24-7.771-36.347-20.619-46.123l-20.62-19.833v-23.53c0-32.83 26.85-59.7 59.71-59.7h50.14c0 24.86 20.16 45.02 45.02 45.02s45.02-20.16 45.02-45.02h50.4c32.73.14 59.45 26.96 59.45 59.7z" fill="#99f9ff"/><path id="XMLID_178_" d="m410.87 395.97v23.53l-23.203 20.167c-12.849 9.777-3.447 38.551-18.038 45.791-34.238 16.989-72.82 16.876-113.629 16.876v-121.044c24.86 0 45.02-20.16 45.02-45.02h50.4c32.73.14 59.45 26.96 59.45 59.7z" fill="#00dae1"/><path id="XMLID_49_" d="m180.271 136.463s11.706-44.463 75.729-44.463 75.729 44.463 75.729 44.463-5.427-63.583-75.729-63.583-75.729 63.583-75.729 63.583z" fill="#fff"/><path id="XMLID_714_" d="m331.73 136.46s-11.71-44.46-75.73-44.46v-19.12c70.3 0 75.73 63.58 75.73 63.58z" fill="#fff5ca"/><path id="XMLID_1218_" d="m194.663 63.178v36.064c0 6.774 6.82 11.422 13.125 8.946l32.145-12.628v-28.699l-32.145-12.628c-6.305-2.477-13.125 2.171-13.125 8.945z" fill="#9adb05"/><path id="XMLID_1217_" d="m317.337 63.178v36.064c0 6.774-6.82 11.422-13.125 8.946l-32.145-12.628v-28.699l32.145-12.628c6.305-2.477 13.125 2.171 13.125 8.945z" fill="#00ca76"/><circle id="XMLID_1134_" cx="256" cy="81.816" fill="#ffee93" r="22.13"/><path id="XMLID_604_" d="m278.13 81.82c0 12.22-9.91 22.13-22.13 22.13v-44.26c12.22 0 22.13 9.9 22.13 22.13z" fill="#ffdc00"/><path id="XMLID_334_" d="m142.37 419.5v65.96c-14.59-7.24-28.39-15.83-41.24-25.61v-40.35z" fill="#ffc473"/><path id="XMLID_337_" d="m410.87 419.5v40.35c-12.85 9.78-26.65 18.37-41.24 25.61v-65.96z" fill="#ffaa20"/><path id="XMLID_362_" d="m142.37 419.5h227.26v37.117h-227.26z" fill="#fff"/><path id="XMLID_603_" d="m256 419.5h113.63v37.12h-113.63z" fill="#fff5ca"/><path id="XMLID_449_" d="m369.63 482.55v2.91c-34.24 16.99-72.82 26.54-113.63 26.54s-79.39-9.55-113.63-26.54v-2.91z" fill="#fff"/><path id="XMLID_602_" d="m369.63 482.55v2.91c-34.24 16.99-72.82 26.54-113.63 26.54v-29.45z" fill="#fff5ca"/></svg>