<svg id="Capa_1" enable-background="new 0 0 512 512" height="512" viewBox="0 0 512 512" width="512" xmlns="http://www.w3.org/2000/svg"><path id="XMLID_327_" d="m0 256c0-141.385 114.615-256 256-256s256 114.615 256 256c0 83.18-39.671 157.095-101.126 203.855-43.002 32.721-96.669-26.855-154.874-26.855-58.204 0-111.87 59.576-154.872 26.857-61.456-46.76-101.128-120.676-101.128-203.857z" fill="#00aeed"/><path id="XMLID_364_" d="m511.753 266.901c-48.311-48.352-155.565-155.68-157.732-157.711-30.283-32.254-175.464 45.932-177.359 73.816-2.45 27.327-22.512 68.224-20.346 70.18l54.667 54.696 22.517 45.118-132.362 106.844c.192.146.382.295.575.441.857.647 99.507-22.225 154.287-22.225 58.206 0 111.872 54.514 154.871 21.791 58.747-44.708 97.583-114.236 100.882-192.95z" fill="#0083d5"/><path id="XMLID_2111_" d="m210.984 274.333h90.033v84h-90.033z" fill="#b04b00"/><path id="XMLID_2110_" d="m256 274.333h45.016v84h-45.016z" fill="#803400"/><path id="XMLID_2109_" d="m348.251 170.093c-3.852-56.7-52.206-88.88-92.251-88.88s-88.399 32.18-92.251 88.88c-10.362 1.941-17.716 11.625-16.563 22.273l1.784 16.475c1.211 11.177 11.346 19.331 22.523 18.121l1.925-.209c22.88 59.558 59.804 74.892 82.581 78.375 22.778-3.484 59.701-18.817 82.582-78.375l1.925.209c11.177 1.211 21.312-6.944 22.523-18.121l1.784-16.475c1.154-10.648-6.2-20.332-16.562-22.273z" fill="#da6200"/><path id="XMLID_2108_" d="m197.046 182.169h42.287v18.599h-42.287z" fill="#b04b00"/><path id="XMLID_2107_" d="m364.81 192.37-1.78 16.47c-1.21 11.18-11.35 19.33-22.52 18.12l-1.93-.21c-22.88 59.56-59.8 74.9-82.58 78.38v-223.92c40.04 0 88.4 32.18 92.25 88.88 10.36 1.94 17.72 11.63 16.56 22.28z" fill="#b04b00"/><path id="XMLID_2106_" d="m310.561 182.169h-54.561v64.162h19.383v-46.179h35.178z" fill="#803400"/><path id="XMLID_2105_" d="m410.87 395.97v63.88c-14.234 10.831-29.638 20.206-45.988 27.902 0 0-69.948-15.752-108.882-15.752-38.936 0-108.888 15.75-108.888 15.75-16.348-7.696-31.75-17.07-45.982-27.9v-63.88c0-32.83 26.85-59.7 59.71-59.7h41.946 106.428 42.206c32.73.14 59.45 26.96 59.45 59.7z" fill="#da6200"/><path id="XMLID_2104_" d="m410.87 395.97v63.88c-14.234 10.831-29.638 20.206-45.988 27.902 0 0-69.948-12.752-108.882-12.752v-138.73h53.214 42.206c32.73.14 59.45 26.96 59.45 59.7z" fill="#b04b00"/><path id="XMLID_2373_" d="m185 90s46 88.5 184 84.5l-16-27.5 25.5-5s-69.286-129.667-193.5-52z" fill="#ffe767"/><path id="XMLID_81_" d="m353 147 16 27.5c-48.26 1.4-85.27-8.52-113-22.01v-87.11c79.31-4.21 122.5 76.62 122.5 76.62z" fill="#ffdc00"/><circle id="XMLID_1270_" cx="163.5" cy="245.25" fill="#fff5ca" r="10.712"/><circle id="XMLID_2417_" cx="163.5" cy="226.625" fill="#fff" r="10.712"/><circle id="XMLID_1325_" cx="348.5" cy="245.25" fill="#fff5ca" r="10.712"/><circle id="XMLID_1324_" cx="348.5" cy="226.625" fill="#fff" r="10.712"/><path id="XMLID_1552_" d="m256 407.473c-53.88-40.261-108.877-2.469-108.877-2.469v82.746c33.042 15.551 69.94 24.25 108.877 24.25s108.877-24.259 108.877-24.259v-82.737s-54.997-37.793-108.877 2.469z" fill="#fff"/><path id="XMLID_80_" d="m364.88 405v82.74c-33.04 15.55-69.94 24.26-108.88 24.26v-104.53c53.88-40.26 108.88-2.47 108.88-2.47z" fill="#fff5ca"/></svg>