<svg id="Capa_1" enable-background="new 0 0 512 512" height="512" viewBox="0 0 512 512" width="512" xmlns="http://www.w3.org/2000/svg"><path id="XMLID_1533_" d="m0 256c0-141.385 114.615-256 256-256s256 114.615 256 256c0 70.692-28.654 134.692-74.981 181.019-46.326 46.327-110.326 20.824-181.019 20.824-70.356 0-134.083 25.775-180.357-20.163-46.716-46.378-75.643-110.651-75.643-181.68z" fill="#ff415b"/><path id="XMLID_673_" d="m256 457.843c70.692 0 134.692 25.503 181.019-20.824s74.981-110.327 74.981-181.019c0-9.905-.582-19.672-1.677-29.284l-166.583-166.583c-18.088-20.006-182.101 112.727-182.101 112.727-10.82 0-36.17 58.214-32.446 61.775l69.015 68.905c-19.326 3.695-125.875 130.767-125.875 130.767 1.906 1.962 3.858 3.879 5.828 5.777 46.054 42.608 108.75 17.759 177.839 17.759z" fill="#cf0050"/><path id="XMLID_1989_" d="m368.842 353.171h-225.684v-29.664c0-23.105 18.73-41.836 41.836-41.836h142.013c23.105 0 41.836 18.73 41.836 41.836v29.664z" fill="#00ca76"/><path id="XMLID_2040_" d="m368.84 323.51v29.66h-112.84v-71.5h71.01c23.1 0 41.83 18.73 41.83 41.84z" fill="#00a461"/><path id="XMLID_1830_" d="m202.786 276.12h106.427v112.88h-106.427z" fill="#ffc473"/><path id="XMLID_1829_" d="m256 276.12h53.214v112.88h-53.214z" fill="#ffaa20"/><path id="XMLID_1828_" d="m347.618 179.035c-3.826-56.31-51.848-88.27-91.618-88.27s-87.792 31.959-91.618 88.27c-10.291 1.928-17.594 11.545-16.449 22.12l1.772 16.362c1.202 11.101 11.268 19.199 22.368 17.997l1.912-.207c22.723 59.149 59.393 74.378 82.015 77.837 22.621-3.46 59.291-18.688 82.015-77.837l1.912.207c11.101 1.202 21.166-6.896 22.368-17.997l1.772-16.362c1.145-10.575-6.158-20.192-16.449-22.12z" fill="#ffdba9"/><path id="XMLID_1827_" d="m364.065 201.156-1.772 16.366c-1.203 11.098-11.265 19.192-22.363 17.989l-1.912-.205c-22.726 59.152-59.395 74.381-82.019 77.841v-222.378c39.774 0 87.791 31.959 91.615 88.267 10.296 1.93 17.598 11.545 16.451 22.12z" fill="#ffc473"/><path id="XMLID_1874_" d="m275.172 37.5h-38.344c-43.409 0-78.598 35.19-78.598 78.598v37.86h195.54v-37.86c0-43.408-35.189-78.598-78.598-78.598z" fill="#99f9ff"/><path id="XMLID_480_" d="m275.17 37.5h-19.17v116.46h97.77v-37.86c0-43.41-35.19-78.6-78.6-78.6z" fill="#00dae1"/><path id="XMLID_1826_" d="m312.427 192.962h-56.427v66.357h20.046v-47.758h36.381z" fill="#ffaa20"/><path id="XMLID_1825_" d="m436.35 394.98v42.69c-12.36 12.27-25.96 23.29-40.6 32.84-40.18 26.24-88.18-.01-139.75-.01s-99.57 26.25-139.75.01c-14.64-9.55-28.24-20.57-40.6-32.84v-42.69c0-38.65 31.33-69.98 69.98-69.98h220.74c38.65 0 69.98 31.33 69.98 69.98z" fill="#ffdba9"/><path id="XMLID_1824_" d="m436.35 394.98v42.69c-12.36 12.27-25.96 23.29-40.6 32.84-.42.27-.84.55-1.26.8-39.92 24.9-87.46-.81-138.49-.81v-145.5h110.37c38.65 0 69.98 31.33 69.98 69.98z" fill="#ffc473"/><path id="XMLID_1478_" d="m256 512c72.055 0 137.145-29.781 183.667-77.692v-43.975c0-36.083-29.251-65.333-65.333-65.333h-5.492l-28.342 7.56-31.286-7.56-53.214 78.585-53.214-78.585-27.954 7.56-31.674-7.56h-5.492c-36.083 0-65.333 29.251-65.333 65.333v43.975c46.522 47.911 111.612 77.692 183.667 77.692z" fill="#9adb05"/><path id="XMLID_1477_" d="m439.67 390.33v43.98c-46.52 47.91-111.61 77.69-183.67 77.69v-108.41l53.21-78.59h65.12c36.09 0 65.34 29.25 65.34 65.33z" fill="#00ca76"/><path id="XMLID_2025_" d="m173.333 353.171h30v98.874h-30z" fill="#fff"/><path id="XMLID_2024_" d="m308.667 353.171h30v98.874h-30z" fill="#fff5ca"/><path id="XMLID_198_" d="m123.8 413.33v61.93c9.603 5.803 19.627 10.977 30 15.5v-77.43z" fill="#00ca76"/><path id="XMLID_196_" d="m358.2 413.33v77.43c10.373-4.523 20.397-9.697 30-15.5v-61.93z" fill="#00a461"/><path id="XMLID_1823_" d="m197.046 192.962h42.287v18.599h-42.287z" fill="#ffc473"/><path id="XMLID_1875_" d="m352.604 128.5h-193.208c-5.304 0-9.604 4.3-9.604 9.604v42.579c0 5.304 4.3 9.604 9.604 9.604h193.208c5.304 0 9.604-4.3 9.604-9.604v-42.579c0-5.304-4.3-9.604-9.604-9.604z" fill="#fff"/><path id="XMLID_507_" d="m362.21 138.1v42.58c0 5.31-4.3 9.61-9.61 9.61h-96.6v-61.79h96.6c.4 0 .79.02 1.17.07 4.76.58 8.44 4.63 8.44 9.53z" fill="#fff5ca"/><path id="XMLID_1291_" d="m369.246 163.904h-25.859v-37.504c0-40.309-32.677-72.987-72.987-72.987h-28.8c-40.309 0-72.986 32.677-72.986 72.987v37.504h-25.859v-37.504c0-54.591 44.255-98.846 98.846-98.846h28.8c54.591 0 98.846 44.255 98.846 98.846v37.504z" fill="#9adb05"/><path id="XMLID_506_" d="m369.25 126.4v37.5h-25.86v-37.5c0-40.31-32.68-72.99-72.99-72.99h-14.4v-25.86h14.4c54.59 0 98.85 44.26 98.85 98.85z" fill="#00ca76"/><path id="XMLID_1054_" d="m174.463 240.095h-31.726c-10.82 0-19.591-8.771-19.591-19.591v-46.955c0-10.82 8.771-19.591 19.591-19.591h31.726z" fill="#58235e"/><path id="XMLID_1220_" d="m337.538 240.095h31.726c10.82 0 19.591-8.771 19.591-19.591v-46.955c0-10.82-8.771-19.591-19.591-19.591h-31.726z" fill="#290a2d"/><path id="XMLID_50_" d="m309.214 325-53.214 69.278-53.214-69.278h-59.628l112.842 140.05 112.842-140.05z" fill="#00ca76"/><path id="XMLID_365_" d="m368.84 325-22.7 28.17-90.14 111.88v-70.77l31.57-41.11 21.64-28.17z" fill="#00a461"/></svg>