<svg id="Capa_1" enable-background="new 0 0 512 512" height="512" viewBox="0 0 512 512" width="512" xmlns="http://www.w3.org/2000/svg"><path id="XMLID_1548_" d="m0 256c0-141.385 114.615-256 256-256s256 114.615 256 256c0 69.329-27.559 132.221-72.32 178.319-46.521 47.911-111.624 7.802-183.68 7.802-72.055 0-137.158 40.11-183.679-7.801-44.761-46.098-72.321-108.991-72.321-178.32z" fill="#58235e"/><path id="XMLID_986_" d="m256 442.121c72.056 0 137.158 40.109 183.68-7.802 44.761-46.098 72.32-108.99 72.32-178.319 0-9.458-.529-18.791-1.528-27.982-58.608-58.659-172.476-172.316-172.476-172.316-14.341-16.551-183.088 92.545-183.088 92.545s1.17 24.245 2.756 33.368c-6.546 3.961-4.756 45.859-.958 49.104l27.128 26.126c2.364 4.364 23.499 7.154 23.499 7.154l6.167 29-10.714 32-130.453 109.309c.719.74 1.454 1.464 2.183 2.195 46.363 44.484 110.555 5.618 181.484 5.618z" fill="#290a2d"/><path id="XMLID_1731_" d="m202.786 276.12h106.427v112.88h-106.427z" fill="#ffc473"/><path id="XMLID_1730_" d="m256 276.12h53.213v112.88h-53.213z" fill="#ffaa20"/><path id="XMLID_1304_" d="m347.618 179.035c-3.826-56.31-51.848-88.27-91.618-88.27s-87.792 31.959-91.618 88.27c-10.291 1.928-17.594 11.545-16.449 22.12l1.772 16.362c1.202 11.101 11.268 19.199 22.368 17.997l1.912-.207c22.723 59.149 59.393 74.378 82.015 77.837 22.621-3.46 59.291-18.688 82.015-77.837l1.912.207c11.101 1.202 21.166-6.896 22.368-17.997l1.772-16.362c1.145-10.575-6.158-20.192-16.449-22.12z" fill="#ffdba9"/><path id="XMLID_1303_" d="m364.065 201.156-1.772 16.366c-1.203 11.098-11.265 19.192-22.363 17.989l-1.912-.205c-22.726 59.152-59.395 74.381-82.019 77.841v-222.378c39.774 0 87.791 31.959 91.615 88.267 10.296 1.93 17.598 11.545 16.451 22.12z" fill="#ffc473"/><path id="XMLID_1349_" d="m256 173-63.13-44.5-13.87 72h-17s-45.5-144.001 94-144z" fill="#00aeed"/><path id="XMLID_1348_" d="m256 173 63.13-44.5 13.87 72h17s45.5-144.001-94-144z" fill="#0083d5"/><path id="XMLID_1287_" d="m312.427 192.962h-56.427v66.357h20.046v-47.758h36.381z" fill="#ffaa20"/><path id="XMLID_1284_" d="m436.35 394.98v42.69c-12.36 12.27-25.96 23.29-40.6 32.84-40.18 26.24-88.18-.01-139.75-.01s-99.57 26.25-139.75.01c-14.64-9.55-28.24-20.57-40.6-32.84v-42.69c0-38.65 31.33-69.98 69.98-69.98h220.74c38.65 0 69.98 31.33 69.98 69.98z" fill="#ffdba9"/><path id="XMLID_1283_" d="m436.35 394.98v42.69c-12.36 12.27-25.96 23.29-40.6 32.84-.42.27-.84.55-1.26.8-39.92 24.9-87.46-.81-138.49-.81v-145.5h110.37c38.65 0 69.98 31.33 69.98 69.98z" fill="#ffc473"/><path id="XMLID_1282_" d="m197.046 192.962h42.287v18.599h-42.287z" fill="#ffc473"/><path id="XMLID_1310_" d="m256 368 64.846-99.034-64.846-23.98-64.846 23.98z" fill="#ff415b"/><path id="XMLID_1915_" d="m320.85 268.97-64.85 99.03v-123.01z" fill="#e30058"/><path id="XMLID_331_" d="m278.879 28.667h-45.759c-43.196 0-78.212 35.017-78.212 78.213v32.037h202.184v-32.037c0-43.196-35.017-78.213-78.213-78.213zm9.079 92h-63.917v-17.673c0-14.356 11.638-25.994 25.994-25.994h11.929c14.356 0 25.994 11.638 25.994 25.994z" fill="#9adb05"/><path id="XMLID_1905_" d="m278.88 28.67h-22.88v48.33h5.96c14.36 0 26 11.64 26 25.99v17.68h-31.96v18.25h101.09v-32.04c0-43.2-35.02-78.21-78.21-78.21z" fill="#00ca76"/><path id="XMLID_46_" d="m154.908 118.248h202.183v30h-202.183z" fill="#ff415b"/><path id="XMLID_44_" d="m256 118.25h101.092v30h-101.092z" fill="#e30058"/><path id="XMLID_703_" d="m256 512c72.055 0 137.145-29.781 183.667-77.692v-43.975c0-36.083-29.251-65.333-65.333-65.333h-65.12l-53.214 78.585-53.214-78.585h-65.12c-36.083 0-65.333 29.251-65.333 65.333v43.975c46.522 47.911 111.612 77.692 183.667 77.692z" fill="#00aeed"/><path id="XMLID_1789_" d="m439.67 390.33v43.98c-46.52 47.91-111.61 77.69-183.67 77.69v-108.41l53.21-78.59h65.12c36.09 0 65.34 29.25 65.34 65.33z" fill="#0083d5"/><path id="XMLID_712_" d="m123.8 413.33v61.93c9.603 5.803 19.627 10.977 30 15.5v-77.43z" fill="#0083d5"/><path id="XMLID_711_" d="m358.2 413.33v77.43c10.373-4.523 20.397-9.697 30-15.5v-61.93z" fill="#005c97"/></svg>