<svg id="Capa_1" enable-background="new 0 0 512 512" height="512" viewBox="0 0 512 512" width="512" xmlns="http://www.w3.org/2000/svg"><path id="XMLID_808_" d="m0 256c0-141.385 114.615-256 256-256s256 114.615 256 256c0 71.028-28.927 135.3-75.642 181.678-46.274 45.94-110.001 14.367-180.358 14.367-70.358 0-134.087 31.572-180.361-14.37-46.714-46.377-75.639-110.648-75.639-181.675z" fill="#00aeed"/><path id="XMLID_1242_" d="m256 452.045c70.357 0 134.085 31.573 180.358-14.367 46.715-46.378 75.642-110.65 75.642-181.678 0-16.487-1.578-32.603-4.555-48.222l-139.778-139.778-6.294 18.627-43.867-42.924-7.237 46.676-54.269-54.712s-104.034 179.442-101.366 182.468l29.979 29.567c24.137 5.298 15.905 23.933 24.424 31.765l9.152 46.453-142.539 111.75c.526.522 1.063 1.033 1.595 1.549 46.137 43.665 109.206 12.826 178.755 12.826z" fill="#0083d5"/><path id="XMLID_209_" d="m302.415 276.579h-92.83l-9.19 48.421v.916h111.21v-.916z" fill="#b04b00"/><path id="XMLID_208_" d="m311.605 325v.92h-55.607v-49.34h46.411z" fill="#803400"/><path id="XMLID_207_" d="m347.618 168.494c-3.826-56.31-51.848-88.27-91.618-88.27s-87.792 31.959-91.618 88.27c-10.291 1.928-17.594 11.545-16.449 22.12l1.772 16.362c1.202 11.101 11.268 19.199 22.368 17.997l1.912-.207c22.723 59.149 59.393 74.378 82.015 77.837 22.621-3.46 59.291-18.688 82.015-77.837l1.912.207c11.101 1.202 21.166-6.896 22.368-17.997l1.772-16.362c1.145-10.575-6.158-20.193-16.449-22.12z" fill="#da6200"/><path id="XMLID_206_" d="m364.065 190.614-1.772 16.366c-1.203 11.098-11.265 19.192-22.363 17.989l-1.912-.205c-22.726 59.152-59.395 74.381-82.019 77.841v-222.378c39.774 0 87.791 31.959 91.615 88.267 10.296 1.931 17.598 11.545 16.451 22.12z" fill="#b04b00"/><path id="XMLID_205_" d="m312.427 173.754h-56.427v66.357h20.046v-47.758h36.381z" fill="#803400"/><path id="XMLID_203_" d="m436.35 394.98v42.69c-12.36 12.27-25.96 23.29-40.6 32.84-40.18 26.24-88.18-.01-139.75-.01s-99.57 26.25-139.75.01c-14.64-9.55-28.24-20.57-40.6-32.84v-42.69c0-38.65 31.33-69.98 69.98-69.98h220.74c38.65 0 69.98 31.33 69.98 69.98z" fill="#da6200"/><path id="XMLID_202_" d="m436.35 394.98v42.69c-12.36 12.27-25.96 23.29-40.6 32.84-.42.27-.84.55-1.26.8-39.92 24.9-87.46-.81-138.49-.81v-145.5h110.37c38.65 0 69.98 31.33 69.98 69.98z" fill="#b04b00"/><path id="XMLID_201_" d="m197.046 173.754h42.287v18.599h-42.287z" fill="#b04b00"/><path id="XMLID_384_" d="m326.333 82.667-8.827-38.964-33.173 23.63-28.333-31.666-28.333 31.666-33.173-23.63-8.827 38.964-41.334-14.667 23.334 136.667h10.666l11.334-71.667h132.666l11.334 71.667h10.666l23.334-136.667z" fill="#ffd000"/><path id="XMLID_254_" d="m344.333 204.667h-10.666l-11.334-71.667h-66.333v-97.333l28.333 31.666 33.173-23.63 8.827 38.964 41.334-14.667z" fill="#ffac00"/><path id="XMLID_730_" d="m367.857 410.209c-11.096-16.43-17.024-35.803-17.024-55.629v-29.578h-24v28.329c0 18.325-13.137 34.013-31.177 37.231-26.23 4.68-53.081 4.68-79.311 0-18.04-3.219-31.177-18.907-31.177-37.231v-28.329h-24v29.578c0 19.826-5.929 39.199-17.025 55.629l-17.642 26.124v40.524c37.993 22.326 82.246 35.143 129.499 35.143s91.506-12.817 129.499-35.143v-40.524z" fill="#fff"/><path id="XMLID_1013_" d="m385.5 436.33v40.53c-37.99 22.32-82.25 35.14-129.5 35.14v-117.93c13.27 0 26.54-1.17 39.66-3.51 18.04-3.22 31.17-18.9 31.17-37.23v-28.33h24v29.58c0 19.83 5.93 39.2 17.03 55.63z" fill="#fff5ca"/><path id="XMLID_773_" d="m273.281 275.13h-34.562l-8.177 28.515 14.237-3.462 11.221 13.223 11.221-13.223 14.237 3.462z" fill="#ffd000"/><path id="XMLID_898_" d="m281.46 303.64-14.24-3.46-11.22 13.23v-38.28h17.28z" fill="#ffac00"/></svg>