<svg id="Capa_1" enable-background="new 0 0 512 512" height="512" viewBox="0 0 512 512" width="512" xmlns="http://www.w3.org/2000/svg"><path id="XMLID_1871_" d="m0 256c0-141.385 114.615-256 256-256s256 114.615 256 256c0 71.028-28.927 135.3-75.642 181.678-46.274 45.94-110.001 21.322-180.358 21.322-70.356 0-134.083 24.618-180.357-21.32-46.716-46.378-75.643-110.651-75.643-181.68z" fill="#99f9ff"/><path id="XMLID_1452_" d="m256 459c70.357 0 134.085 24.618 180.358-21.322 43.276-42.964 71.267-101.289 75.157-166.11-56.99-57.274-217.704-217.401-217.704-217.401l-3.647 3.87-34.164-34.37-26.299 42.177-11.511-11.677c-1.85 2.673-43.515 108.919-42.887 126.364-9.807 2.309-22.925 35.428-19.755 38.587l29.1 28.645c20.352 6.403 22.019 18.903 24.389 31.704l-8.642 45.533-148.602 85.398c7.307 9.649 15.276 18.77 23.85 27.282 46.274 45.938 110.001 21.32 180.357 21.32z" fill="#00dae1"/><path id="XMLID_1965_" d="m302.415 276.579h-92.83l-9.19 48.421v.916h111.21v-.916z" fill="#b04b00"/><path id="XMLID_1964_" d="m311.605 325v.92h-55.606v-49.34h46.41z" fill="#803400"/><path id="XMLID_1963_" d="m347.618 168.494c-3.826-56.31-51.848-88.27-91.618-88.27s-87.792 31.959-91.618 88.27c-10.291 1.928-17.594 11.545-16.449 22.12l1.772 16.362c1.202 11.101 11.268 19.199 22.368 17.997l1.912-.207c22.723 59.149 59.393 74.378 82.015 77.837 22.621-3.46 59.291-18.688 82.015-77.837l1.912.207c11.101 1.202 21.166-6.896 22.368-17.997l1.772-16.362c1.145-10.575-6.158-20.193-16.449-22.12z" fill="#da6200"/><path id="XMLID_1962_" d="m364.065 190.614-1.772 16.366c-1.203 11.098-11.265 19.192-22.363 17.989l-1.912-.205c-22.726 59.152-59.395 74.381-82.019 77.841v-222.378c39.774 0 87.791 31.959 91.615 88.267 10.296 1.931 17.598 11.545 16.451 22.12z" fill="#b04b00"/><path id="XMLID_1961_" d="m312.427 173.754h-56.427v66.357h20.046v-47.758h36.381z" fill="#803400"/><path id="XMLID_1960_" d="m436.35 394.98v42.69c-12.36 12.27-25.96 23.29-40.6 32.84-40.18 26.24-88.18-.01-139.75-.01s-99.57 26.25-139.75.01c-14.64-9.55-28.24-20.57-40.6-32.84v-42.69c0-38.65 31.33-69.98 69.98-69.98h220.74c38.65 0 69.98 31.33 69.98 69.98z" fill="#da6200"/><path id="XMLID_1959_" d="m436.35 394.98v42.69c-12.36 12.27-25.96 23.29-40.6 32.84-.42.27-.84.55-1.26.8-39.92 24.9-87.46-.81-138.49-.81v-145.5h110.37c38.65 0 69.98 31.33 69.98 69.98z" fill="#b04b00"/><path id="XMLID_1451_" d="m367.857 410.209c-11.096-16.43-17.024-35.803-17.024-55.629v-29.578h-24v28.329c0 18.325-13.137 34.013-31.177 37.231-26.23 4.68-53.081 4.68-79.311 0-18.04-3.218-31.177-18.907-31.177-37.231v-28.329h-24v29.578c0 19.826-5.929 39.199-17.025 55.629l-17.642 26.124v40.524c37.993 22.326 82.246 35.143 129.499 35.143s91.506-12.817 129.499-35.143v-40.524z" fill="#fff"/><path id="XMLID_1450_" d="m385.5 436.33v40.53c-37.99 22.32-82.25 35.14-129.5 35.14v-117.93c13.27 0 26.54-1.17 39.66-3.51 18.04-3.22 31.17-18.9 31.17-37.23v-28.33h24v29.58c0 19.83 5.93 39.2 17.03 55.63z" fill="#fff5ca"/><path id="XMLID_1958_" d="m197.046 173.754h42.287v18.599h-42.287z" fill="#b04b00"/><path id="XMLID_1449_" d="m338.564 117.117c-4.658-10.432-10.837-18.726-17.726-25.322-8.774-8.401-16.102-18.149-21.776-28.89-1.652-3.127-3.402-6.066-5.251-8.739l-11.31 12-26.5-42.5-26.5 42.5-11.31-12c-1.85 2.673-3.6 5.612-5.252 8.739-5.673 10.741-13.002 20.489-21.776 28.89-6.889 6.596-13.068 14.89-17.726 25.322-8.22 18.41-11.842 41.123-9.181 61.108l3.245 24.374h13l6.873-44c1.767-11.309 12.585-18.839 23.817-16.63 25.618 5.038 64.003 5.038 89.62 0 11.231-2.209 22.05 5.32 23.817 16.63l6.873 44h13l3.245-24.374c2.66-19.985-.962-42.698-9.182-61.108z" fill="#57545c"/><path id="XMLID_1448_" d="m347.75 178.23-3.25 24.37h-13l-6.87-44c-1.77-11.31-12.59-18.84-23.82-16.63-12.81 2.52-28.81 3.78-44.81 3.78v-122.08l26.5 42.5 11.31-12c1.85 2.67 3.6 5.61 5.25 8.74 5.68 10.74 13 20.48 21.78 28.88 6.89 6.6 13.07 14.9 17.72 25.33 8.22 18.41 11.85 41.12 9.19 61.11z" fill="#262628"/><path id="XMLID_1445_" d="m285.306 240.111h-58.611c-6.827 0-12.361 5.534-12.361 12.361v27.766c0 5.049 2.898 9.65 7.451 11.831l26.935 12.901c4.603 2.205 9.958 2.205 14.561 0l26.935-12.901c4.554-2.181 7.451-6.782 7.451-11.831v-27.766c0-6.827-5.534-12.361-12.361-12.361zm-.284 41.139-14.022 5.737v-16.222h-30v16.222l-14.023-5.738v-29.083h58.047z" fill="#57545c"/><path id="XMLID_1443_" d="m285.31 240.11h-29.31v12.06h29.02v29.08l-14.02 5.74v-16.22h-15v35.85c2.49 0 4.98-.55 7.28-1.65l26.94-12.9c4.55-2.18 7.45-6.78 7.45-11.83v-27.77c0-6.82-5.54-12.36-12.36-12.36z" fill="#262628"/><path id="XMLID_1442_" d="m234.856 252.167h42.287v18.599h-42.287z" fill="#b04b00"/><path id="XMLID_1574_" d="m256 252.167h21.144v18.599h-21.144z" fill="#803400"/><path id="XMLID_1441_" d="m192.96 325v179.18c-57.14-14.47-106.62-48.16-141.17-93.78v-32.79c0-29.06 23.55-52.61 52.6-52.61z" fill="#58235e"/><path id="XMLID_1440_" d="m460.21 377.61v32.79c-34.55 45.62-84.03 79.31-141.17 93.78v-179.18h88.57c29.05 0 52.6 23.55 52.6 52.61z" fill="#411544"/><path id="XMLID_1339_" d="m192.96 325h-55.46l10.315 82.5 21.415 19.5-13.23 26.5 36.96 50.68z" fill="#c639d1"/><path id="XMLID_1338_" d="m319.04 325h55.46l-10.315 82.5-21.415 19.5 13.23 26.5-36.96 50.68z" fill="#95239b"/></svg>