<svg id="Capa_1" enable-background="new 0 0 512 512" height="512" viewBox="0 0 512 512" width="512" xmlns="http://www.w3.org/2000/svg"><path id="XMLID_2565_" d="m512 256c0 1.22-.01 2.45-.02 3.67-1.04 73.45-33 139.42-83.46 185.47-45.51 41.53-106.06-28.81-172.52-28.81-65.8 0-125.81 69.49-171.16 30.03-.46-.4-.91-.81-1.36-1.22-51.29-46.81-83.48-114.22-83.48-189.14 0-141.38 114.62-256 256-256s256 114.62 256 256z" fill="#9adb05"/><path id="XMLID_2563_" d="m511.98 259.67c-1.04 73.45-33 139.42-83.46 185.47-45.51 41.53-106.06-28.81-172.52-28.81-65.8 0-125.81 69.49-171.16 30.03-.46-.4-.91-.81-1.36-1.22l107.95-76.57-32.39-129.87-8.79-8.63c-3.4-3.34 16.63-44.8 27.25-47.01l-18.46-13.55-5.81-5.55c-2.66-2.67 118.45-147.01 122.61-140.43z" fill="#00ca76"/><path id="XMLID_505_" d="m159.038 154.667h193.924v212.333h-193.924z" fill="#fff5ca"/><path id="XMLID_2427_" d="m256 154.67h96.96v212.33h-96.96z" fill="#ffee93"/><path id="XMLID_2186_" d="m210.983 274.333h90.033v84h-90.033z" fill="#b04b00"/><path id="XMLID_2171_" d="m256 274.333h45.016v84h-45.016z" fill="#803400"/><path id="XMLID_2170_" d="m352.55 176.615c-4.031-59.342-54.639-93.022-96.55-93.022s-92.518 33.68-96.55 93.022c-10.845 2.031-18.541 12.166-17.334 23.311l1.868 17.243c1.267 11.698 11.874 20.232 23.572 18.965l2.015-.218c23.947 62.334 62.591 78.382 86.43 82.028 23.839-3.646 62.483-19.694 86.43-82.028l2.014.218c11.698 1.267 22.306-7.267 23.573-18.965l1.867-17.243c1.206-11.145-6.49-21.28-17.335-23.311z" fill="#da6200"/><path id="XMLID_2283_" d="m369.881 199.93-1.863 17.238c-1.266 11.701-11.879 20.231-23.57 18.965l-2.02-.22c-23.946 62.336-62.587 78.39-86.428 82.033v-234.356c41.906 0 92.52 33.68 96.549 93.022 10.843 2.03 18.546 12.172 17.332 23.318z" fill="#b04b00"/><path id="XMLID_981_" d="m323.242 88.035c-20.532-17.335-39.514-24.702-67.242-24.702s-46.71 7.366-67.242 24.701c-25.511 21.529-32.338 70.627-28.231 123.049h15.912l4.363-69.417 49.178 8.611c17.216 3.014 34.825 3.014 52.041 0l49.177-8.611 4.363 69.417h15.912c4.107-52.421-2.72-101.52-28.231-123.048z" fill="#fff5ca"/><path id="XMLID_980_" d="m351.47 211.083h-15.91l-4.36-69.42-49.18 8.61c-8.61 1.51-17.32 2.26-26.02 2.26v-89.2c27.73 0 46.71 7.37 67.24 24.7 25.51 21.53 32.34 70.63 28.23 123.05z" fill="#ffee93"/><path id="XMLID_342_" d="m256 36.667c-101 31.333-94.333 118-94.333 118h188.667c-.001 0 6.666-86.667-94.334-118z" fill="#00aeed"/><path id="XMLID_2343_" d="m350.33 154.67h-94.33v-118c7.87 2.44 15.09 5.22 21.71 8.27 47.13 21.7 63.83 57.04 69.66 81.73 3.86 16.33 2.96 28 2.96 28z" fill="#0083d5"/><path id="XMLID_2169_" d="m194.298 196.102h44.258v19.465h-44.258z" fill="#b04b00"/><path id="XMLID_2168_" d="m313.103 196.102h-57.103v67.152h20.286v-48.331h36.817z" fill="#803400"/><path id="XMLID_1181_" d="m227.86 192.835h56.279v30h-56.279z" fill="#00aeed"/><path id="XMLID_2338_" d="m256 192.83h28.14v30h-28.14z" fill="#0083d5"/><path id="XMLID_2167_" d="m410.87 395.97v63.88c-43 32.72-96.67 52.15-154.87 52.15s-111.87-19.43-154.87-52.15v-63.88c0-32.83 26.85-59.7 59.71-59.7h41.946 106.428 42.206c32.73.14 59.45 26.96 59.45 59.7z" fill="#da6200"/><path id="XMLID_2166_" d="m410.87 395.97v63.88c-43 32.72-96.67 52.15-154.87 52.15v-175.73h53.214 42.206c32.73.14 59.45 26.96 59.45 59.7z" fill="#b04b00"/><path id="XMLID_2044_" d="m370.63 420.33-19.66 73.48c-29.36 11.73-61.41 18.19-94.97 18.19s-65.61-6.46-94.98-18.2l-19.65-73.47 31.34-31.33v-52.83h20.5c0 .03.01.07.01.1 6.11 65.02 62.53 61.75 62.78 61.78.25-.03 56.67 3.24 62.78-61.78 0-.03.01-.07.01-.1h20.5v52.83z" fill="#58235e"/><path id="XMLID_2043_" d="m370.63 420.33-19.66 73.48c-29.36 11.73-61.41 18.19-94.97 18.19v-113.95c.25-.03 56.67 3.24 62.78-61.78 0-.03.01-.07.01-.1h20.5v52.83z" fill="#411544"/><path id="XMLID_1363_" d="m184.48 336.17v165.7c-38.08-11.05-72.49-30.72-101-56.73v-63.3c0-25.23 20.45-45.67 45.67-45.67z" fill="#ffe767"/><path id="XMLID_1362_" d="m428.52 381.84v63.3c-28.51 26.01-62.92 45.68-101 56.73v-165.7h55.33c25.22 0 45.67 20.44 45.67 45.67z" fill="#ffd000"/><path id="XMLID_3054_" d="m348.333 168.333h-184.667c-8.112 0-14.75-6.637-14.75-14.75v-12.167c0-8.112 6.637-14.75 14.75-14.75h184.667c8.113 0 14.75 6.637 14.75 14.75v12.167c0 8.113-6.637 14.75-14.75 14.75z" fill="#ffe767"/><path id="XMLID_2340_" d="m363.08 141.42v12.16c0 8.12-6.63 14.75-14.75 14.75h-92.33v-41.66h92.33c8.12 0 14.75 6.63 14.75 14.75z" fill="#ffd000"/><circle id="XMLID_5_" cx="256" cy="36.042" fill="#ffe767" r="23.458"/><path id="XMLID_2339_" d="m279.46 36.04c0 3.15-.62 6.16-1.75 8.9-3.5 8.55-11.9 14.56-21.71 14.56v-46.92c12.96 0 23.46 10.51 23.46 23.46z" fill="#ffd000"/><circle id="XMLID_767_" cx="218.5" cy="212.835" fill="#99f9ff" r="30.548"/><circle id="XMLID_873_" cx="293.5" cy="212.835" fill="#00dae1" r="30.548"/></svg>