<svg id="Capa_1" enable-background="new 0 0 512 512" height="512" viewBox="0 0 512 512" width="512" xmlns="http://www.w3.org/2000/svg"><path id="XMLID_249_" d="m75.648 437.684c-46.719-46.378-75.648-110.653-75.648-181.684 0-141.385 114.615-256 256-256s256 114.615 256 256c0 70.692-28.654 134.692-74.981 181.019z" fill="#9adb05"/><path id="XMLID_260_" d="m436.344 437.692c46.724-46.379 75.656-110.657 75.656-181.692 0-6.918-.284-13.77-.822-20.55l-174.069-174.068c-15.21-17.771-182.201 60.968-182.201 60.968l-55.908 30 50.075 48.808s5.809 18.784 11.788 21.777l24.045 25.293c15.487 4.772 23.425 12.772 24.129 31.239l29.827 84.002-163.214 74.201z" fill="#00ca76"/><path id="XMLID_1779_" d="m302.415 276.579h-92.83l-9.19 48.421v.916h111.21v-.916z" fill="#b04b00"/><path id="XMLID_906_" d="m311.605 325v.92h-55.606v-49.34h46.41z" fill="#803400"/><path id="XMLID_1778_" d="m347.618 168.494c-3.826-56.31-51.848-88.27-91.618-88.27s-87.792 31.959-91.618 88.27c-10.291 1.928-17.594 11.545-16.449 22.12l1.772 16.362c1.202 11.101 11.268 19.199 22.368 17.997l1.912-.207c22.723 59.149 59.393 74.378 82.015 77.837 22.621-3.46 59.291-18.688 82.015-77.837l1.912.207c11.101 1.202 21.166-6.896 22.368-17.997l1.772-16.362c1.145-10.575-6.158-20.193-16.449-22.12z" fill="#da6200"/><path id="XMLID_1777_" d="m364.065 190.614-1.772 16.366c-1.203 11.098-11.265 19.192-22.363 17.989l-1.912-.205c-22.726 59.152-59.395 74.381-82.019 77.841v-222.378c39.774 0 87.791 31.959 91.615 88.267 10.296 1.931 17.598 11.545 16.451 22.12z" fill="#b04b00"/><path id="XMLID_1776_" d="m312.427 173.754h-56.427v66.357h20.046v-47.758h36.381z" fill="#803400"/><path id="XMLID_1775_" d="m436.35 394.98v42.69c-12.36 12.27-25.96 23.29-40.6 32.84-40.18 26.24-88.18-.01-139.75-.01s-99.57 26.25-139.75.01c-14.64-9.55-28.24-20.57-40.6-32.84v-42.69c0-38.65 31.33-69.98 69.98-69.98h220.74c38.65 0 69.98 31.33 69.98 69.98z" fill="#da6200"/><path id="XMLID_1774_" d="m436.35 394.98v42.69c-12.36 12.27-25.96 23.29-40.6 32.84-.42.27-.84.55-1.26.8-39.92 24.9-87.46-.81-138.49-.81v-145.5h110.37c38.65 0 69.98 31.33 69.98 69.98z" fill="#b04b00"/><path id="XMLID_950_" d="m395.75 415.5v55.01c-40.18 26.24-88.18 41.49-139.75 41.49s-99.57-15.25-139.75-41.49v-55.01c35.5-31.5 29.63-90.5 29.63-90.5h43.96c7.8 45.72 62.1 60.4 66.16 61.44 4.06-1.04 58.36-15.72 66.16-61.44h43.96s-5.87 59 29.63 90.5z" fill="#00aeed"/><path id="XMLID_949_" d="m395.75 415.5v55.01c-.42.27-.84.55-1.26.8-39.92 25.76-87.46 40.69-138.49 40.69v-125.56c4.06-1.04 58.36-15.72 66.16-61.44h43.96s-5.87 59 29.63 90.5z" fill="#0083d5"/><path id="XMLID_1227_" d="m342.4 325c-.61 9.37-2.26 21.46-6.28 34.28-11.78 37.56-37.94 63.62-75.66 75.37l-4.46 1.39-4.46-1.39c-37.72-11.75-63.88-37.81-75.66-75.37-4.02-12.82-5.67-24.91-6.28-34.28h29.98c1.73 22.51 11.31 63.14 56.42 79.51 25.83-9.35 43.14-27.56 51.49-54.21 2.92-9.32 4.25-18.21 4.82-25.3z" fill="#fff"/><path id="XMLID_497_" d="m342.4 325c-.61 9.37-2.26 21.46-6.28 34.28-7.93 25.27-22.36 45.33-42.44 59.34-9.77 6.81-20.88 12.19-33.22 16.03l-4.46 1.39v-31.53c5.45-1.97 10.52-4.34 15.21-7.1h.01c17.52-10.32 29.68-26.09 36.27-47.11 2.92-9.32 4.25-18.21 4.82-25.3z" fill="#fff5ca"/><path id="XMLID_1773_" d="m197.046 173.754h42.287v18.599h-42.287z" fill="#b04b00"/><path id="XMLID_599_" d="m256 119-63.13 1.15-13.87 80.35h-17s-45.5-144.001 94-144z" fill="#57545c"/><path id="XMLID_3_" d="m256 119 63.13 1.15 13.87 80.35h17s45.5-144.001-94-144z" fill="#262628"/><path id="XMLID_1900_" d="m237.838 32.333h36.258c45.801 0 82.929 37.129 82.929 82.929v31.423h-202.117v-31.423c0-45.8 37.129-82.929 82.93-82.929z" fill="#00aeed"/><path id="XMLID_1253_" d="m357.03 115.267v31.42h-101.03v-114.35h18.1c45.8 0 82.93 37.13 82.93 82.93z" fill="#0083d5"/><path id="XMLID_1847_" d="m99 122.35h265.279v30h-265.279z" fill="#fff"/><path id="XMLID_1845_" d="m255.999 122.352h108.282v30h-108.282z" fill="#fff5ca"/><circle id="XMLID_144_" cx="256" cy="436.04" fill="#ffd500" r="41.51"/><path id="XMLID_500_" d="m297.51 436.04c0 22.93-18.58 41.51-41.51 41.51v-83.02c5.37 0 10.5 1.02 15.21 2.88h.01c9.94 3.92 18 11.56 22.46 21.21 2.46 5.3 3.83 11.2 3.83 17.42z" fill="#ffc100"/></svg>