<svg id="Capa_1" enable-background="new 0 0 512 512" height="512" viewBox="0 0 512 512" width="512" xmlns="http://www.w3.org/2000/svg"><path id="XMLID_1292_" d="m512 256c0 83.18-39.67 157.09-101.13 203.85-43 32.72-96.67-31.517-154.87-31.517-40.81 0-142.066 41.264-154.876 31.517-61.455-46.761-101.124-120.677-101.124-203.85 0-141.38 114.62-256 256-256s256 114.62 256 256z" fill="#99f9ff"/><path id="XMLID_1052_" d="m256 428.333c58.2 0 111.87 64.237 154.87 31.517 61.46-46.76 101.13-120.67 101.13-203.85 0-13.188-1-26.142-2.923-38.793l-98.207-98.207-2.463.349-58.907-57.849-11.746 18.121-24.754-25.368-8.807 17.679s-24.091-24.141-27.093-26.97c-6.233-6.592-88.619 121.951-88.619 121.951l-87.351-47.913 47.087 64.508c-.965 2.763 2.998 33.47 5.647 36.51 0 0 29.468 28.314 30.02 29.426 7.98 14.48 25.152 19.81 34.198 27.889.387.433 7.417 70.167 7.417 70.167l-142.011 97.635c.16.146.319.294.48.439 1.177 1.068 2.362 2.128 3.56 3.173.172.15.345.298.518.448 1.317 1.144 2.644 2.277 3.984 3.394v.004c2.976 2.485 6.007 4.907 9.095 7.257 12.809 9.747 114.065-31.517 154.875-31.517z" fill="#00dae1"/><path id="XMLID_552_" d="m364.932 125.5-15.432-64-93.5 57.5-93.5-57.5-15.433 64-45.937-6.5 63.87 87.5h16.5l.5-54.5 74 7.667 74-7.667.5 54.5h16.5l63.87-87.5z" fill="#57545c"/><path id="XMLID_2876_" d="m410.87 119-63.87 87.5h-16.5l-.5-54.5-74 7.67v-40.67l67.3-41.39 26.2-16.11 15.43 64z" fill="#3a383f"/><path id="XMLID_2292_" d="m210.984 274.333h90.033v84h-90.033z" fill="#ffc473"/><path id="XMLID_2291_" d="m256 274.333h45.016v84h-45.016z" fill="#ffaa20"/><path id="XMLID_2290_" d="m348.251 170.093c-3.852-56.7-52.206-88.88-92.251-88.88s-88.399 32.18-92.251 88.88c-10.362 1.941-17.716 11.625-16.563 22.273l1.784 16.476c1.211 11.177 11.346 19.331 22.523 18.121l1.925-.209c22.88 59.558 59.804 74.892 82.581 78.375 22.778-3.483 59.701-18.817 82.582-78.375l1.925.209c11.177 1.211 21.312-6.944 22.523-18.121l1.784-16.476c1.154-10.648-6.2-20.332-16.562-22.273z" fill="#ffdba9"/><path id="XMLID_2289_" d="m197.046 182.169h42.287v18.599h-42.287z" fill="#ffc473"/><path id="XMLID_2288_" d="m364.81 192.37-1.78 16.47c-1.21 11.18-11.35 19.33-22.52 18.12l-1.93-.21c-22.88 59.56-59.8 74.9-82.58 78.38v-223.92c40.04 0 88.4 32.18 92.25 88.88 10.36 1.94 17.72 11.63 16.56 22.28z" fill="#ffc473"/><path id="XMLID_2293_" d="m336.102 129.099c-17.634-30.946-38.352-51.599-80.102-51.599s-62.468 20.653-80.102 51.599c7.165 1.908 43.633 20.568 80.102 20.568 36.468 0 72.936-18.66 80.102-20.568z" fill="#57545c"/><path id="XMLID_844_" d="m336.1 129.1c-7.16 1.91-43.63 20.57-80.1 20.57v-72.17c41.75 0 62.47 20.65 80.1 51.6z" fill="#3a383f"/><path id="XMLID_2287_" d="m310.561 182.169h-54.561v64.162h19.383v-46.179h35.178z" fill="#ffaa20"/><path id="XMLID_2286_" d="m410.87 395.97v63.88c-43 32.72-96.67 52.15-154.87 52.15s-111.87-19.43-154.87-52.15v-63.88c0-32.83 26.85-59.7 59.71-59.7h41.946 106.428 42.206c32.73.14 59.45 26.96 59.45 59.7z" fill="#ffdba9"/><path id="XMLID_2285_" d="m410.87 395.97v63.88c-43 32.72-96.67 52.15-154.87 52.15v-175.73h53.214 42.206c32.73.14 59.45 26.96 59.45 59.7z" fill="#ffc473"/><path id="XMLID_2724_" d="m352.88 426.9v66.13c-29.88 12.23-62.6 18.97-96.88 18.97s-67-6.74-96.88-18.97v-66.13l13.2-21.26c8.3-13.38 12.74-29.15 12.74-45.29v-24.08h17.95v23.06c0 7.46 2.46 14.38 6.6 19.77 4.15 5.38 9.97 9.23 16.72 10.54 9.81 1.9 19.74 2.86 29.67 2.86s19.86-.96 29.67-2.86c13.49-2.62 23.32-15.39 23.32-30.31v-23.06h17.95v24.08c0 16.14 4.44 31.91 12.74 45.29z" fill="#9adb05"/><path id="XMLID_2722_" d="m352.88 426.9v66.13c-29.88 12.23-62.6 18.97-96.88 18.97v-119.5c9.93 0 19.85-.96 29.67-2.86 13.49-2.62 23.32-15.39 23.32-30.31v-23.06h17.95v24.08c0 16.14 4.44 31.91 12.74 45.29z" fill="#00ca76"/><path id="XMLID_2592_" d="m184.48 336.17v165.7c-38.08-11.05-72.49-30.72-101-56.73v-68.295c0-22.464 18.211-40.675 40.675-40.675z" fill="#ff415b"/><path id="XMLID_2591_" d="m428.52 376.845v68.295c-28.51 26.01-62.92 45.68-101 56.73v-165.7h60.325c22.464 0 40.675 18.211 40.675 40.675z" fill="#e30058"/><path id="XMLID_392_" d="m313 54.253-15.991 14.5s-19.009-26.5-41.009-43c-22 16.5-41.009 43-41.009 43l-15.991-14.5c-35 56.5 15.991 89.414 15.991 89.414l41.009 10.666 41.009-10.667c0 .001 50.991-32.913 15.991-89.413z" fill="#8d8a94"/><path id="XMLID_2875_" d="m297.01 143.67-41.01 10.66v-128.58c22 16.5 41.01 43 41.01 43l15.99-14.5c5.14 8.31 8.43 16.11 10.3 23.36 10.81 42.11-26.29 66.06-26.29 66.06z" fill="#797880"/><circle id="XMLID_2522_" cx="347.051" cy="225.199" fill="#e30058" r="10.949"/></svg>