<svg id="Capa_1" enable-background="new 0 0 512 512" height="512" viewBox="0 0 512 512" width="512" xmlns="http://www.w3.org/2000/svg"><path id="XMLID_1746_" d="m512 256c0 74.92-32.18 142.32-83.48 189.14-28.51 26.01-147.7 4.54-172.52 4.54s-144.01 21.47-172.52-4.54c-51.3-46.82-83.48-114.22-83.48-189.14 0-141.38 114.62-256 256-256s256 114.62 256 256z" fill="#9adb05"/><path id="XMLID_1771_" d="m256 449.68c24.82 0 144.01 21.47 172.52-4.54 51.3-46.82 83.48-114.22 83.48-189.14 0-9.408-.523-18.692-1.512-27.837l-182.658-182.658c-7.894-10.204-251.98 164.877-209.292 206.582l29.752 29.728c-3.372 11.029-7.499 20.791-12.557 28.306l25.797 26.049-78.05 108.97c28.51 26.01 147.7 4.54 172.52 4.54z" fill="#00ca76"/><path id="XMLID_1132_" d="m373.75 144.5c-21.26-3.148-31.298-1.791-31.298-1.791l-86.452-19.086v.156l-86.452 19.085s-10.038-1.356-31.298 1.791c-61.917 9.168-81.852 147.835 117.75 147.835v-.156c199.602-.001 179.667-138.667 117.75-147.834z" fill="#b04b00"/><path id="XMLID_103_" d="m342.452 142.709s10.038-1.356 31.298 1.791c61.917 9.167 81.852 147.833-117.75 147.833v-168.71z" fill="#803400"/><path id="XMLID_381_" d="m348.862 142.148-92.862-18.775-92.862 18.775s2.595 123.396-27.405 167.973c0 0 47.2 11.629 120.267 11.629s120.267-11.629 120.267-11.629c-30.001-44.577-27.405-167.973-27.405-167.973z" fill="#ffd000"/><path id="XMLID_1293_" d="m376.27 310.118s-47.2 11.629-120.27 11.629v-198.377l92.74 18.751.02.01.1.019s0 .184-.01.552c-.05 3.401-.27 22.036 1.04 46.224 2.16 39.781 8.45 94.552 26.38 121.192z" fill="#ffc100"/><path id="XMLID_1251_" d="m210.983 274.083h90.033v84h-90.033z" fill="#ffc473"/><path id="XMLID_1250_" d="m256 274.333h45.016v84h-45.016z" fill="#ffaa20"/><path id="XMLID_1247_" d="m348.251 170.093c-3.852-56.7-52.206-88.88-92.251-88.88s-88.399 32.18-92.251 88.88c-10.362 1.941-17.716 11.625-16.563 22.273l1.784 16.476c1.211 11.177 11.346 19.331 22.523 18.121l1.925-.209c22.88 59.558 59.804 74.892 82.582 78.375 22.778-3.483 59.701-18.817 82.582-78.375l1.925.209c11.177 1.211 21.312-6.944 22.523-18.121l1.784-16.476c1.153-10.648-6.201-20.332-16.563-22.273z" fill="#ffdba9"/><path id="XMLID_1245_" d="m197.046 182.169h42.287v18.599h-42.287z" fill="#ffc473"/><path id="XMLID_1244_" d="m364.81 192.37-1.78 16.47c-1.21 11.18-11.35 19.33-22.52 18.12l-1.93-.21c-22.88 59.56-59.8 74.9-82.58 78.38v-223.92c40.04 0 88.4 32.18 92.25 88.88 10.36 1.94 17.72 11.63 16.56 22.28z" fill="#ffc473"/><path id="XMLID_1243_" d="m310.561 182.169h-54.561v64.162h19.383v-46.179h35.178z" fill="#ffaa20"/><path id="XMLID_1241_" d="m410.87 395.97v63.88c-43 32.72-96.67 52.15-154.87 52.15s-111.87-19.43-154.87-52.15v-63.88c0-32.83 26.85-59.7 59.71-59.7h41.946 106.428 42.206c32.73.14 59.45 26.96 59.45 59.7z" fill="#ffdba9"/><path id="XMLID_1240_" d="m410.87 395.97v63.88c-43 32.72-96.67 52.15-154.87 52.15v-175.73h53.214 42.206c32.73.14 59.45 26.96 59.45 59.7z" fill="#ffc473"/><path id="XMLID_1420_" d="m370.63 420.33-19.66 73.48c-29.36 11.73-61.41 18.19-94.97 18.19s-65.61-6.46-94.98-18.2l-19.65-73.47 31.34-31.33v-52.83h20.5c0 .03.01.07.01.1 6.11 65.02 62.53 61.75 62.78 61.78.25-.03 56.67 3.24 62.78-61.78 0-.03.01-.07.01-.1h20.5v52.83z" fill="#fff"/><path id="XMLID_1417_" d="m370.63 420.33-19.66 73.48c-29.36 11.73-61.41 18.19-94.97 18.19v-113.95c.25-.03 56.67 3.24 62.78-61.78 0-.03.01-.07.01-.1h20.5v52.83z" fill="#fff5ca"/><path id="XMLID_105_" d="m326.25 104.5c-16.22-11.75-43.234-28.833-70.249-28.833s-54.031 17.083-70.251 28.833c-25.636 18.572-26.75 50.5-22.75 98.25h15.5l4.25-41.5 5.25 13.5h36.75l9.5-24.315v24.565h21.75 21.75v-24.565l9.5 24.315h36.75l5.25-13.5 4.25 41.5h15.5c4-47.75 2.886-79.678-22.75-98.25z" fill="#ffed93"/><path id="XMLID_1290_" d="m349.89 191.02c-.25 3.8-.55 7.71-.89 11.73h-15.5l-4.25-41.5-5.25 13.5h-36.75l-9.5-24.31v24.56h-21.75v-99.33c27.02 0 54.03 17.08 70.25 28.83 12.83 9.29 19.52 21.93 22.49 38.22.02.09.04.18.05.28.03.1.04.21.06.32 2.37 13.4 2.27 29.24 1.04 47.7z" fill="#ffdc00"/><path id="XMLID_1256_" d="m295.966 34.274-23.125 7.295c-11.047 3.485-22.636 3.485-33.682 0l-23.125-7.295c-17.357-5.476-35.074 7.201-39.669 28.382l-13.294 80.497h185.724l-13.161-80.497c-4.594-21.181-22.312-33.858-39.668-28.382z" fill="#ff7600"/><path id="XMLID_1236_" d="m348.8 143h-92.8v-98.97c5.66 0 11.32-.87 16.84-2.62l23.13-7.29c17.35-5.48 35.07 7.2 39.66 28.38l13.13 80.23z" fill="#da6200"/><path id="XMLID_1743_" d="m184.48 336.17v165.7c-38.08-11.05-72.49-30.72-101-56.73v-63.3c0-25.23 20.45-45.67 45.67-45.67z" fill="#00aeed"/><path id="XMLID_1742_" d="m428.52 381.84v63.3c-28.51 26.01-62.92 45.68-101 56.73v-165.7h55.33c25.22 0 45.67 20.44 45.67 45.67z" fill="#0083d5"/><path id="XMLID_1028_" d="m184.48 336.17v165.7c-11.16-3.24-22-7.22-32.47-11.88l16.99-51.66-35.02-60z" fill="#ffb942"/><path id="XMLID_1031_" d="m343 438.33 16.99 51.66c-10.47 4.66-21.31 8.64-32.47 11.88v-165.7l50.5 42.16z" fill="#ff8a00"/></svg>