<svg id="Capa_1" enable-background="new 0 0 512 512" height="512" viewBox="0 0 512 512" width="512" xmlns="http://www.w3.org/2000/svg"><path id="XMLID_1663_" d="m0 256.024c0-141.385 114.615-256 256-256s256 114.615 256 256c0 83.17-39.661 157.076-101.102 203.838-43.006 32.731-96.683-35.751-154.898-35.751-58.214 0-111.89 68.483-154.896 35.753-61.442-46.762-101.104-120.669-101.104-203.84z" fill="#58235e"/><path id="XMLID_956_" d="m256 424.111c58.215 0 111.892 68.482 154.898 35.751 59.839-45.542 99.013-116.834 101.015-197.353l-209.801-209.802c-10.204-12.064-148.748 168.005-143.605 171.218.615.987 1.309 1.915 2.075 2.778l-13.55 34.273 49.709 50.188 17.758 25.082-113.37 123.58c.686.522 1.381 1.033 2.073 1.547 42.649 29.016 95.527-37.262 152.798-37.262z" fill="#290a2d"/><path id="XMLID_953_" d="m315.258 407.974h-118.516v-319.369c0-30.723 24.906-55.629 55.629-55.629h7.258c30.723 0 55.629 24.906 55.629 55.629z" fill="#e30058"/><path id="XMLID_952_" d="m315.26 88.606v319.37h-59.26v-375h3.63c30.72 0 55.63 24.91 55.63 55.63z" fill="#cf0050"/><path id="XMLID_951_" d="m210.984 274.309h90.033v84h-90.033z" fill="#ffc473"/><path id="XMLID_948_" d="m256 274.309h45.016v84h-45.016z" fill="#ffaa20"/><path id="XMLID_947_" d="m348.251 170.069c-3.852-56.7-52.206-88.88-92.251-88.88s-88.399 32.18-92.251 88.88c-10.362 1.941-17.716 11.625-16.563 22.273l1.784 16.476c1.211 11.177 11.346 19.331 22.523 18.121l1.925-.209c22.88 59.558 59.804 74.892 82.582 78.375 22.778-3.483 59.701-18.817 82.582-78.375l1.925.209c11.177 1.211 21.312-6.944 22.523-18.121l1.784-16.476c1.153-10.649-6.201-20.333-16.563-22.273z" fill="#ffdba9"/><path id="XMLID_946_" d="m197.046 182.144h42.287v18.599h-42.287z" fill="#ffc473"/><path id="XMLID_944_" d="m364.81 192.346-1.78 16.47c-1.21 11.18-11.35 19.33-22.52 18.12l-1.93-.21c-22.88 59.56-59.8 74.9-82.58 78.38v-223.92c40.04 0 88.4 32.18 92.25 88.88 10.36 1.94 17.72 11.63 16.56 22.28z" fill="#ffc473"/><path id="XMLID_943_" d="m281.483 150.159c19.279-10.535 40.288-17.269 54.618-21.084-17.633-30.946-38.351-51.599-80.101-51.599s-62.468 20.653-80.102 51.599c14.331 3.816 35.339 10.549 54.618 21.084 15.873 8.674 35.095 8.674 50.967 0z" fill="#ff415b"/><path id="XMLID_932_" d="m336.1 129.076c-5.98 1.59-13.14 3.69-20.84 6.37-10.74 3.73-22.55 8.58-33.78 14.71-7.94 4.34-16.71 6.51-25.48 6.51v-79.19c26.87 0 45.03 8.55 59.26 22.9 7.88 7.94 14.55 17.67 20.84 28.7z" fill="#e30058"/><path id="XMLID_931_" d="m310.561 182.144h-54.561v64.163h19.383v-46.179h35.178z" fill="#ffaa20"/><path id="XMLID_930_" d="m410.87 395.946v63.88c-43 32.72-96.67 52.15-154.87 52.15s-111.87-19.43-154.87-52.15v-63.88c0-32.83 26.85-59.7 59.71-59.7h41.946 106.428 42.206c32.73.14 59.45 26.96 59.45 59.7z" fill="#ffdba9"/><path id="XMLID_929_" d="m410.87 395.946v63.88c-43 32.72-96.67 52.15-154.87 52.15v-175.73h53.214 42.206c32.73.14 59.45 26.96 59.45 59.7z" fill="#ffc473"/><path id="XMLID_957_" d="m164.033 217.976-17 43h34z" fill="#99f9ff"/><path id="XMLID_955_" d="m347.968 217.976-17 43h34z" fill="#00dae1"/><path id="XMLID_1405_" d="m364.7 487.806c-32.99 15.51-69.84 24.17-108.7 24.17-38.98 0-75.93-8.72-109-24.31v-16.5c0-35.99 4.51-71.83 13.44-106.68l7.23-28.24h19.08s22.11 48.58 94.92 55.73c65.21 6.4 80.83 27.56 83.03 95.83z" fill="#99f9ff"/><path id="XMLID_1404_" d="m364.7 487.806c-32.99 15.51-69.84 24.17-108.7 24.17v-124.64c7.76 2.11 16.29 3.72 25.67 4.64 65.21 6.4 80.83 27.56 83.03 95.83z" fill="#00dae1"/></svg>