<svg id="Capa_1" enable-background="new 0 0 512 512" height="512" viewBox="0 0 512 512" width="512" xmlns="http://www.w3.org/2000/svg"><path id="XMLID_2200_" d="m512 256c0 74.92-32.18 142.32-83.48 189.14-28.51 26.01-147.7 4.54-172.52 4.54s-144.01 21.47-172.52-4.54c-51.3-46.82-83.48-114.22-83.48-189.14 0-141.38 114.62-256 256-256s256 114.62 256 256z" fill="#99f9ff"/><path id="XMLID_2028_" d="m512 256c0 74.92-32.18 142.32-83.48 189.14-28.51 26.01-147.7 4.54-172.52 4.54s-144.01 21.47-172.52-4.54c-51.3-46.82-83.48-114.22-83.48-189.14 0-141.38 114.62-256 256-256s256 114.62 256 256z" fill="#99f9ff"/><path id="XMLID_2088_" d="m512 256c0 83.18-39.67 157.09-101.13 203.85-20.57 15.66-124.51-23.85-154.87-23.85s-134.3 39.51-154.87 23.85c-61.46-46.76-101.13-120.67-101.13-203.85 0-141.38 114.62-256 256-256s256 114.62 256 256z" fill="#00aeed"/><path id="XMLID_974_" d="m256 436c30.36 0 134.3 39.51 154.87 23.85 61.46-46.76 101.13-120.67 101.13-203.85 0-4.165-.108-8.306-.305-12.422l-181.787-181.788c-9.217-11.334-189.609 92.206-182.116 99.355l10.972 10.615c-7.618 3.631 17.602 54.679 21.761 57.965l-36.35 5.4 108.1 108.1-151.145 116.625c20.57 15.66 124.51-23.85 154.87-23.85z" fill="#0083d5"/><path id="XMLID_170_" d="m168.6 413.33v83.36c-10.33-3.75-20.34-8.15-30-13.14v-70.22z" fill="#ffc473"/><path id="XMLID_159_" d="m373.4 413.33v70.22c-9.66 4.99-19.67 9.39-30 13.14v-83.36z" fill="#ffaa20"/><path id="XMLID_534_" d="m210.984 274.333h90.033v84h-90.033z" fill="#b04b00"/><path id="XMLID_533_" d="m256 274.333h45.016v84h-45.016z" fill="#803400"/><path id="XMLID_531_" d="m348.251 170.093c-3.852-56.7-52.206-88.88-92.251-88.88s-88.399 32.18-92.251 88.88c-10.362 1.941-17.716 11.625-16.563 22.273l1.784 16.476c1.211 11.177 11.346 19.331 22.523 18.121l1.925-.209c22.88 59.558 59.804 74.892 82.581 78.375 22.778-3.483 59.701-18.817 82.582-78.375l1.925.209c11.177 1.211 21.312-6.944 22.523-18.121l1.784-16.476c1.154-10.648-6.2-20.332-16.562-22.273z" fill="#da6200"/><path id="XMLID_530_" d="m197.046 182.169h42.287v18.599h-42.287z" fill="#b04b00"/><path id="XMLID_529_" d="m364.81 192.37-1.78 16.47c-1.21 11.18-11.35 19.33-22.52 18.12l-1.93-.21c-22.88 59.56-59.8 74.9-82.58 78.38v-223.92c40.04 0 88.4 32.18 92.25 88.88 10.36 1.94 17.72 11.63 16.56 22.28z" fill="#b04b00"/><path id="XMLID_528_" d="m310.561 182.169h-54.561v64.162h19.383v-46.179h35.178z" fill="#803400"/><path id="XMLID_2086_" d="m410.87 395.97v63.88c-20.57 15.66-43.58 28.27-68.37 37.16-27.02 9.7-56.14 14.99-86.5 14.99s-59.48-5.29-86.5-14.99c-24.79-8.89-47.8-21.5-68.37-37.16v-63.88c0-32.83 26.85-59.7 59.71-59.7h190.58c32.73.14 59.45 26.96 59.45 59.7z" fill="#da6200"/><path id="XMLID_2083_" d="m410.87 395.97v63.88c-20.57 15.66-43.58 28.27-68.37 37.16-27.02 9.7-56.14 14.99-86.5 14.99v-175.73h95.42c32.73.14 59.45 26.96 59.45 59.7z" fill="#b04b00"/><path id="XMLID_2216_" d="m342.5 455.01v42c-27.02 9.7-56.14 14.99-86.5 14.99s-59.48-5.29-86.5-14.99v-42z" fill="#9adb05"/><path id="XMLID_718_" d="m342.5 455.01v42c-27.02 9.7-56.14 14.99-86.5 14.99v-56.99z" fill="#00ca76"/><path id="XMLID_945_" d="m341.156 93.685c0-.069.005-.137.005-.207 0-27.763-22.506-50.269-50.269-50.269-13.557 0-25.851 5.376-34.893 14.101-9.041-8.725-21.336-14.101-34.893-14.101-27.763 0-50.269 22.506-50.269 50.269 0 .069.005.137.005.207-19.782 2.025-35.215 18.737-35.215 39.054 0 21.683 17.578 39.261 39.261 39.261 18.115 0 33.355-12.272 37.884-28.953 2.712.453 5.494.7 8.334.7 13.557 0 25.851-5.376 34.893-14.101 9.042 8.725 21.336 14.101 34.893 14.101 2.841 0 5.622-.248 8.334-.7 4.529 16.681 19.77 28.953 37.885 28.953 21.683 0 39.261-17.578 39.261-39.261-.001-20.317-15.434-37.029-35.216-39.054z" fill="#57545c"/><path id="XMLID_715_" d="m376.37 132.74c0 21.68-17.58 39.26-39.26 39.26-18.11 0-33.35-12.27-37.88-28.95-2.72.45-5.5.7-8.34.7-13.55 0-25.85-5.38-34.89-14.1v-72.34c9.04-8.72 21.34-14.1 34.89-14.1 27.77 0 50.27 22.51 50.27 50.27v.21c19.78 2.02 35.21 18.73 35.21 39.05z" fill="#262628"/><path id="XMLID_1878_" d="m332.189 220.364h29.522v29.522h-29.522z" fill="#fff5ca" transform="matrix(.707 .707 -.707 .707 267.878 -176.464)"/><path id="XMLID_1942_" d="m150.289 220.364h29.522v29.522h-29.522z" fill="#fff" transform="matrix(.707 .707 -.707 .707 214.6 -47.841)"/><path id="XMLID_2011_" d="m339.967 383.307v-47.037h-28.393v52.885c0 2.562-28.315 15.07-40.511 23.7-9.029 6.389-21.096 6.389-30.125 0-12.196-8.63-40.511-21.138-40.511-23.7v-52.885h-28.394v47.037c0 11.083-3.823 21.731-10.4 30.651-4.675 6.341-7.369 13.784-7.369 21.749 0 23.173 22.774 41.959 50.868 41.959h101.736c28.094 0 50.868-18.786 50.868-41.959 0-7.965-2.694-15.408-7.369-21.749-6.577-8.921-10.4-19.568-10.4-30.651z" fill="#ffed93"/><path id="XMLID_716_" d="m357.74 435.71c0 11.73-5.83 22.33-15.24 29.94-9.18 7.43-21.75 12.02-35.63 12.02h-50.87v-60.03c5.27 0 10.54-1.6 15.06-4.79 12.2-8.62 40.51-21.13 40.51-23.7v-52.88h28.4v47.04c0 11.08 3.82 21.73 10.4 30.65 4.67 6.34 7.37 13.78 7.37 21.75z" fill="#ffd000"/></svg>