<svg id="Capa_1" enable-background="new 0 0 512 512" height="512" viewBox="0 0 512 512" width="512" xmlns="http://www.w3.org/2000/svg"><path id="XMLID_2495_" d="m512 256c0 83.18-39.673 157.096-101.126 203.854-17.672 13.446-120.594-24.187-154.874-24.187s-137.202 37.633-154.874 24.186c-61.454-46.758-101.126-120.673-101.126-203.853 0-141.38 114.62-256 256-256s256 114.62 256 256z" fill="#ff415b"/><path id="XMLID_656_" d="m256 435.667c34.28 0 137.202 37.634 154.874 24.188 60.743-46.217 100.2-118.968 101.105-200.971l-188.737-188.762-132.242 194.145 2.333 27.687-92.203 167.896.081.06c17.899 13.274 120.56-24.243 154.789-24.243z" fill="#cf0050"/><path id="XMLID_1098_" d="m210.984 274.333h90.033v84h-90.033z" fill="#ffc473"/><path id="XMLID_1097_" d="m256 274.333h45.016v84h-45.016z" fill="#ffaa20"/><path id="XMLID_1092_" d="m410.87 395.97v63.88c-43 32.72-96.67 52.15-154.87 52.15s-111.87-19.43-154.87-52.15v-63.88c0-32.83 26.85-59.7 59.71-59.7h41.946 106.428 42.206c32.73.14 59.45 26.96 59.45 59.7z" fill="#ffec97"/><path id="XMLID_1091_" d="m410.87 395.97v63.88c-43 32.72-96.67 52.15-154.87 52.15v-175.73h53.214 42.206c32.73.14 59.45 26.96 59.45 59.7z" fill="#ffd000"/><path id="XMLID_2462_" d="m352.88 426.9v66.13c-29.88 12.23-62.6 18.97-96.88 18.97s-67-6.74-96.88-18.97v-66.13l13.2-21.26c8.3-13.38 12.74-29.15 12.74-45.29v-24.08h17.95v23.06c0 7.46 2.46 14.38 6.6 19.77 4.15 5.38 9.97 9.23 16.72 10.54 9.81 1.9 19.74 2.86 29.67 2.86s19.86-.96 29.67-2.86c13.49-2.62 23.32-15.39 23.32-30.31v-23.06h17.95v24.08c0 16.14 4.44 31.91 12.74 45.29z" fill="#9adb05"/><path id="XMLID_2493_" d="m352.88 426.9v66.13c-29.88 12.23-62.6 18.97-96.88 18.97v-119.5c9.93 0 19.85-.96 29.67-2.86 13.49-2.62 23.32-15.39 23.32-30.31v-23.06h17.95v24.08c0 16.14 4.44 31.91 12.74 45.29z" fill="#00ca76"/><path id="XMLID_2002_" d="m192.381 351.146h-24.112l-17.667 64.469h59.446z" fill="#4ac9f3"/><path id="XMLID_499_" d="m174.311 251.78.14.199c3.692 5.253 10.11 5.73 14.263 1.061l12.113-13.619c4.153-4.669 4.53-12.788.839-18.041l-.14-.199c-3.692-5.253-10.11-5.73-14.263-1.061l-12.113 13.619c-4.153 4.67-4.53 12.788-.839 18.041z" fill="#0083d5"/><path id="XMLID_427_" d="m186.339 251.78-.14.199c-3.692 5.253-10.11 5.73-14.263 1.061l-12.113-13.619c-4.153-4.669-4.531-12.788-.839-18.041l.14-.199c3.692-5.253 10.11-5.73 14.263-1.061l12.113 13.619c4.153 4.67 4.53 12.788.839 18.041z" fill="#00aeed"/><path id="XMLID_445_" d="m174.311 279.467.14.199c3.692 5.253 10.11 5.73 14.263 1.061l12.113-13.619c4.153-4.669 4.53-12.788.839-18.041l-.14-.199c-3.692-5.253-10.11-5.73-14.263-1.061l-12.113 13.619c-4.153 4.67-4.53 12.788-.839 18.041z" fill="#009be8"/><path id="XMLID_429_" d="m186.339 279.467-.14.199c-3.692 5.253-10.11 5.73-14.263 1.061l-12.113-13.619c-4.153-4.669-4.531-12.788-.839-18.041l.14-.199c3.692-5.253 10.11-5.73 14.263-1.061l12.113 13.619c4.153 4.67 4.53 12.788.839 18.041z" fill="#4ac9f3"/><path id="XMLID_443_" d="m174.311 307.155.14.199c3.692 5.253 10.11 5.73 14.263 1.061l12.113-13.619c4.153-4.669 4.53-12.788.839-18.041l-.14-.199c-3.692-5.253-10.11-5.73-14.263-1.061l-12.113 13.619c-4.153 4.67-4.53 12.788-.839 18.041z" fill="#0083d5"/><path id="XMLID_430_" d="m186.339 307.155-.14.199c-3.692 5.253-10.11 5.73-14.263 1.061l-12.113-13.619c-4.153-4.669-4.531-12.788-.839-18.041l.14-.199c3.692-5.253 10.11-5.73 14.263-1.061l12.113 13.619c4.153 4.67 4.53 12.788.839 18.041z" fill="#00aeed"/><path id="XMLID_441_" d="m174.311 334.842.14.199c3.692 5.253 10.11 5.73 14.263 1.061l12.113-13.619c4.153-4.669 4.53-12.788.839-18.041l-.14-.199c-3.692-5.253-10.11-5.73-14.263-1.061l-12.113 13.619c-4.153 4.67-4.53 12.788-.839 18.041z" fill="#009be8"/><path id="XMLID_440_" d="m186.339 334.842-.14.199c-3.692 5.253-10.11 5.73-14.263 1.061l-12.113-13.619c-4.153-4.669-4.531-12.788-.839-18.041l.14-.199c3.692-5.253 10.11-5.73 14.263-1.061l12.113 13.619c4.153 4.67 4.53 12.788.839 18.041z" fill="#4ac9f3"/><path id="XMLID_1999_" d="m160.853 328.663h38.944v30h-38.944z" fill="#fff"/><path id="XMLID_2185_" d="m343.731 351.146h-24.112l-17.667 64.469h59.445z" fill="#009be8"/><path id="XMLID_2184_" d="m325.661 251.78.14.199c3.692 5.253 10.11 5.73 14.263 1.061l12.113-13.619c4.153-4.669 4.53-12.788.839-18.041l-.14-.199c-3.692-5.253-10.11-5.73-14.263-1.061l-12.113 13.619c-4.153 4.67-4.53 12.788-.839 18.041z" fill="#0083d5"/><path id="XMLID_2183_" d="m337.689 251.78-.14.199c-3.692 5.253-10.11 5.73-14.263 1.061l-12.113-13.619c-4.153-4.669-4.53-12.788-.839-18.041l.14-.199c3.692-5.253 10.11-5.73 14.263-1.061l12.113 13.619c4.153 4.67 4.53 12.788.839 18.041z" fill="#00aeed"/><path id="XMLID_2182_" d="m325.661 279.467.14.199c3.692 5.253 10.11 5.73 14.263 1.061l12.113-13.619c4.153-4.669 4.53-12.788.839-18.041l-.14-.199c-3.692-5.253-10.11-5.73-14.263-1.061l-12.113 13.62c-4.153 4.669-4.53 12.787-.839 18.04z" fill="#009be8"/><path id="XMLID_2181_" d="m337.689 279.467-.14.199c-3.692 5.253-10.11 5.73-14.263 1.061l-12.113-13.619c-4.153-4.669-4.53-12.788-.839-18.041l.14-.199c3.692-5.253 10.11-5.73 14.263-1.061l12.113 13.619c4.153 4.67 4.53 12.788.839 18.041z" fill="#4ac9f3"/><path id="XMLID_2180_" d="m325.661 307.155.14.199c3.692 5.253 10.11 5.73 14.263 1.061l12.113-13.619c4.153-4.669 4.53-12.788.839-18.041l-.14-.199c-3.692-5.253-10.11-5.73-14.263-1.061l-12.113 13.619c-4.153 4.67-4.53 12.788-.839 18.041z" fill="#0083d5"/><path id="XMLID_2179_" d="m337.689 307.155-.14.199c-3.692 5.253-10.11 5.73-14.263 1.061l-12.113-13.619c-4.153-4.669-4.53-12.788-.839-18.041l.14-.199c3.692-5.253 10.11-5.73 14.263-1.061l12.113 13.619c4.153 4.67 4.53 12.788.839 18.041z" fill="#00aeed"/><path id="XMLID_2178_" d="m325.661 334.842.14.199c3.692 5.253 10.11 5.73 14.263 1.061l12.113-13.619c4.153-4.669 4.53-12.788.839-18.041l-.14-.199c-3.692-5.253-10.11-5.73-14.263-1.061l-12.113 13.62c-4.153 4.669-4.53 12.787-.839 18.04z" fill="#009be8"/><path id="XMLID_2177_" d="m337.689 334.842-.14.199c-3.692 5.253-10.11 5.73-14.263 1.061l-12.113-13.619c-4.153-4.669-4.53-12.788-.839-18.041l.14-.199c3.692-5.253 10.11-5.73 14.263-1.061l12.113 13.619c4.153 4.67 4.53 12.788.839 18.041z" fill="#4ac9f3"/><path id="XMLID_2175_" d="m312.203 328.663h38.944v30h-38.944z" fill="#fff5ca"/><path id="XMLID_1096_" d="m348.251 170.093c-3.852-56.7-52.206-88.88-92.251-88.88s-88.399 32.18-92.251 88.88c-10.362 1.941-17.716 11.625-16.563 22.273l1.784 16.476c1.211 11.177 11.346 19.331 22.523 18.121l1.925-.209c22.88 59.558 59.804 74.892 82.581 78.375 22.778-3.483 59.701-18.817 82.582-78.375l1.925.209c11.177 1.211 21.312-6.944 22.523-18.121l1.784-16.476c1.154-10.648-6.2-20.332-16.562-22.273z" fill="#ffdba9"/><path id="XMLID_1095_" d="m197.046 182.169h42.287v18.599h-42.287z" fill="#ffc473"/><path id="XMLID_1094_" d="m364.81 192.37-1.78 16.47c-1.21 11.18-11.35 19.33-22.52 18.12l-1.93-.21c-22.88 59.56-59.8 74.9-82.58 78.38v-223.92c40.04 0 88.4 32.18 92.25 88.88 10.36 1.94 17.72 11.63 16.56 22.28z" fill="#ffc473"/><path id="XMLID_245_" d="m323.242 70.122c-20.532-17.334-39.514-24.701-67.242-24.701s-46.71 7.367-67.242 24.701c-25.511 21.529-32.338 70.627-28.231 123.049h15.912l4.363-45.56 5.39 14.821h37.727l9.753-26.688v26.963h44.657v-26.963l9.753 26.688h37.727l5.39-14.821 4.363 45.56h15.912c4.106-52.421-2.721-101.52-28.232-123.049z" fill="#00aeed"/><path id="XMLID_234_" d="m351.47 193.171h-15.91l-4.36-45.56-5.39 14.82h-37.73l-9.75-26.69v26.97h-22.33v-117.29c27.73 0 46.71 7.37 67.24 24.7 25.51 21.53 32.34 70.63 28.23 123.05z" fill="#0083d5"/><path id="XMLID_1093_" d="m310.561 182.169h-54.561v64.162h19.383v-46.179h35.178z" fill="#ffaa20"/><path id="XMLID_192_" d="m300.452 152c-13.461 0-25.267 7.057-31.941 17.667h-25.021c-6.675-10.61-18.48-17.667-31.941-17.667-20.831 0-37.718 16.887-37.718 37.718s16.887 37.718 37.718 37.718 37.718-16.887 37.718-37.718c0-1.815-.136-3.597-.384-5.343h14.235c-.248 1.746-.384 3.528-.384 5.343 0 20.831 16.887 37.718 37.718 37.718s37.718-16.887 37.718-37.718-16.887-37.718-37.718-37.718z" fill="#57545c"/><path id="XMLID_679_" d="m338.17 189.72c0 20.83-16.89 37.72-37.72 37.72s-37.72-16.89-37.72-37.72c0-1.82.14-3.6.39-5.34h-7.12v-14.71h12.51c6.68-10.61 18.48-17.67 31.94-17.67 20.83 0 37.72 16.89 37.72 37.72z" fill="#262628"/></svg>