<svg id="Capa_1" enable-background="new 0 0 512 512" height="512" viewBox="0 0 512 512" width="512" xmlns="http://www.w3.org/2000/svg"><path id="XMLID_1837_" d="m0 256c0-141.385 114.615-256 256-256s256 114.615 256 256c0 71.028-28.927 135.3-75.642 181.678-46.274 45.94-110.001 14.367-180.358 14.367-70.358 0-134.087 31.572-180.361-14.37-46.713-46.377-75.639-110.648-75.639-181.675z" fill="#58235e"/><path id="XMLID_1748_" d="m256 452.045c70.357 0 134.084 31.573 180.358-14.367 46.715-46.378 75.642-110.65 75.642-181.678 0-7.509-.343-14.937-.976-22.282l-173.52-173.52c-29.758-32.18-196.413 206.309-160.372 264.802l-104.799 109.308 4.981 4.977c46.131 43.569 109.172 12.76 178.686 12.76z" fill="#290a2d"/><path id="XMLID_555_" d="m256 116.516s-108.605 20.184-124.09 81.06c0 0 11.044 83.187 56.733 144.423h67.357 67.357c45.689-61.237 56.733-144.423 56.733-144.423-15.485-60.875-124.09-81.06-124.09-81.06z" fill="#cf0050"/><path id="XMLID_1301_" d="m380.09 197.58s-11.04 83.18-56.73 144.42h-67.36v-225.48s108.61 20.18 124.09 81.06z" fill="#e30058"/><path id="XMLID_1500_" d="m202.786 261h106.427v144.667h-106.427z" fill="#ffc473"/><path id="XMLID_1499_" d="m256 261h53.214v144.667h-53.214z" fill="#ffaa20"/><path id="XMLID_1066_" d="m355.152 390.203c-9.835-12.573-15.091-27.397-15.091-42.568v-22.633h-21.274v21.677c0 14.022-11.645 26.027-27.636 28.49-23.251 3.581-47.052 3.581-70.303 0-15.991-2.463-27.636-14.467-27.636-28.49v-21.677h-21.274v22.633c0 15.171-5.256 29.995-15.091 42.568l-15.638 19.99v31.009c33.678 17.084 72.905 26.892 114.79 26.892 41.886 0 81.113-9.808 114.791-26.892v-31.009z" fill="#fff"/><path id="XMLID_1065_" d="m370.791 410.19v31.014c-33.675 17.079-72.908 26.889-114.791 26.889v-90.241c11.763 0 23.526-.895 35.155-2.686 15.991-2.464 27.63-14.462 27.63-28.489v-21.677h21.274v22.635c0 15.174 5.256 29.996 15.096 42.569z" fill="#fff5ca"/><path id="XMLID_689_" d="m256 512c72.055 0 137.145-29.781 183.667-77.692v-43.975c0-36.083-29.251-65.333-65.333-65.333h-65.12l-53.214 78.585-53.214-78.585h-65.12c-36.083 0-65.333 29.251-65.333 65.333v43.975c46.522 47.911 111.612 77.692 183.667 77.692z" fill="#ffed93"/><path id="XMLID_688_" d="m439.67 390.33v43.98c-46.52 47.91-111.61 77.69-183.67 77.69v-108.41l53.21-78.59h65.12c36.09 0 65.34 29.25 65.34 65.33z" fill="#ffdc00"/><path id="XMLID_612_" d="m123.8 413.33v61.93c9.603 5.803 19.627 10.977 30 15.5v-77.43z" fill="#ffdc00"/><path id="XMLID_611_" d="m358.2 413.33v77.43c10.373-4.523 20.397-9.697 30-15.5v-61.93z" fill="#ffc100"/><path id="XMLID_1498_" d="m353.016 156.427c-4.051-59.628-54.902-93.47-97.016-93.47-42.113 0-92.965 33.842-97.016 93.47-10.897 2.041-18.631 12.225-17.418 23.424l1.876 17.326c1.273 11.755 11.932 20.33 23.686 19.057l2.024-.22c24.062 62.634 62.892 78.76 86.847 82.423 23.954-3.663 62.785-19.789 86.847-82.423l2.024.22c11.755 1.273 22.413-7.302 23.686-19.057l1.876-17.326c1.214-11.199-6.519-21.383-17.416-23.424z" fill="#ffdba9"/><path id="XMLID_1497_" d="m370.433 179.848-1.876 17.331c-1.274 11.752-11.929 20.323-23.68 19.049l-2.024-.217c-24.065 62.637-62.894 78.763-86.851 82.427v-235.481c42.117 0 92.964 33.842 97.012 93.467 10.902 2.045 18.634 12.226 17.419 23.424z" fill="#ffc473"/><path id="XMLID_1496_" d="m315.753 167.975h-59.752v70.266h21.227v-50.572h38.525z" fill="#ffaa20"/><path id="XMLID_1493_" d="m193.572 171.174h44.779v19.694h-44.779z" fill="#ffc473"/><path id="XMLID_1238_" d="m255.89 23c-26.49 0-123.98 16-123.98 174.58 0 0 52.45-43.21 123.98-45.25 71.53 2.04 123.98 45.25 123.98 45.25 0-158.58-97.49-174.58-123.98-174.58z" fill="#ff415b"/><path id="XMLID_1237_" d="m255.89 23v129.33c71.53 2.04 123.98 45.25 123.98 45.25 0-158.58-97.49-174.58-123.98-174.58z" fill="#cf0050"/><circle id="XMLID_1422_" cx="350.833" cy="216.608" fill="#57545c" r="8.58"/></svg>