<svg id="Capa_1" enable-background="new 0 0 512 512" height="512" viewBox="0 0 512 512" width="512" xmlns="http://www.w3.org/2000/svg"><path id="XMLID_1814_" d="m0 256c0-141.385 114.615-256 256-256s256 114.615 256 256c0 69.329-27.559 132.221-72.32 178.319-46.521 47.911-111.624 7.802-183.68 7.802-72.055 0-137.158 40.11-183.679-7.801-44.761-46.098-72.321-108.991-72.321-178.32z" fill="#00aeed"/><path id="XMLID_639_" d="m256 442.121c72.056 0 137.158 40.109 183.68-7.802 44.761-46.098 72.32-108.99 72.32-178.319 0-7.893-.377-15.697-1.076-23.408l-169.592-169.592c-32.489-32.966-81.332 27.5-101.999 71.5-13.568 28.886-87.265 80.828-84.472 83.894l29.663 29.15c12.283 3.957 23.726 7.207 24.513 31.924l-8.642 45.532-128.062 109.308c.584.602 1.18 1.191 1.771 1.785 46.395 45.116 110.756 6.028 181.896 6.028z" fill="#0083d5"/><path id="XMLID_781_" d="m302.415 276.579h-92.83l-9.19 48.421v.916h111.21v-.916z" fill="#ffc473"/><path id="XMLID_780_" d="m311.605 325v.92h-55.607v-49.34h46.411z" fill="#ffaa20"/><path id="XMLID_779_" d="m347.618 168.494c-3.826-56.31-51.848-88.27-91.618-88.27s-87.792 31.959-91.618 88.27c-10.291 1.928-17.594 11.545-16.449 22.12l1.772 16.362c1.202 11.101 11.268 19.199 22.368 17.997l1.912-.207c22.723 59.149 59.393 74.378 82.015 77.837 22.621-3.46 59.291-18.688 82.015-77.837l1.912.207c11.101 1.202 21.166-6.896 22.368-17.997l1.772-16.362c1.145-10.575-6.158-20.193-16.449-22.12z" fill="#ffdba9"/><path id="XMLID_778_" d="m364.065 190.614-1.772 16.366c-1.203 11.098-11.265 19.192-22.363 17.989l-1.912-.205c-22.726 59.152-59.395 74.381-82.019 77.841v-222.378c39.774 0 87.791 31.959 91.615 88.267 10.296 1.93 17.598 11.545 16.451 22.12z" fill="#ffc473"/><path id="XMLID_412_" d="m341.332 63c-32.488-32.966-85.3-16.344-85.333-16.334-.033-.01-52.844-16.632-85.333 16.334-45.333 46 1.083 147 1.083 147s4.583-97.665 84.248-73.3v.001h.001.001c79.665-24.365 84.248 73.3 84.248 73.3s46.418-101.001 1.085-147.001z" fill="#57545c"/><path id="XMLID_1571_" d="m340.25 210s-3.62-77.2-60.41-77.2c-7.09 0-15 1.2-23.84 3.9v-90.03c.03-.01 52.84-16.64 85.33 16.33 45.34 46-1.08 147-1.08 147z" fill="#3a383f"/><path id="XMLID_777_" d="m312.427 166.754h-56.427v66.357h20.046v-47.758h36.381z" fill="#ffaa20"/><path id="XMLID_776_" d="m436.35 394.98v42.69c-12.36 12.27-25.96 23.29-40.6 32.84-40.18 26.24-88.18-.01-139.75-.01s-99.57 26.25-139.75.01c-14.64-9.55-28.24-20.57-40.6-32.84v-42.69c0-38.65 31.33-69.98 69.98-69.98h220.74c38.65 0 69.98 31.33 69.98 69.98z" fill="#ffdba9"/><path id="XMLID_775_" d="m436.35 394.98v42.69c-12.36 12.27-25.96 23.29-40.6 32.84-.42.27-.84.55-1.26.8-39.92 24.9-87.46-.81-138.49-.81v-145.5h110.37c38.65 0 69.98 31.33 69.98 69.98z" fill="#ffc473"/><path id="XMLID_1235_" d="m256 512c72.055 0 137.145-29.781 183.667-77.692v-43.975c0-36.083-29.251-65.333-65.333-65.333h-62.708l-55.626 93.5-55.605-93.5h-62.729c-36.083 0-65.333 29.251-65.333 65.333v43.975c46.522 47.911 111.612 77.692 183.667 77.692z" fill="#57545c"/><path id="XMLID_1234_" d="m439.67 390.33v43.98c-46.52 47.91-111.61 77.69-183.67 77.69v-93.5l55.625-93.5h62.705c36.09 0 65.34 29.25 65.34 65.33z" fill="#3a383f"/><path id="XMLID_1233_" d="m123.8 413.33v61.93c9.603 5.803 19.627 10.977 30 15.5v-77.43z" fill="#262628"/><path id="XMLID_1232_" d="m358.2 413.33v77.43c10.373-4.523 20.397-9.697 30-15.5v-61.93z" fill="#262628"/><path id="XMLID_774_" d="m197.046 166.754h42.287v18.599h-42.287z" fill="#ffc473"/><path id="XMLID_411_" d="m306.511 242.674c-4.407-6.011-11.415-9.563-18.869-9.563h-31.642-31.642c-7.454 0-14.462 3.552-18.869 9.563l-7.816 10.661c-2.148 2.93-.056 7.058 3.577 7.058h39.85c1.213 0 2.374-.497 3.211-1.376l8.478-8.896c1.748-1.834 4.674-1.834 6.422 0l8.478 8.896c.837.878 1.997 1.376 3.211 1.376h39.85c3.633 0 5.725-4.128 3.577-7.058z" fill="#57545c"/></svg>