<svg id="Capa_1" enable-background="new 0 0 512 512" height="512" viewBox="0 0 512 512" width="512" xmlns="http://www.w3.org/2000/svg"><path id="XMLID_2317_" d="m0 256c0-141.385 114.615-256 256-256s256 114.615 256 256c0 57.992-19.283 111.48-51.786 154.403-46.741 61.723-120.82 47.44-204.214 47.44s-157.473 14.283-204.213-47.44c-32.504-42.923-51.787-96.411-51.787-154.403z" fill="#9adb05"/><path id="XMLID_1086_" d="m256 457.843c83.393 0 157.473 14.283 204.213-47.44 31.903-42.129 51.055-94.439 51.753-151.193l-180.038-180.039c-20.911-22.62-192.428 123.503-186.873 127.181l30.182 30.794c4.258 7.538 19.402 4.5 24.013 10.354 4.45 5.648-1.643 20.243 2.972 24.507.097.104.194.209.291.312l-9.533 52.681h-.02l-141.17 85.4c.229.302.465.598.695.9 46.778 60.673 120.534 46.543 203.515 46.543z" fill="#00ca76"/><path id="XMLID_68_" d="m308.621 267.531h-105.242l-10.419 57.577v1.089h126.08v-1.089z" fill="#b04b00"/><path id="XMLID_67_" d="m319.04 324.577v1.094h-63.042v-58.14l52.616-.531z" fill="#803400"/><path id="XMLID_66_" d="m360.482 145.663c-4.363-64.216-59.128-100.663-104.482-100.663s-100.119 36.447-104.482 100.663c-11.736 2.198-20.064 13.166-18.758 25.226l2.021 18.66c1.371 12.659 12.85 21.895 25.509 20.524l2.18-.237c25.914 67.454 67.732 84.821 93.53 88.766 25.798-3.945 67.616-21.312 93.53-88.766l2.18.237c12.659 1.371 24.138-7.864 25.509-20.524l2.021-18.66c1.306-12.06-7.022-23.027-18.758-25.226z" fill="#da6200"/><path id="XMLID_60_" d="m379.238 170.89-2.021 18.664c-1.372 12.656-12.847 21.887-25.503 20.515l-2.18-.234c-25.916 67.458-67.734 84.825-93.534 88.771v-253.603c45.358 0 100.118 36.446 104.478 100.66 11.741 2.202 20.069 13.167 18.76 25.227z" fill="#b04b00"/><path id="XMLID_59_" d="m320.35 151.662h-64.35v75.674h22.86v-54.464h41.49z" fill="#803400"/><path id="XMLID_58_" d="m436.35 394.98v23.52c-12.36 12.27-25.96 20.283-40.6 29.833-23.23 15.171-49.074 48.844-76.71 55.845-20.165 5.108-41.285 7.822-63.04 7.822-21.756 0-42.877-2.714-63.043-7.823-27.635-7.001-53.478-40.674-76.707-55.844-14.64-9.55-28.24-17.563-40.6-29.833v-23.52c0-38.65 31.33-69.98 69.98-69.98h220.74c38.65 0 69.98 31.33 69.98 69.98z" fill="#57545c"/><path id="XMLID_905_" d="m436.35 394.98v23.52c-12.36 12.27-25.96 20.28-40.6 29.83-23.23 15.17-49.07 48.85-76.71 55.85-20.17 5.11-41.29 7.82-63.04 7.82v-187h110.37c38.65 0 69.98 31.33 69.98 69.98z" fill="#262628"/><path id="XMLID_189_" d="m192.96 325v179.18c-57.14-14.47-106.62-48.16-141.17-93.78v-32.79c0-29.06 23.55-52.61 52.6-52.61z" fill="#fff"/><path id="XMLID_188_" d="m460.21 377.61v32.79c-34.55 45.62-84.03 79.31-141.17 93.78v-179.18h88.57c29.05 0 52.6 23.55 52.6 52.61z" fill="#fff5ca"/><path id="XMLID_56_" d="m188.768 151.662h48.225v21.21h-48.225z" fill="#b04b00"/><path id="XMLID_484_" d="m339.207 87.836c-21.046-27.789-54.068-44.836-83.207-44.836s-62.161 17.047-83.207 44.836c18.222 18.548 70.873 30.706 83.207 30.706 12.333 0 64.984-12.159 83.207-30.706z" fill="#57545c"/><path id="XMLID_904_" d="m339.21 87.84c-18.23 18.54-70.88 30.7-83.21 30.7v-75.54c29.14 0 62.16 17.05 83.21 44.84z" fill="#262628"/><path id="XMLID_473_" d="m357.25 227.336c-4.675 0-8.5-3.825-8.5-8.5v-14.525c0-4.675 3.825-8.5 8.5-8.5 4.675 0 8.5 3.825 8.5 8.5v14.525c0 4.675-3.825 8.5-8.5 8.5z" fill="#ffd000"/><path id="XMLID_660_" d="m339.328 388.585h80.091v30h-80.091z" fill="#262628"/></svg>