<svg id="Capa_1" enable-background="new 0 0 512 512" height="512" viewBox="0 0 512 512" width="512" xmlns="http://www.w3.org/2000/svg"><path id="XMLID_1799_" d="m0 256c0-141.385 114.615-256 256-256s256 114.615 256 256c0 64.852-24.115 124.073-63.867 169.182-3.58 4.062-121.44 32.661-192.133 32.661-70.356 0-188.348-28.366-192.135-32.663-39.751-45.11-63.865-104.329-63.865-169.18z" fill="#99f9ff"/><path id="XMLID_674_" d="m448.133 425.182c39.752-45.109 63.867-104.33 63.867-169.182 0-10.088-.603-20.034-1.738-29.818l-144.517-144.517c-6.531-7.778-50.826-20.134-50.826-20.134l-28.481-28.997-28.688 26.716s-112.035 55.954-105.026 62.78l13.77 13.545 20.506 24.925s-33.244 57.831-28.478 61.068l26.356 26.606c19.455 7.826 36.119 15.874 32.788 29.992 12.497 3.548 1.864 65.969 1.864 65.969l-37.725-19.135-5.455-7.67-112.48 107.85c.005.005.01.011.014.016 4.044 4.347 121.841 32.647 192.116 32.647 70.693 0 188.553-28.599 192.133-32.661z" fill="#00dae1"/><path id="XMLID_2580_" d="m244.933 36.983h45.198v30h-45.198z" fill="#57545c" transform="matrix(.184 -.983 .983 .184 167.151 305.359)"/><path id="XMLID_2793_" d="m286.44 32.53-4.27 22.78-4.06 21.65-22.11-4.15v-40.73l.95-5.07z" fill="#58235e"/><path id="XMLID_662_" d="m302.415 276.579h-92.83l-9.19 48.421v.916h111.21v-.916z" fill="#ffc473"/><path id="XMLID_661_" d="m311.605 325v.92h-55.606v-49.34h46.41z" fill="#ffaa20"/><path id="XMLID_658_" d="m347.618 168.494c-3.826-56.31-51.848-88.27-91.618-88.27s-87.792 31.959-91.618 88.27c-10.291 1.928-17.594 11.545-16.449 22.12l1.772 16.362c1.202 11.101 11.268 19.199 22.368 17.997l1.912-.207c22.723 59.149 59.393 74.378 82.015 77.837 22.621-3.46 59.291-18.688 82.015-77.837l1.912.207c11.101 1.202 21.166-6.896 22.368-17.997l1.772-16.362c1.145-10.575-6.158-20.193-16.449-22.12z" fill="#ffdba9"/><path id="XMLID_657_" d="m364.065 190.614-1.772 16.366c-1.203 11.098-11.265 19.192-22.363 17.989l-1.912-.205c-22.726 59.152-59.395 74.381-82.019 77.841v-222.378c39.774 0 87.791 31.959 91.615 88.267 10.296 1.93 17.598 11.545 16.451 22.12z" fill="#ffc473"/><path id="XMLID_79_" d="m166.495 96.824h179.013v56.878h-179.013z" fill="#c639d1"/><path id="XMLID_2791_" d="m256 96.82h89.51v56.88h-89.51z" fill="#95239b"/><path id="XMLID_655_" d="m312.427 173.754h-56.427v66.357h20.046v-47.758h36.381z" fill="#ffaa20"/><path id="XMLID_4_" d="m314.258 228.188s-7.896 17.712-23.845 9.698c-20.008-10.054-29.879-3.638-34.413 2.357-4.535-5.995-14.405-12.411-34.413-2.357-15.949 8.014-23.845-9.698-23.845-9.698s-4.312 26.905 18.839 33.849c17.681 5.304 32.872-5.742 39.419-11.661 6.548 5.919 21.738 16.965 39.419 11.661 23.151-6.945 18.839-33.849 18.839-33.849z" fill="#57545c"/><path id="XMLID_1709_" d="m295.42 262.04c-17.68 5.3-32.87-5.75-39.42-11.66v-10.14c4.53-5.99 14.41-12.41 34.41-2.35 15.95 8.01 23.85-9.7 23.85-9.7s4.31 26.9-18.84 33.85z" fill="#262628"/><path id="XMLID_654_" d="m436.35 394.98v42.69c-12.36 12.27-25.96 23.29-40.6 32.84-40.18 26.24-88.18-.01-139.75-.01s-99.57 26.25-139.75.01c-14.64-9.55-28.24-20.57-40.6-32.84v-42.69c0-38.65 31.33-69.98 69.98-69.98h220.74c38.65 0 69.98 31.33 69.98 69.98z" fill="#ffdba9"/><path id="XMLID_653_" d="m436.35 394.98v42.69c-12.36 12.27-25.96 23.29-40.6 32.84-.42.27-.84.55-1.26.8-39.92 24.9-87.46-.81-138.49-.81v-145.5h110.37c38.65 0 69.98 31.33 69.98 69.98z" fill="#ffc473"/><path id="XMLID_1308_" d="m367.18 359v127.65c-10.15 4.91-20.68 9.16-31.53 12.71-25.07 8.2-51.84 12.64-79.65 12.64s-54.58-4.44-79.65-12.64c-10.85-3.55-21.38-7.8-31.53-12.71v-127.65z" fill="#fff"/><path id="XMLID_2792_" d="m367.18 359v127.65c-10.15 4.91-20.68 9.16-31.53 12.71-25.07 8.2-51.84 12.64-79.65 12.64v-153z" fill="#fff5ca"/><path id="XMLID_1486_" d="m163.271 388.585h185.458v30h-185.458z" fill="#57545c"/><path id="XMLID_2788_" d="m256 388.59h92.73v30h-92.73z" fill="#262628"/><path id="XMLID_518_" d="m163.271 446.939h185.458v30h-185.458z" fill="#57545c"/><path id="XMLID_2787_" d="m256 446.94h92.73v30h-92.73z" fill="#262628"/><path id="XMLID_1305_" d="m176.35 317.33v182.03c-10.85-3.55-21.38-7.8-31.53-12.71-30.97-14.94-58.46-35.95-80.95-61.47v-56.98c0-28.1 22.77-50.87 50.86-50.87z" fill="#c639d1"/><path id="XMLID_1306_" d="m448.13 368.2v56.98c-22.49 25.52-49.98 46.53-80.95 61.47-10.15 4.91-20.68 9.16-31.53 12.71v-182.03h61.62c28.09 0 50.86 22.77 50.86 50.87z" fill="#7c1984"/><path id="XMLID_652_" d="m197.046 173.754h42.287v18.599h-42.287z" fill="#ffc473"/><path id="XMLID_199_" d="m142.482 94.982c-1.471 18.663 12.596 35.136 31.259 36.607l165.478 13.039c18.663 1.471 35.136-12.596 36.607-31.259 1.818-23.071-14.007-42.736-36.707-47.24l-126.741-24.077c-34.445-6.835-67.138 17.922-69.896 52.93z" fill="#95239b"/><path id="XMLID_2789_" d="m375.97 109.79c0 1.18-.05 2.38-.14 3.58-1.3 16.53-14.38 29.46-30.32 31.17-2.06.22-4.16.26-6.29.09l-83.22-6.56v-87.73l26.17 4.97 56.95 10.82c21.52 4.27 36.85 22.16 36.85 43.66z" fill="#7c1984"/></svg>