<svg id="Capa_1" enable-background="new 0 0 512 512" height="512" viewBox="0 0 512 512" width="512" xmlns="http://www.w3.org/2000/svg"><path id="XMLID_2538_" d="m0 256c0-141.385 114.615-256 256-256s256 114.615 256 256c0 83.18-39.671 157.095-101.126 203.855-43.002 32.72-96.67-38.189-154.874-38.189s-111.87 70.91-154.872 38.191c-61.456-46.76-101.128-120.676-101.128-203.857z" fill="#58235e"/><path id="XMLID_2562_" d="m512 256c0 83.18-39.67 157.09-101.13 203.86-.03.02-.05.04-.08.06-42.99 32.57-96.63-38.25-154.79-38.25-58.2 0-111.87 70.91-154.87 38.19-.03-.02-.053.01-.083-.01-61.41-46.76-101.047-120.71-101.047-203.85 0-141.38 114.62-256 256-256s256 114.62 256 256z" fill="#58235e"/><path id="XMLID_554_" d="m256 421.67c58.16 0 111.8 70.82 154.79 38.25.03-.02.05-.04.08-.06 59.734-45.457 98.88-116.552 101.032-196.877l-180.157-180.227-230.698 377.094c.03.02.053-.01.083.01 43 32.72 96.67-38.19 154.87-38.19z" fill="#290a2d"/><path id="XMLID_2322_" d="m384.362 299.462c0-14.311-8.194-26.699-20.142-32.754 3.042-4.902 4.803-10.681 4.803-16.875 0-17.703-14.351-32.054-32.054-32.054-9.829 0-18.62 4.428-24.499 11.393-5.88-6.965-14.671-11.393-24.499-11.393-15.018 0-27.62 10.33-31.097 24.272-3.478-13.941-16.079-24.272-31.097-24.272-10.377 0-19.597 4.936-25.456 12.583-5.858-7.647-15.078-12.583-25.456-12.583-17.703 0-32.054 14.351-32.054 32.054 0 6.193 1.761 11.973 4.803 16.875-11.948 6.055-20.142 18.444-20.142 32.754 0 11.408 5.204 21.599 13.367 28.332-6.197 6.572-10.003 15.425-10.003 25.171 0 20.273 16.435 36.708 36.708 36.708 9.888 0 18.855-3.917 25.456-10.274 6.6 6.357 15.568 10.274 25.456 10.274h76.836c9.416 0 18.001-3.549 24.499-9.378 6.498 5.829 15.083 9.378 24.499 9.378 20.273 0 36.707-16.435 36.707-36.708 0-9.746-3.805-18.599-10.003-25.171 8.164-6.732 13.368-16.924 13.368-28.332z" fill="#fff5ca"/><path id="XMLID_2396_" d="m370.99 327.79c6.2 6.58 10.01 15.43 10.01 25.18 0 20.27-16.44 36.7-36.71 36.7-9.42 0-18-3.55-24.5-9.37-6.5 5.82-15.08 9.37-24.5 9.37h-39.29v-150.52c.33.95.63 1.91.87 2.9 3.48-13.94 16.08-24.27 31.1-24.27 9.83 0 18.62 4.43 24.5 11.39 5.88-6.96 14.67-11.39 24.5-11.39 17.7 0 32.05 14.35 32.05 32.05 0 6.2-1.76 11.98-4.8 16.88 11.95 6.05 20.14 18.44 20.14 32.75 0 11.41-5.2 21.6-13.37 28.33z" fill="#ffe767"/><path id="XMLID_2230_" d="m210.901 274.333h90.033v84h-90.033z" fill="#ffc473"/><path id="XMLID_2229_" d="m255.917 274.333h45.016v84h-45.016z" fill="#ffaa20"/><path id="XMLID_2228_" d="m348.168 170.093c-3.852-56.7-52.206-88.88-92.251-88.88s-88.399 32.18-92.251 88.88c-10.362 1.941-17.716 11.625-16.563 22.273l1.784 16.476c1.211 11.177 11.346 19.331 22.523 18.121l1.925-.209c22.88 59.558 59.804 74.892 82.581 78.375 22.778-3.483 59.701-18.817 82.582-78.375l1.925.209c11.177 1.211 21.312-6.944 22.523-18.121l1.784-16.476c1.154-10.648-6.2-20.332-16.562-22.273z" fill="#ffdba9"/><path id="XMLID_2297_" d="m364.727 192.37-1.78 16.47c-1.21 11.18-11.35 19.33-22.52 18.12l-1.93-.21c-22.88 59.56-59.8 74.9-82.58 78.38v-223.92c40.04 0 88.4 32.18 92.25 88.88 10.36 1.94 17.72 11.63 16.56 22.28z" fill="#ffc473"/><path id="XMLID_2300_" d="m255.917 53.701c-121.828-.687-94.259 126.681-94.259 126.681 74.474-2.993 94.259-62.596 94.259-62.596s19.785 59.603 94.259 62.596c0 0 27.569-127.368-94.259-126.681z" fill="#fff5ca"/><path id="XMLID_2299_" d="m350.175 180.378c-74.477-2.987-94.258-62.595-94.258-62.595v-64.077c121.825-.691 94.258 126.672 94.258 126.672z" fill="#ffe767"/><path id="XMLID_2227_" d="m196.963 182.169h42.287v18.599h-42.287z" fill="#ffc473"/><path id="XMLID_2215_" d="m310.478 182.169h-54.561v64.162h19.383v-46.179h35.178z" fill="#ffaa20"/><path id="XMLID_2214_" d="m410.787 395.97v63.95c-43 32.72-96.67 52.08-154.87 52.08s-111.87-19.43-154.87-52.15v-63.88c0-32.83 26.85-59.7 59.71-59.7h41.946 106.428 42.206c32.73.14 59.45 26.96 59.45 59.7z" fill="#ffdba9"/><path id="XMLID_228_" d="m410.79 395.97v63.95c-42.98 32.7-96.62 52.06-154.79 52.08v-175.73h95.34c32.73.14 59.45 26.96 59.45 59.7z" fill="#ffc473"/><path id="XMLID_2593_" d="m357.66 435.71v55.32c-31.18 13.5-65.59 20.97-101.74 20.97s-70.56-7.5-101.74-21.02v-55.27z" fill="#ffc473"/><path id="XMLID_2589_" d="m357.66 435.71v55.32c-31.18 13.5-65.59 20.97-101.74 20.97v-76.29z" fill="#ffaa20"/><path id="XMLID_1704_" d="m339.884 383.307v-47.037h-28.393v52.885c0 2.562-28.315 15.07-40.511 23.7-9.029 6.389-21.096 6.389-30.125 0-12.196-8.63-40.511-21.138-40.511-23.7v-52.885h-28.394v47.037c0 11.083-3.823 21.731-10.4 30.651-4.675 6.341-7.369 13.784-7.369 21.749 0 23.173 22.774 41.959 50.868 41.959h101.736c28.094 0 50.868-18.786 50.868-41.959 0-7.965-2.694-15.408-7.369-21.749-6.577-8.921-10.4-19.568-10.4-30.651z" fill="#00aeed"/><path id="XMLID_1703_" d="m357.657 435.71c0 11.73-5.83 22.33-15.24 29.94-9.18 7.43-21.75 12.02-35.63 12.02h-50.87v-60.03c5.27 0 10.54-1.6 15.06-4.79 12.2-8.62 40.51-21.13 40.51-23.7v-52.88h28.4v47.04c0 11.08 3.82 21.73 10.4 30.65 4.67 6.34 7.37 13.78 7.37 21.75z" fill="#0083d5"/></svg>