<svg id="Capa_1" enable-background="new 0 0 512 512" height="512" viewBox="0 0 512 512" width="512" xmlns="http://www.w3.org/2000/svg"><path id="XMLID_1592_" d="m0 256c0-141.385 114.615-256 256-256s256 114.615 256 256c0 71.028-28.927 135.3-75.642 181.678-46.274 45.94-110.001 21.322-180.358 21.322-70.356 0-134.083 24.618-180.357-21.32-46.716-46.378-75.643-110.651-75.643-181.68z" fill="#00aeed"/><path id="XMLID_1465_" d="m256 459c70.357 0 134.085 24.618 180.358-21.322 46.715-46.378 75.642-110.65 75.642-181.678 0-7.799-.369-15.511-1.052-23.133l-160.522-160.523-149.426 60.323-74.075 194.882-51.275 110.121c.018.017.038.047.056.07 46.269 45.855 109.97 21.26 180.294 21.26z" fill="#0083d5"/><path id="XMLID_1464_" d="m300.413 276.579h-88.829l-8.794 48.421v.916h106.417v-.916z" fill="#ffc473"/><path id="XMLID_1463_" d="m309.21 325.917h-53.211v-49.334h44.415l8.796 48.417z" fill="#ffaa20"/><path id="XMLID_1462_" d="m347.618 173.369c-3.826-56.31-51.848-88.27-91.618-88.27s-87.792 31.959-91.618 88.27c-10.291 1.928-17.594 11.545-16.449 22.12l1.772 16.362c1.202 11.101 11.268 19.199 22.368 17.997l1.912-.207c22.723 59.149 59.393 74.378 82.015 77.837 22.621-3.46 59.291-18.688 82.015-77.837l1.912.207c11.101 1.202 21.166-6.896 22.368-17.997l1.772-16.362c1.145-10.575-6.158-20.193-16.449-22.12z" fill="#ffdba9"/><path id="XMLID_1461_" d="m364.065 195.489-1.772 16.366c-1.203 11.098-11.265 19.192-22.363 17.989l-1.912-.205c-22.726 59.152-59.395 74.381-82.019 77.841v-222.378c39.774 0 87.791 31.959 91.615 88.267 10.296 1.93 17.598 11.545 16.451 22.12z" fill="#ffc473"/><path id="XMLID_1460_" d="m312.427 178.629h-56.427v66.357h20.046v-47.758h36.381z" fill="#ffaa20"/><path id="XMLID_1459_" d="m436.35 394.98v42.69c-12.36 12.27-25.96 23.29-40.6 32.84-40.18 26.24-88.18-.01-139.75-.01s-99.57 26.25-139.75.01c-14.64-9.55-28.24-20.57-40.6-32.84v-42.69c0-38.65 31.33-69.98 69.98-69.98h220.74c38.65 0 69.98 31.33 69.98 69.98z" fill="#ffdba9"/><path id="XMLID_1458_" d="m436.35 394.98v42.69c-12.36 12.27-25.96 23.29-40.6 32.84-.42.27-.84.55-1.26.8-39.92 24.9-87.46-.81-138.49-.81v-145.5h110.37c38.65 0 69.98 31.33 69.98 69.98z" fill="#ffc473"/><path id="XMLID_1457_" d="m436.35 394.98v42.69c-46.27 45.94-109.99 74.33-180.35 74.33s-134.08-28.39-180.35-74.33v-42.69c0-38.65 31.33-69.98 69.98-69.98h57.16c0 29.39 23.82 53.21 53.21 53.21s53.21-23.82 53.21-53.21h57.16c38.65 0 69.98 31.33 69.98 69.98z" fill="#9adb05"/><path id="XMLID_1456_" d="m436.35 394.98v42.69c-46.27 45.94-109.99 74.33-180.35 74.33v-133.79c29.39 0 53.21-23.82 53.21-53.21h57.16c21.46 0 40.66 9.65 53.48 24.86 10.3 12.18 16.5 27.93 16.5 45.12z" fill="#00ca76"/><path id="XMLID_1455_" d="m123.8 413.33v61.93c9.603 5.803 19.627 10.977 30 15.5v-77.43z" fill="#00ca76"/><path id="XMLID_1454_" d="m358.2 413.33v77.43c10.373-4.523 20.397-9.697 30-15.5v-61.93z" fill="#00a461"/><path id="XMLID_1453_" d="m197.046 178.629h42.287v18.599h-42.287z" fill="#ffc473"/><path id="XMLID_1249_" d="m385.122 188.426c0-5.968-1.632-11.553-4.473-16.337-2.385-4.016-2.385-9.086 0-13.102 2.841-4.784 4.473-10.369 4.473-16.337 0-12.348-6.982-23.061-17.213-28.416-4.414-2.311-6.99-6.982-6.98-11.964 0-.031 0-.063 0-.094 0-26.321-21.338-47.659-47.659-47.659-4.355 0-8.572.588-12.578 1.686-4.439 1.216-9.197.12-12.573-3.008-8.498-7.876-19.869-12.695-32.37-12.695s-23.871 4.819-32.369 12.695c-3.375 3.128-8.134 4.224-12.573 3.008-4.007-1.098-8.223-1.686-12.578-1.686-26.321 0-47.659 21.337-47.659 47.659 0 .183.001.367.003.549.057 4.928-2.533 9.493-6.84 11.888-9.844 5.473-16.504 15.976-16.504 28.038 0 5.896 1.593 11.419 4.372 16.165 2.402 4.103 2.412 9.258-.062 13.318-2.956 4.851-4.66 10.547-4.66 16.643 0 5.968 1.632 11.553 4.473 16.336 2.385 4.016 2.385 9.087 0 13.102-2.841 4.784-4.473 10.369-4.473 16.336 0 5.968 1.632 11.553 4.473 16.337 2.385 4.016 2.385 9.086 0 13.102-2.841 4.784-4.473 10.369-4.473 16.337 0 5.829 1.557 11.292 4.276 16.001 2.432 4.21 2.519 9.454.07 13.654-3.064 5.252-4.677 11.453-4.289 18.056.941 15.995 13.882 29.023 29.871 30.059 18.676 1.21 34.201-13.579 34.201-31.995 0-6.476-1.922-12.501-5.224-17.54-2.114-3.227-2.114-7.468 0-10.695 3.303-5.04 5.224-11.065 5.224-17.54 0-6.476-1.922-12.501-5.224-17.54-2.114-3.227-2.114-7.468 0-10.695 3.302-5.04 5.224-11.065 5.224-17.54s-1.922-12.501-5.224-17.54c-2.114-3.227-2.114-7.468 0-10.695 3.303-5.04 5.224-11.065 5.224-17.54 0-6.464-1.915-12.479-5.206-17.513-2.124-3.248-2.07-7.509.1-10.727.992-1.471 1.865-3.029 2.605-4.66 1.681-3.702 5.306-6.073 9.372-6.043.117.001.234.001.351.001 13.035 0 24.841-5.24 33.443-13.722 2.642-2.605 6.489-3.503 10.033-2.409 4.439 1.371 9.154 2.113 14.044 2.113s9.605-.742 14.044-2.113c3.544-1.095 7.392-.196 10.033 2.409 8.602 8.482 20.408 13.722 33.443 13.722h.086c4.618-.009 8.801 2.575 10.81 6.733.441.912.923 1.8 1.445 2.662 2.349 3.877 2.4 8.679.042 12.551-2.955 4.852-4.659 10.549-4.659 16.646 0 6.085 1.697 11.772 4.642 16.618 2.35 3.868 2.35 8.673 0 12.54-2.945 4.846-4.642 10.533-4.642 16.617s1.697 11.772 4.642 16.618c2.35 3.867 2.35 8.673 0 12.54-2.945 4.846-4.642 10.533-4.642 16.617 0 6.086 1.697 11.774 4.643 16.62 2.333 3.838 2.391 8.627.047 12.459-3.286 5.372-5.036 11.786-4.633 18.633.941 15.995 13.883 29.023 29.872 30.059 18.675 1.21 34.199-13.58 34.199-31.995 0-5.968-1.632-11.553-4.473-16.337-2.385-4.016-2.385-9.086 0-13.102 2.841-4.784 4.473-10.369 4.473-16.337s-1.632-11.553-4.473-16.336c-2.385-4.016-2.385-9.087 0-13.102 2.841-4.784 4.473-10.369 4.473-16.337s-1.632-11.553-4.473-16.336c-2.385-4.016-2.385-9.087 0-13.102 2.841-4.785 4.473-10.37 4.473-16.338z" fill="#ff415b"/><path id="XMLID_1432_" d="m380.65 204.76c-2.39 4.02-2.39 9.09 0 13.1 2.84 4.79 4.47 10.37 4.47 16.34s-1.63 11.55-4.47 16.34c-2.39 4.01-2.39 9.08 0 13.1 2.84 4.78 4.47 10.37 4.47 16.34 0 5.96-1.63 11.55-4.47 16.33-2.39 4.02-2.39 9.09 0 13.11 2.84 4.78 4.47 10.36 4.47 16.33 0 18.42-15.52 33.21-34.2 32-15.99-1.04-28.93-14.07-29.87-30.06-.4-6.85 1.35-13.26 4.63-18.63 2.35-3.84 2.29-8.63-.04-12.46-2.95-4.85-4.65-10.54-4.65-16.62 0-6.09 1.7-11.78 4.64-16.62 2.36-3.87 2.36-8.67 0-12.54-2.94-4.85-4.64-10.53-4.64-16.62 0-6.08 1.7-11.77 4.64-16.62 2.36-3.86 2.36-8.67 0-12.54-2.94-4.84-4.64-10.53-4.64-16.61 0-6.1 1.71-11.8 4.66-16.65 2.36-3.87 2.31-8.67-.04-12.55-.52-.86-1-1.75-1.44-2.66-.11-.24-.24-.47-.36-.69-2.13-3.75-6.1-6.05-10.45-6.05h-.09c-13.04 0-24.84-5.23-33.44-13.72-2.64-2.6-6.49-3.5-10.04-2.41-4.36 1.36-8.99 2.09-13.79 2.12v-95.32c12.4.06 23.68 4.87 32.12 12.7 3.37 3.12 8.13 4.22 12.57 3 4.01-1.09 8.22-1.68 12.58-1.68 26.32 0 47.66 21.33 47.66 47.66v.09c-.01 4.98 2.56 9.65 6.98 11.96 10.23 5.36 17.21 16.07 17.21 28.42 0 5.97-1.63 11.55-4.47 16.34-2.39 4.01-2.39 9.08 0 13.1 2.84 4.78 4.47 10.37 4.47 16.34 0 5.96-1.63 11.55-4.47 16.33z" fill="#cf0050"/><path id="XMLID_1259_" d="m188.506 113.039h135.577v42.837h-135.577z" fill="#9adb05"/><path id="XMLID_1431_" d="m256 113.04h68.08v42.84h-68.08z" fill="#00ca76"/><path id="XMLID_1288_" d="m268.953 318.333h-25.428c-16.174 0-29.286-13.112-29.286-29.286v-44.061h84v44.061c-.001 16.175-13.112 29.286-29.286 29.286z" fill="#ff415b"/><path id="XMLID_1430_" d="m298.24 244.99v44.06c0 16.17-13.11 29.28-29.29 29.28h-12.95v-73.34z" fill="#cf0050"/><path id="XMLID_1316_" d="m235.095 258.212h42.287v18.599h-42.287z" fill="#ffdba9"/><path id="XMLID_1428_" d="m256 258.21h21.38v18.6h-21.38z" fill="#ffc473"/></svg>