<svg id="Capa_1" enable-background="new 0 0 512 512" height="512" viewBox="0 0 512 512" width="512" xmlns="http://www.w3.org/2000/svg"><path id="XMLID_215_" d="m0 256c0-141.385 114.615-256 256-256s256 114.615 256 256c0 83.18-39.671 157.095-101.126 203.855-43.002 32.721-96.67-17.855-154.874-17.855s-111.87 50.576-154.872 17.857c-61.456-46.76-101.128-120.676-101.128-203.857z" fill="#9adb05"/><path id="XMLID_2823_" d="m256 442c58.204 0 111.872 50.575 154.874 17.855 60.327-45.903 99.659-117.974 101.082-199.289l-172.076-172.075c-20.356-22.162-217.846 141.228-212.012 146.515l38.889 38.903-5.627 47.22 17.022 19.724-77.022 118.997c.157.12.318.235.475.354 42.921 31.99 96.406-18.204 154.395-18.204z" fill="#00ca76"/><path id="XMLID_1415_" d="m161.13 145.513h189.739v175.616h-189.739z" fill="#ffed93"/><path id="XMLID_1770_" d="m256 145.51h94.87v175.62h-94.87z" fill="#ffdc00"/><path id="XMLID_419_" d="m210.984 274.333h90.033v119.167h-90.033z" fill="#b04b00"/><path id="XMLID_417_" d="m256 274.333h45.016v119.167h-45.016z" fill="#803400"/><path id="XMLID_415_" d="m348.251 170.093c-3.852-56.7-52.206-88.88-92.251-88.88s-88.399 32.18-92.251 88.88c-10.362 1.941-17.716 11.625-16.563 22.273l1.784 16.476c1.211 11.177 11.346 19.331 22.523 18.121l1.925-.209c22.88 59.558 59.804 74.892 82.581 78.375 22.778-3.483 59.701-18.817 82.582-78.375l1.925.209c11.177 1.211 21.312-6.944 22.523-18.121l1.784-16.476c1.154-10.648-6.2-20.332-16.562-22.273z" fill="#da6200"/><path id="XMLID_385_" d="m197.046 182.169h42.287v18.599h-42.287z" fill="#b04b00"/><path id="XMLID_383_" d="m364.81 192.37-1.78 16.47c-1.21 11.18-11.35 19.33-22.52 18.12l-1.93-.21c-22.88 59.56-59.8 74.9-82.58 78.38v-223.92c40.04 0 88.4 32.18 92.25 88.88 10.36 1.94 17.72 11.63 16.56 22.28z" fill="#b04b00"/><path id="XMLID_2127_" d="m330.333 301.333h-47.053v-30h47.053c7.169 0 13-5.832 13-13v-28h30v28c0 23.71-19.289 43-43 43z" fill="#0083d5"/><path id="XMLID_989_" d="m256 72.686c-119.232-.616-92.251 113.658-92.251 113.658 72.887-2.686 92.251-56.162 92.251-56.162s19.364 53.475 92.251 56.161c0 0 26.981-114.274-92.251-113.657z" fill="#ffed93"/><path id="XMLID_988_" d="m348.25 186.34c-72.89-2.68-92.25-56.16-92.25-56.16v-57.49c119.23-.62 92.25 113.65 92.25 113.65z" fill="#ffdc00"/><path id="XMLID_382_" d="m310.561 182.169h-54.561v64.162h19.383v-46.179h35.178z" fill="#803400"/><path id="XMLID_2645_" d="m410.87 395.97v63.88c-43 32.72-96.67 52.15-154.87 52.15s-111.87-19.43-154.87-52.15v-63.88c0-32.83 26.85-59.7 59.71-59.7h50.14c0 24.86 20.16 45.02 45.02 45.02s45.02-20.16 45.02-45.02h50.4c32.73.14 59.45 26.96 59.45 59.7z" fill="#fff"/><path id="XMLID_2643_" d="m410.87 395.97v63.88c-43 32.72-96.67 52.15-154.87 52.15v-130.71c24.86 0 45.02-20.16 45.02-45.02h50.4c32.73.14 59.45 26.96 59.45 59.7z" fill="#fff5ca"/><path id="XMLID_2838_" d="m169.23 423.18v73.74c-10.33-3.72-20.34-8.09-30-13.05v-60.69z" fill="#fff5ca"/><path id="XMLID_2836_" d="m372.77 423.18v60.69c-9.66 4.96-19.67 9.33-30 13.05v-73.74z" fill="#ffed93"/><path id="XMLID_927_" d="m369.218 184.742h-30v-21.035c0-44.823-36.467-81.29-81.291-81.29h-3.855c-44.824 0-81.291 36.467-81.291 81.29v21.035h-30v-21.035c0-61.365 49.925-111.29 111.291-111.29h3.855c61.366 0 111.291 49.925 111.291 111.29z" fill="#00aeed"/><path id="XMLID_1685_" d="m369.22 163.71v21.03h-30v-21.03c0-44.83-36.47-81.29-81.29-81.29h-1.93v-30h1.93c61.36 0 111.29 49.92 111.29 111.29z" fill="#0083d5"/><path id="XMLID_731_" d="m167.377 242.5h-20.174c-15.868 0-28.85-12.982-28.85-28.85v-32.494c0-15.868 12.982-28.85 28.85-28.85h20.174c3.728 0 6.75 3.022 6.75 6.75v76.694c0 3.728-3.022 6.75-6.75 6.75z" fill="#ff415b"/><path id="XMLID_852_" d="m344.623 242.5h20.174c15.868 0 28.85-12.982 28.85-28.85v-32.494c0-15.868-12.982-28.85-28.85-28.85h-20.174c-3.728 0-6.75 3.022-6.75 6.75v76.694c0 3.728 3.022 6.75 6.75 6.75z" fill="#cf0050"/><path id="XMLID_1903_" d="m304.972 305.129h-22c-7.96 0-14.472-6.512-14.472-14.472v-11.186c0-7.96 6.512-14.472 14.472-14.472h22c7.959 0 14.472 6.512 14.472 14.472v11.186c-.001 7.96-6.513 14.472-14.472 14.472z" fill="#3a383f"/></svg>