<svg id="Capa_1" enable-background="new 0 0 512 512" height="512" viewBox="0 0 512 512" width="512" xmlns="http://www.w3.org/2000/svg"><path id="XMLID_547_" d="m101.396 460.061c-61.608-46.749-101.396-120.759-101.396-204.061 0-141.385 114.615-256 256-256s256 114.615 256 256c0 83.302-39.788 157.312-101.397 204.061z" fill="#99f9ff"/><path id="XMLID_548_" d="m410.603 460.061c51.805-39.31 88.182-97.896 98.447-165.074l-184.186-209.684c-16.773-18.029-39.778-31.359-70.961-30.249-.281-.241-.569-.475-.857-.709-5.127-6.373-131.954 258.084-131.954 258.084l24.739 25.767c-25.595 6.684-44.621 121.173-44.699 121.642.139.106.277.214.417.319z" fill="#00dae1"/><path id="XMLID_1312_" d="m246.592 66.596s-12.965-40.724-44.599-40.724c-25.634 0-80.901 9.334-80.901 147.334s0 139.223 0 139.223h77.5c0 .001-8-231.333 48-245.833z" fill="#57545c"/><ellipse id="XMLID_1313_" cx="220.097" cy="76.48" fill="#ffed93" rx="40.597" ry="36.77" transform="matrix(.993 -.117 .117 .993 -7.409 26.153)"/><path id="XMLID_2224_" d="m210.983 274.333h90.033v84h-90.033z" fill="#ffc473"/><path id="XMLID_2223_" d="m256 274.333h45.016v84h-45.016z" fill="#ffaa20"/><path id="XMLID_2222_" d="m348.251 170.093c-3.852-56.7-52.206-88.88-92.251-88.88s-88.399 32.18-92.251 88.88c-10.362 1.941-17.716 11.625-16.563 22.273l1.784 16.476c1.211 11.177 11.346 19.331 22.523 18.121l1.925-.209c22.88 59.558 59.804 74.892 82.582 78.375 22.778-3.483 59.701-18.817 82.582-78.375l1.925.209c11.177 1.211 21.312-6.944 22.523-18.121l1.784-16.476c1.153-10.648-6.201-20.332-16.563-22.273z" fill="#ffdba9"/><path id="XMLID_1311_" d="m200.03 79.68s-49.712 25.026-45.599 93.458c0 0 52.91-10.289 72.647-68.521z" fill="#57545c"/><path id="XMLID_2221_" d="m197.046 182.169h42.287v18.599h-42.287z" fill="#ffc473"/><path id="XMLID_2220_" d="m364.81 192.37-1.78 16.47c-1.21 11.18-11.35 19.33-22.52 18.12l-1.93-.21c-22.88 59.56-59.8 74.9-82.58 78.38v-223.92c40.04 0 88.4 32.18 92.25 88.88 10.36 1.94 17.72 11.63 16.56 22.28z" fill="#ffc473"/><path id="XMLID_2219_" d="m310.561 182.169h-54.561v64.162h19.383v-46.179h35.178z" fill="#ffaa20"/><path id="XMLID_2218_" d="m410.87 395.97v63.88c-43 32.72-96.67 52.15-154.87 52.15s-111.87-19.43-154.87-52.15v-63.88c0-32.83 26.85-59.7 59.71-59.7h41.946 106.428 42.206c32.73.14 59.45 26.96 59.45 59.7z" fill="#ffdba9"/><path id="XMLID_2217_" d="m410.87 395.97v63.88c-43 32.72-96.67 52.15-154.87 52.15v-175.73h53.214 42.206c32.73.14 59.45 26.96 59.45 59.7z" fill="#ffc473"/><path id="XMLID_1309_" d="m197.471 70.277s10.128 115.192 168.868 101.773c0 0-29.606-167.541-168.868-101.773z" fill="#57545c"/><path id="XMLID_1307_" d="m366.34 172.05c-50.16 4.24-85.49-4.36-110.34-18.12v-98.94c89.41-1.35 110.34 117.06 110.34 117.06z" fill="#262628"/><path id="XMLID_1302_" d="m372.5 424.14v59.87c-34.94 17.89-74.54 27.99-116.5 27.99s-81.56-10.1-116.5-27.99v-59.87l9.04-8.82c12.23-11.93 19.13-28.28 19.13-45.36v-33.69h29.8v32.72c0 27.07 21.95 49.01 49.02 49.01h19.02c27.07 0 49.02-21.94 49.02-49.01v-32.72h29.8v33.69c0 17.08 6.9 33.43 19.13 45.36z" fill="#ff415b"/><path id="XMLID_1716_" d="m372.5 424.14v59.87c-34.94 17.89-74.54 27.99-116.5 27.99v-94h9.51c27.07 0 49.02-21.94 49.02-49.01v-32.72h29.8v33.69c0 17.08 6.9 33.43 19.13 45.36z" fill="#cf0050"/></svg>