<svg id="Capa_1" enable-background="new 0 0 512 512" height="512" viewBox="0 0 512 512" width="512" xmlns="http://www.w3.org/2000/svg"><path id="XMLID_1212_" d="m0 256.024c0-141.385 114.615-256 256-256s256 114.615 256 256c0 83.17-39.661 157.076-101.102 203.838-43.006 32.731-96.683-35.751-154.898-35.751-58.214 0-111.89 68.483-154.896 35.753-61.442-46.762-101.104-120.669-101.104-203.84z" fill="#00aeed"/><path id="XMLID_772_" d="m256 424.111c58.215 0 111.892 68.482 154.898 35.751 61.441-46.762 101.102-120.668 101.102-203.838 0-16.841-1.644-33.296-4.748-49.229l-136.038-136.359c-8.057-7.91-62.071-3.908-69.826 9.315-12.074-4.536-77.53-4.733-89.347-.515l-8.739-8.815c-8.05-7.898-70.852 55.487-62.699 63.574l27.814 27.815c-.735 17.929-4.667 24.51-4.667 24.51-10.362 1.941-12.083 47.788-8.889 50.966l29.444 29.126c12.742 1.064 18.946 13.064 18.482 25.754l12.055 64.821-113.712 102.839c.687.523 1.383 1.034 2.077 1.549 42.647 29.01 95.524-37.264 152.793-37.264z" fill="#0083d5"/><circle id="XMLID_444_" cx="172.065" cy="102.309" fill="#ffec97" r="44.667"/><circle id="XMLID_459_" cx="339.935" cy="102.309" fill="#ffd000" r="44.667"/><path id="XMLID_263_" d="m202.786 274.309h106.427v123.667h-106.427z" fill="#ffc473"/><path id="XMLID_262_" d="m256 274.309h53.214v123.667h-53.214z" fill="#ffaa20"/><path id="XMLID_2715_" d="m348.251 186.319c-3.852-56.7-52.206-88.88-92.251-88.88s-88.399 32.18-92.251 88.88c-10.362 1.941-17.716 11.625-16.563 22.273l1.784 16.476c1.211 11.177 11.346 19.331 22.523 18.121l1.925-.209c22.88 59.558 59.804 74.892 82.582 78.375 22.778-3.483 59.701-18.817 82.582-78.375l1.925.209c11.177 1.211 21.312-6.944 22.523-18.121l1.784-16.476c1.153-10.649-6.201-20.333-16.563-22.273z" fill="#ffdba9"/><path id="XMLID_329_" d="m197.046 198.394h42.287v18.599h-42.287z" fill="#ffc473"/><path id="XMLID_2714_" d="m364.812 208.592-1.784 16.48c-1.211 11.174-11.343 19.325-22.517 18.113l-1.925-.206c-22.884 59.561-59.806 74.895-82.586 78.379v-223.916c40.049 0 88.398 32.18 92.248 88.877 10.367 1.944 17.719 11.625 16.564 22.273z" fill="#ffc473"/><path id="XMLID_2713_" d="m310.561 198.394h-54.561v64.163h19.383v-46.179h35.178z" fill="#ffaa20"/><path id="XMLID_2710_" d="m410.87 395.946v63.88c-43 32.72-96.67 52.15-154.87 52.15s-111.87-19.43-154.87-52.15v-63.88c0-32.83 26.85-59.7 59.71-59.7h41.946l53.214 60.063 53.213-60.063h42.206c32.731.14 59.451 26.96 59.451 59.7z" fill="#99f9ff"/><path id="XMLID_2709_" d="m410.87 395.946v63.88c-43 32.72-96.67 52.15-154.87 52.15v-115.667l53.214-60.063h42.206c32.73.14 59.45 26.96 59.45 59.7z" fill="#00dae1"/><path id="XMLID_2708_" d="m168.6 424.111v72.555c-10.33-3.75-20.34-8.15-30-13.14v-59.415z" fill="#00dae1"/><path id="XMLID_2706_" d="m373.4 424.111v59.415c-9.66 4.99-19.67 9.39-30 13.14v-72.555z" fill="#00b8c0"/><path id="XMLID_359_" d="m202.786 336.246-39.119 6.73 41 66.666 20.333-8.416 31 41.75v-51.667z" fill="#fff"/><path id="XMLID_401_" d="m309.214 336.246 39.12 6.73-41 66.666-20.334-8.416-31 41.75v-51.667z" fill="#fff5ca"/><path id="XMLID_460_" d="m256 72.661c-119.232-.616-92.251 113.658-92.251 113.658 72.887-2.686 92.251-56.161 92.251-56.161s19.364 53.475 92.251 56.161c0 0 26.981-114.274-92.251-113.658z" fill="#fff5ca"/><path id="XMLID_564_" d="m348.25 186.316c-72.89-2.68-92.25-56.16-92.25-56.16v-57.49c119.23-.62 92.25 113.65 92.25 113.65z" fill="#ffe767"/></svg>