<svg id="Capa_1" enable-background="new 0 0 512 512" height="512" viewBox="0 0 512 512" width="512" xmlns="http://www.w3.org/2000/svg"><path id="XMLID_2099_" d="m512 256c0 2.21-.03 4.42-.09 6.61-2.03 80.48-41.21 151.72-101.04 197.24-43 32.72-96.67-9.39-154.87-9.39-40.53 0-140.7 18.88-154.61 9.58-.09-.06-.17-.12-.26-.19h-.01c-61.45-46.76-101.12-120.68-101.12-203.85 0-141.38 114.62-256 256-256s256 114.62 256 256z" fill="#ff415b"/><path id="XMLID_2097_" d="m511.91 262.61c-2.03 80.48-41.21 151.72-101.04 197.24-43 32.72-96.67-9.39-154.87-9.39-40.53 0-140.7 18.88-154.61 9.58-.09-.06-.17-.12-.26-.19l95.61-123.58v-67.36c-4.16-5.24-8.21-11.22-12.05-18.02l-28.95-29c-3.67-3.26-4.3-47.01 3.71-50.47 0 0 0-.01 0-.02.4-.4 132.83-130.53 143.01-118.24z" fill="#cf0050"/><path id="XMLID_693_" d="m315.258 407.998h-118.516v-319.369c0-30.723 24.906-55.629 55.629-55.629h7.258c30.723 0 55.629 24.906 55.629 55.629z" fill="#57545c"/><path id="XMLID_691_" d="m315.26 88.63v319.37h-59.26v-375h3.63c30.72 0 55.63 24.91 55.63 55.63z" fill="#262628"/><path id="XMLID_152_" d="m210.984 274.333h90.033v84h-90.033z" fill="#ffc473"/><path id="XMLID_151_" d="m256 274.333h45.016v84h-45.016z" fill="#ffaa20"/><path id="XMLID_150_" d="m348.251 170.093c-3.852-56.7-52.206-88.88-92.251-88.88s-88.399 32.18-92.251 88.88c-10.362 1.941-17.716 11.625-16.563 22.273l1.784 16.476c1.211 11.177 11.346 19.331 22.523 18.121l1.925-.209c22.88 59.558 59.804 74.892 82.581 78.375 22.778-3.483 59.701-18.817 82.582-78.375l1.925.209c11.177 1.211 21.312-6.944 22.523-18.121l1.784-16.476c1.154-10.648-6.2-20.332-16.562-22.273z" fill="#ffdba9"/><path id="XMLID_149_" d="m197.046 182.169h42.287v18.599h-42.287z" fill="#ffc473"/><path id="XMLID_147_" d="m364.81 192.37-1.78 16.47c-1.21 11.18-11.35 19.33-22.52 18.12l-1.93-.21c-22.88 59.56-59.8 74.9-82.58 78.38v-223.92c40.04 0 88.4 32.18 92.25 88.88 10.36 1.94 17.72 11.63 16.56 22.28z" fill="#ffc473"/><path id="XMLID_251_" d="m323.242 79.701c-20.532-17.334-39.514-24.701-67.242-24.701s-46.71 7.367-67.242 24.701c-25.511 21.528-32.338 70.627-28.231 123.049h15.912l4.363-69.417 49.178 8.611c17.216 3.014 34.825 3.014 52.041 0l49.177-8.611 4.363 69.417h15.912c4.107-52.421-2.72-101.52-28.231-123.049z" fill="#797880"/><path id="XMLID_999_" d="m351.47 202.75h-15.91l-4.36-69.42-49.18 8.61c-8.61 1.51-17.32 2.26-26.02 2.26v-89.2c27.73 0 46.71 7.37 67.24 24.7 25.51 21.53 32.34 70.63 28.23 123.05z" fill="#57545c"/><path id="XMLID_146_" d="m310.561 182.169h-54.561v64.162h19.383v-46.179h35.178z" fill="#ffaa20"/><path id="XMLID_145_" d="m410.87 459.85c-43 32.72-96.67 52.15-154.87 52.15s-111.87-19.43-154.87-52.15c0 0 26.85-123.58 59.71-123.58h41.946 106.428 42.206c32.73.14 59.45 123.58 59.45 123.58z" fill="#ffdba9"/><path id="XMLID_128_" d="m410.87 395.97v63.88c-43 32.72-96.67 52.15-154.87 52.15v-175.73h53.214 42.206c32.73.14 59.45 26.96 59.45 59.7z" fill="#ffc473"/><path id="XMLID_1626_" d="m410.87 459.85c-43 32.72-96.67 52.15-154.87 52.15-40.81 0-79.39-9.55-113.63-26.54-.05-.02-.1-.05-.14-.07-14.41-7.36-23.745-138.357.136-146.18 5.823-1.908 12.033-2.94 18.475-2.94h50.14c0 24.86 20.16 45.02 45.02 45.02s45.02-20.16 45.02-45.02h50.4c6.349.027 12.471 1.058 18.216 2.941 23.873 7.826 41.233 120.639 41.233 120.639z" fill="#9adb05"/><path id="XMLID_154_" d="m410.87 459.85c-43 32.72-96.67 52.15-154.87 52.15v-130.71c24.86 0 45.02-20.16 45.02-45.02h50.4c6.35.03 12.47 1.06 18.22 2.94 23.87 7.83 41.23 120.64 41.23 120.64z" fill="#00ca76"/><path id="XMLID_1684_" d="m101.13 395.97v63.88c12.847 9.775 26.652 18.354 41.24 25.593v-146.22c-23.88 7.825-41.24 30.353-41.24 56.747z" fill="#ffdba9"/><path id="XMLID_1687_" d="m410.87 395.97c0-26.39-17.365-48.923-41.24-56.748v146.221c14.588-7.239 28.393-15.818 41.24-25.593z" fill="#ffdba9"/><path id="XMLID_1221_" d="m142.37 419.5h227.26v37.117h-227.26z" fill="#57545c"/><path id="XMLID_104_" d="m256 419.5h113.63v37.12h-113.63z" fill="#262628"/><path id="XMLID_925_" d="m349.607 135.899s-25.596-61.149-93.477-61.149c-67.88 0-93.751 61.149-93.751 61.149-4.607 7.4-2.937 35.508-2.937 35.508s31.269-48.907 96.544-48.907h.007.007c65.275 0 96.557 48.905 96.557 48.905s1.657-28.106-2.95-35.506z" fill="#99f9ff"/><path id="XMLID_102_" d="m352.56 171.41s-31.28-48.91-96.56-48.91v-47.75h.13c67.88 0 93.48 61.15 93.48 61.15 4.6 7.4 2.95 35.51 2.95 35.51z" fill="#00dae1"/></svg>