<svg id="Capa_1" enable-background="new 0 0 512 512" height="512" viewBox="0 0 512 512" width="512" xmlns="http://www.w3.org/2000/svg"><path id="XMLID_1358_" d="m0 256c0-141.385 114.615-256 256-256s256 114.615 256 256c0 83.18-39.671 157.095-101.126 203.855-43.002 32.72-96.67-15.522-154.874-15.522s-111.87 48.243-154.872 15.524c-61.456-46.76-101.128-120.676-101.128-203.857z" fill="#58235e"/><path id="XMLID_1332_" d="m256 444.333c58.205 0 111.872 48.242 154.874 15.522 61.455-46.76 101.126-120.675 101.126-203.855 0-2.193-.028-4.378-.083-6.558l-171.073-171.073c-27.207-29.919-220.511 209.964-223.844 237.964l24.144 23.306c-23.245 8.184-40.014 120.211-40.014 120.211.171.13.346.256.518.386 42.914 31.943 96.382-15.903 154.352-15.903z" fill="#290a2d"/><path id="XMLID_200_" d="m375 155.667c-13.333-92.667-84.667-116.667-119-116.667-34.333 0-105.667 24-119 116.667s-16.667 132.667-20 160.667h278c-3.333-28.001-6.667-68.001-20-160.667z" fill="#ff415b"/><path id="XMLID_426_" d="m395 316.33h-139v-277.33c34.33 0 105.67 24 119 116.67 13.33 92.66 16.67 132.66 20 160.66z" fill="#cf0050"/><path id="XMLID_83_" d="m210.984 274.333h90.033v84h-90.033z" fill="#ffc473"/><path id="XMLID_77_" d="m256 274.333h45.016v84h-45.016z" fill="#ffaa20"/><path id="XMLID_75_" d="m348.251 170.093c-3.852-56.7-52.206-88.88-92.251-88.88s-88.399 32.18-92.251 88.88c-10.362 1.941-17.716 11.625-16.563 22.273l1.784 16.476c1.211 11.177 11.346 19.331 22.523 18.121l1.925-.209c22.88 59.558 59.804 74.892 82.581 78.375 22.778-3.483 59.701-18.817 82.582-78.375l1.925.209c11.177 1.211 21.312-6.944 22.523-18.121l1.784-16.476c1.154-10.648-6.2-20.332-16.562-22.273z" fill="#ffdba9"/><path id="XMLID_74_" d="m197.046 182.169h42.287v18.599h-42.287z" fill="#ffc473"/><path id="XMLID_73_" d="m364.81 192.37-1.78 16.47c-1.21 11.18-11.35 19.33-22.52 18.12l-1.93-.21c-22.88 59.56-59.8 74.9-82.58 78.38v-223.92c40.04 0 88.4 32.18 92.25 88.88 10.36 1.94 17.72 11.63 16.56 22.28z" fill="#ffc473"/><path id="XMLID_1330_" d="m176.56 213.389c-9.013-2.396-12.803 7.054-12.803 7.054s-3.79-9.45-12.803-7.054c-8.196 2.178-9.567 21.23 12.803 28.861 22.37-7.631 20.999-26.682 12.803-28.861z" fill="#fff5ca"/><path id="XMLID_1481_" d="m361.046 213.389c-9.013-2.396-12.803 7.054-12.803 7.054s-3.79-9.45-12.803-7.054c-8.196 2.178-9.567 21.23 12.803 28.861 22.37-7.631 20.999-26.682 12.803-28.861z" fill="#ffed93"/><path id="XMLID_72_" d="m310.561 182.169h-54.561v64.162h19.383v-46.179h35.178z" fill="#ffaa20"/><path id="XMLID_71_" d="m410.87 395.97v63.88c-43 32.72-96.67 52.15-154.87 52.15s-111.87-19.43-154.87-52.15v-63.88c0-28.116 19.692-51.86 45.987-58.1 4.409-1.046 213.436-1.028 217.764 0 26.289 6.241 45.989 29.988 45.989 58.1z" fill="#ffdba9"/><path id="XMLID_70_" d="m410.87 395.97v63.88c-43 32.72-96.67 52.15-154.87 52.15v-175.73h53.214 42.206c32.73.14 59.45 26.96 59.45 59.7z" fill="#ffc473"/><path id="XMLID_2160_" d="m364.88 337.87v108.13h-217.76v-108.12c4.41-1.06 9-1.61 13.72-1.61h190.58c4.63.02 9.13.57 13.46 1.6z" fill="#fff"/><path id="XMLID_424_" d="m364.88 337.87v108.13h-108.88v-109.73h95.42c4.63.02 9.13.57 13.46 1.6z" fill="#fff5ca"/><path id="XMLID_332_" d="m256 407.473c-53.88-40.261-108.877-2.469-108.877-2.469v82.737c33.042 15.551 69.94 24.259 108.877 24.259s75.835-8.708 108.877-24.259v-82.737s-54.997-37.793-108.877 2.469z" fill="#99f9ff"/><path id="XMLID_328_" d="m364.88 405v82.74c-33.04 15.55-69.94 24.26-108.88 24.26v-104.53c53.88-40.26 108.88-2.47 108.88-2.47z" fill="#00dae1"/><path id="XMLID_86_" d="m256 55.667c-115 0-100.01 117.652-100.01 117.652 62.081.426 100.009-43.318 100.01-43.319.001.001 37.929 43.745 100.01 43.319 0 0 14.99-117.652-100.01-117.652z" fill="#ff415b"/><path id="XMLID_423_" d="m357.429 173.32c-62.961.426-101.429-43.935-101.429-43.935v-75.385c116.632 0 101.429 119.32 101.429 119.32z" fill="#cf0050"/></svg>