<svg id="Capa_1" enable-background="new 0 0 512 512" height="512" viewBox="0 0 512 512" width="512" xmlns="http://www.w3.org/2000/svg"><path id="XMLID_1908_" d="m0 256c0-141.385 114.615-256 256-256s256 114.615 256 256c0 70.692-28.654 134.692-74.981 181.019-46.326 46.327-110.326 20.824-181.019 20.824-70.356 0-134.083 25.775-180.357-20.163-46.716-46.378-75.643-110.651-75.643-181.68z" fill="#58235e"/><path id="XMLID_2726_" d="m256 457.843c70.693 0 134.693 25.503 181.019-20.824 46.327-46.327 74.981-110.327 74.981-181.019 0-.94-.026-1.874-.036-2.812l-175.932-175.932c-47.374-51.968-92.358-17.084-130.032 10.411-28.588 20.864-63.442 24.021-63.442 24.021l17.898 18.066-8.398 14.434 12.279 9.529c-.056.933-.489 1.928-.156 2.805 9.606 25.311-11.654 50.828-8.272 54.027l28.537 27.955c29.863 10.996 85.422 153.437 85.422 153.437l-194.244 45.563c1.489 1.478 3 2.934 4.525 4.375 45.863 40.11 107.751 15.964 175.851 15.964z" fill="#290a2d"/><path id="XMLID_1179_" d="m202.786 250.787h106.427v112.88h-106.427z" fill="#ffc473"/><path id="XMLID_1178_" d="m256 250.787h53.214v112.88h-53.214z" fill="#ffaa20"/><path id="XMLID_1177_" d="m347.618 159.71c-3.826-56.31-51.848-88.27-91.618-88.27s-87.792 31.959-91.618 88.27c-10.291 1.928-17.594 11.545-16.449 22.12l1.772 16.362c1.202 11.101 11.268 19.199 22.368 17.997l1.912-.207c22.723 59.149 59.393 74.378 82.015 77.837 22.621-3.46 59.291-18.688 82.015-77.837l1.912.207c11.101 1.202 21.166-6.896 22.368-17.997l1.772-16.362c1.145-10.575-6.158-20.193-16.449-22.12z" fill="#ffdba9"/><path id="XMLID_1176_" d="m364.065 181.83-1.772 16.366c-1.203 11.098-11.265 19.192-22.363 17.989l-1.912-.205c-22.726 59.152-59.395 74.381-82.019 77.841v-222.378c39.774 0 87.791 31.959 91.615 88.267 10.296 1.931 17.598 11.545 16.451 22.12z" fill="#ffc473"/><path id="XMLID_1630_" d="m320.208 71.218c-19.605-16.553-37.731-23.587-64.208-23.587s-44.602 7.034-64.208 23.587c-24.36 20.557-30.879 79.234-26.958 129.29h15.194l4.166-66.285 46.959 8.222c16.439 2.878 33.254 2.878 49.693 0l46.959-8.222 4.166 66.285h15.194c3.922-50.056-2.597-108.733-26.957-129.29z" fill="#ff415b"/><path id="XMLID_1629_" d="m347.162 200.508h-15.192l-4.163-66.288-46.961 8.221c-8.222 1.442-16.538 2.158-24.846 2.158v-96.968c26.479 0 44.602 7.037 64.206 23.585 24.359 20.559 30.881 79.237 26.956 129.292z" fill="#cf0050"/><path id="XMLID_2390_" d="m347.162 200.508h-15.192l-4.163-66.288-46.961 8.221c-8.222 1.442-16.538 2.158-24.846 2.158v-96.968c26.479 0 44.602 7.037 64.206 23.585 24.359 20.559 30.881 79.237 26.956 129.292z" fill="#e30058"/><path id="XMLID_1175_" d="m312.427 173.637h-56.427v66.357h20.046v-47.759h36.381z" fill="#ffaa20"/><path id="XMLID_1171_" d="m436.35 394.98v42.69c-46.27 45.94-109.99 74.33-180.35 74.33s-134.08-28.39-180.35-74.33v-42.69c0-38.65 31.33-69.98 69.98-69.98h220.74c38.65 0 69.98 31.33 69.98 69.98z" fill="#ffdba9"/><path id="XMLID_1170_" d="m436.35 394.98v42.69c-46.27 45.94-109.99 74.33-180.35 74.33v-187h110.37c21.46 0 40.66 9.65 53.48 24.86 10.3 12.18 16.5 27.93 16.5 45.12z" fill="#ffc473"/><path id="XMLID_1169_" d="m123.8 413.33v61.93c9.603 5.803 19.627 10.977 30 15.5v-77.43z" fill="#ffc473"/><path id="XMLID_1168_" d="m358.2 413.33v77.43c10.373-4.523 20.397-9.697 30-15.5v-61.93z" fill="#ffaa20"/><path id="XMLID_1167_" d="m197.046 173.637h42.287v18.599h-42.287z" fill="#ffc473"/><path id="XMLID_3018_" d="m353.5 100.924s-20.065 91.419-201.417 43.43l16-27.5-25.5-5s13.162-29.314 41.75-50.177c42.587-31.079 122.235-38.197 169.167 39.247z" fill="#ffe767"/><path id="XMLID_2397_" d="m353.5 100.92s-11.66 53.1-97.5 57.12v-118.31c34.59.94 71.19 17.77 97.5 61.19z" fill="#ffdc00"/><path id="XMLID_2165_" d="m341.27 325-29.13 69.41c-9.66 23.02-31.17 37.32-56.14 37.32-24.96 0-46.48-14.3-56.14-37.32l-29.13-69.41h32.53l24.26 57.8c4.98 11.86 15.63 18.93 28.48 18.93 12.86 0 23.5-7.07 28.48-18.93l24.26-57.8z" fill="#57545c"/><path id="XMLID_2398_" d="m341.27 325-29.13 69.41c-4.59 10.94-11.86 19.91-20.91 26.31-9.98 7.07-22.13 11.01-35.23 11.01v-30c6.29 0 12.05-1.69 16.88-4.82 5.04-3.24 9.06-8.05 11.6-14.11l24.26-57.8z" fill="#262628"/><circle id="XMLID_2202_" cx="256" cy="428.892" fill="#ffed93" r="36.158"/><path id="XMLID_2399_" d="m292.16 428.89c0 19.97-16.19 36.16-36.16 36.16v-72.32c6.1 0 11.84 1.51 16.88 4.18 9.15 4.83 15.97 13.48 18.35 23.81.61 2.63.93 5.36.93 8.17z" fill="#ffdc00"/></svg>