<svg id="Capa_1" enable-background="new 0 0 512 512" height="512" viewBox="0 0 512 512" width="512" xmlns="http://www.w3.org/2000/svg"><path id="XMLID_1927_" d="m0 256c0-141.385 114.615-256 256-256s256 114.615 256 256c0 69.329-27.559 132.221-72.32 178.319-46.521 47.911-111.624 7.802-183.68 7.802-72.055 0-137.158 40.11-183.679-7.801-44.761-46.098-72.321-108.991-72.321-178.32z" fill="#00aeed"/><path id="XMLID_1070_" d="m256 442.121c72.056 0 137.158 40.109 183.68-7.802 44.761-46.098 72.32-108.99 72.32-178.319 0-12.312-.888-24.415-2.569-36.263l-149.407-149.407c-14.288-15.354-172.174 222.87-152.274 268.42l-135.417 95.558c.691.711 1.396 1.407 2.096 2.109 46.37 44.616 110.598 5.704 181.571 5.704z" fill="#0083d5"/><path id="XMLID_622_" d="m300.382 36.949c-28.302-12.337-60.462-12.337-88.765 0h-.001c-62.373 27.189-94.784 96.632-75.351 161.84 11.519 38.653 48.624 100.844 78.508 147.33 19.303 30.025 63.15 30.025 82.452 0 29.884-46.486 66.988-108.677 78.507-147.33 19.434-65.208-12.976-134.651-75.35-161.84z" fill="#ff415b"/><path id="XMLID_2632_" d="m375.73 198.79c-11.52 38.65-48.62 100.84-78.5 147.33-9.65 15.01-25.44 22.52-41.23 22.52v-340.94c15.12 0 30.23 3.08 44.38 9.25 62.38 27.19 94.79 96.63 75.35 161.84z" fill="#e30058"/><path id="XMLID_2959_" d="m302.415 276.579h-92.83l-9.19 48.421v.916h111.21v-.916z" fill="#ffc473"/><path id="XMLID_2958_" d="m311.605 325v.92h-55.607v-49.34h46.411z" fill="#ffaa20"/><path id="XMLID_2957_" d="m347.618 168.494c-3.826-56.31-51.848-88.27-91.618-88.27s-87.792 31.959-91.618 88.27c-10.291 1.928-17.594 11.545-16.449 22.12l1.772 16.362c1.202 11.101 11.268 19.199 22.368 17.997l1.912-.207c22.723 59.149 59.393 74.378 82.015 77.837 22.621-3.46 59.291-18.688 82.015-77.837l1.912.207c11.101 1.202 21.166-6.896 22.368-17.997l1.772-16.362c1.145-10.575-6.158-20.193-16.449-22.12z" fill="#ffdba9"/><path id="XMLID_2956_" d="m364.065 190.614-1.772 16.366c-1.203 11.098-11.265 19.192-22.363 17.989l-1.912-.205c-22.726 59.152-59.395 74.381-82.019 77.841v-222.378c39.774 0 87.791 31.959 91.615 88.267 10.296 1.93 17.598 11.545 16.451 22.12z" fill="#ffc473"/><path id="XMLID_2747_" d="m256 70.754c-83.429 0-101.092 82.868-101.092 82.868 3.196 31.563 14.882 60.815 14.882 60.815h17.149v-75.086l69.061 5.563 69.061-5.562v75.086h17.149s11.685-24.249 14.882-55.813c0 0-17.663-87.871-101.092-87.871z" fill="#797880"/><path id="XMLID_2746_" d="m357.092 158.625c-3.2 31.56-14.882 55.815-14.882 55.815h-17.15v-75.09l-28.05 2.26-41.01 3.3v-74.16c30.84 0 53.06 3.17 68.64 9.01 26.57 9.96 32.452 78.865 32.452 78.865z" fill="#57545c"/><path id="XMLID_2776_" d="m278.879 39.042h-45.759c-43.196 0-78.212 35.017-78.212 78.213v32.037h202.184v-32.037c0-43.196-35.017-78.213-78.213-78.213zm9.079 92h-63.917v-17.673c0-14.356 11.638-25.994 25.994-25.994h11.929c14.356 0 25.994 11.638 25.994 25.994z" fill="#fff5ca"/><path id="XMLID_2771_" d="m278.88 39.045h-22.88v48.33h5.96c14.36 0 26 11.64 26 25.99v17.68h-31.96v18.25h101.09v-32.04c0-43.2-35.02-78.21-78.21-78.21z" fill="#ffe767"/><path id="XMLID_2770_" d="m154.908 123.623h202.183v30h-202.183z" fill="#ffdc00"/><path id="XMLID_2768_" d="m255.999 123.623h101.092v30h-101.092z" fill="#ffc100"/><path id="XMLID_2955_" d="m312.427 166.754h-56.427v66.357h20.046v-47.758h36.381z" fill="#ffaa20"/><path id="XMLID_2954_" d="m436.35 394.98v42.69c-12.36 12.27-25.96 23.29-40.6 32.84-40.18 26.24-88.18-.01-139.75-.01s-99.57 26.25-139.75.01c-14.64-9.55-28.24-20.57-40.6-32.84v-42.69c0-38.65 31.33-69.98 69.98-69.98h220.74c38.65 0 69.98 31.33 69.98 69.98z" fill="#ffdba9"/><path id="XMLID_2683_" d="m436.35 394.98v42.69c-12.36 12.27-25.96 23.29-40.6 32.84-40.18 26.24-88.18-.01-139.75-.01v-145.5h110.37c38.65 0 69.98 31.33 69.98 69.98z" fill="#ffc473"/><path id="XMLID_3040_" d="m256 512c72.055 0 137.145-29.781 183.667-77.692v-43.975c0-36.083-29.251-65.333-65.333-65.333h-62.708l-55.626 93.5-55.605-93.5h-62.729c-36.083 0-65.333 29.251-65.333 65.333v43.975c46.522 47.911 111.612 77.692 183.667 77.692z" fill="#9adb05"/><path id="XMLID_3039_" d="m439.67 390.33v43.98c-46.52 47.91-111.61 77.69-183.67 77.69v-93.5l55.625-93.5h62.705c36.09 0 65.34 29.25 65.34 65.33z" fill="#00ca76"/><path id="XMLID_3038_" d="m123.8 413.33v61.93c9.603 5.803 19.627 10.977 30 15.5v-77.43z" fill="#00ca76"/><path id="XMLID_3037_" d="m358.2 413.33v77.43c10.373-4.523 20.397-9.697 30-15.5v-61.93z" fill="#00a94c"/><path id="XMLID_2951_" d="m197.046 166.754h42.287v18.599h-42.287z" fill="#ffc473"/><path id="XMLID_713_" d="m256 422.407c-21.878.001-42.006-10.993-53.845-29.407-29.951-46.59-68.189-149.403-80.266-189.927-21.559-72.34 14.438-139.938 83.732-170.143 32.016-13.957 68.74-13.955 100.753 0 69.294 30.205 105.291 97.804 83.732 170.143-12.075 40.526-50.312 143.338-80.262 189.927-11.838 18.414-31.967 29.407-53.844 29.407zm-.001-364.683c-13.095 0-26.189 2.658-38.388 7.976-55.414 24.154-84.205 85.978-66.971 143.806 8.764 29.408 35.304 79.031 76.75 143.503 6.386 9.934 16.814 15.631 28.609 15.63 11.795 0 22.223-5.696 28.608-15.63 41.445-64.47 67.985-114.093 76.75-143.503 17.234-57.828-11.557-119.65-66.97-143.806-12.197-5.317-25.293-7.976-38.388-7.976z" fill="#ff6379"/><path id="XMLID_2928_" d="m306.38 32.93c-16.01-6.98-33.2-10.47-50.38-10.47v35.26c13.09 0 26.19 2.66 38.39 7.98 55.41 24.15 84.2 85.98 66.97 143.81-8.77 29.41-35.31 79.03-76.75 143.5-6.39 9.93-16.81 15.63-28.61 15.63v53.77c21.88 0 42.01-11 53.84-29.41 29.95-46.59 68.19-149.4 80.27-189.93 4.21-14.13 6.23-28.08 6.23-41.6 0-55.72-34.2-104.24-89.96-128.54z" fill="#ff415b"/></svg>