<svg id="Capa_1" enable-background="new 0 0 512 512" height="512" viewBox="0 0 512 512" width="512" xmlns="http://www.w3.org/2000/svg"><path id="XMLID_1944_" d="m0 256c0-141.385 114.615-256 256-256s256 114.615 256 256c0 71.028-28.927 135.3-75.642 181.678-46.274 45.94-110.001 14.367-180.358 14.367-70.358 0-134.087 31.572-180.361-14.37-46.714-46.377-75.639-110.648-75.639-181.675z" fill="#ff415b"/><path id="XMLID_2384_" d="m256 452.045c70.357 0 134.085 31.573 180.358-14.367 46.715-46.378 75.642-110.65 75.642-181.678 0-2.161-.029-4.314-.082-6.462l-177.577-177.578c-26.263-29.225-163.401-12.504-154.008 103.207-3.814 4.157-28.6 29.713-25.79 32.782l29.748 29.336c5.785 10.411 40.259 6.958 46.709 13.882l2.5 93.333-157.85 93.17c.512.508 1.035 1.005 1.552 1.508 46.142 43.724 109.228 12.867 178.798 12.867z" fill="#cf0050"/><path id="XMLID_2913_" d="m202.79 250.789h106.42v112.876h-106.42z" fill="#ffc473"/><path id="XMLID_2912_" d="m256 250.789h53.21v112.876h-53.21z" fill="#ffaa20"/><path id="XMLID_1010_" d="m436.35 394.98v42.69c-12.36 12.27-25.96 23.29-40.6 32.84-40.18 26.24-88.18-.01-139.75-.01s-99.57 26.25-139.75.01c-14.64-9.55-28.24-20.57-40.6-32.84v-42.69c0-38.65 31.33-69.98 69.98-69.98h220.74c38.65 0 69.98 31.33 69.98 69.98z" fill="#ffdba9"/><path id="XMLID_1009_" d="m436.35 394.98v42.69c-12.36 12.27-25.96 23.29-40.6 32.84-40.18 26.24-88.18-.01-139.75-.01v-145.5h110.37c38.65 0 69.98 31.33 69.98 69.98z" fill="#ffc473"/><path id="XMLID_2887_" d="m436.35 394.98v42.69c-46.27 45.94-109.99 74.33-180.35 74.33s-134.08-28.39-180.35-74.33v-42.69c0-38.65 31.33-69.98 69.98-69.98h57.16c0 29.39 23.82 53.21 53.21 53.21s53.21-23.82 53.21-53.21h57.16c38.65 0 69.98 31.33 69.98 69.98z" fill="#fff"/><path id="XMLID_2886_" d="m436.35 394.98v42.69c-46.27 45.94-109.99 74.33-180.35 74.33v-133.79c29.39 0 53.21-23.82 53.21-53.21h57.16c21.46 0 40.66 9.65 53.48 24.86 10.3 12.18 16.5 27.93 16.5 45.12z" fill="#fff5ca"/><path id="XMLID_1769_" d="m358.2 325v165.78c-9.7 4.23-19.71 7.88-30 10.89v-176.67z" fill="#57545c"/><path id="XMLID_2885_" d="m123.8 413.33v61.93c9.603 5.803 19.627 10.977 30 15.5v-77.43z" fill="#fff5ca"/><path id="XMLID_1768_" d="m183.8 325v176.67c-10.29-3.01-20.3-6.66-30-10.89v-165.78z" fill="#797880"/><path id="XMLID_2884_" d="m358.2 413.33v77.43c10.373-4.523 20.397-9.697 30-15.5v-61.93z" fill="#ffec97"/><path id="XMLID_709_" d="m347.268 158.019c-3.826-56.31-51.848-88.27-91.618-88.27s-87.792 31.959-91.618 88.27c-10.291 1.928-17.594 11.545-16.449 22.12l1.772 16.362c1.202 11.101 11.268 19.199 22.368 17.997l1.912-.207c22.723 59.149 59.393 74.378 82.015 77.837 22.621-3.459 59.292-18.688 82.015-77.837l1.912.207c11.101 1.202 21.166-6.896 22.368-17.997l1.772-16.362c1.145-10.575-6.158-20.192-16.449-22.12z" fill="#ffdba9"/><path id="XMLID_706_" d="m363.716 180.14-1.772 16.366c-1.203 11.098-11.265 19.192-22.363 17.989l-1.912-.205c-22.726 59.152-59.395 74.381-82.019 77.841v-222.379c39.774 0 87.791 31.959 91.615 88.267 10.296 1.931 17.598 11.545 16.451 22.121z" fill="#ffc473"/><path id="XMLID_705_" d="m312.078 167.779h-56.428v66.357h20.046v-47.758h36.382z" fill="#ffaa20"/><path id="XMLID_704_" d="m196.696 163.279h42.287v18.599h-42.287z" fill="#ffc473"/><path id="XMLID_1424_" d="m227.86 163.085h56.279v30h-56.279z" fill="#797880"/><path id="XMLID_1416_" d="m256 163.08h28.14v30h-28.14z" fill="#57545c"/><circle id="XMLID_1412_" cx="218.5" cy="183.085" fill="#fff" r="30.548"/><circle id="XMLID_1409_" cx="293.5" cy="183.085" fill="#fff5ca" r="30.548"/><path id="XMLID_1129_" d="m255.825 39.245c-21.825 0-116.027 9.662-102.325 132 0 0 60.332-9.975 102.325-57.306 41.993 47.331 102.325 57.306 102.325 57.306 13.702-122.338-80.5-132-102.325-132z" fill="#57545c"/><path id="XMLID_1947_" d="m358.15 171.25s-60.17-9.95-102.15-57.12v-74.88c22.13.05 115.81 9.98 102.15 132z" fill="#262628"/></svg>