<svg id="Capa_1" enable-background="new 0 0 512 512" height="512" viewBox="0 0 512 512" width="512" xmlns="http://www.w3.org/2000/svg"><path id="XMLID_1983_" d="m0 256c0-141.385 114.615-256 256-256s256 114.615 256 256c0 71.028-28.927 135.3-75.642 181.678-46.274 45.94-110.001 21.322-180.358 21.322-70.356 0-134.083 24.618-180.357-21.32-46.716-46.378-75.643-110.651-75.643-181.68z" fill="#99f9ff"/><path id="XMLID_1434_" d="m256 459c70.357 0 134.085 24.618 180.358-21.322 46.715-46.378 75.642-110.65 75.642-181.678 0-6.159-.231-12.264-.659-18.314l-163.555-163.555-192.652 134.434 37.977 37.657c7.6 13.615 11.977 15.693 20.608 23.559l18.846 114.236-160.232 50.29c1.092 1.124 2.204 2.229 3.317 3.334v.028c.127.126.256.236.383.357.726.717 1.465 1.421 2.202 2.126 46.048 42.555 108.713 18.848 177.765 18.848z" fill="#00dae1"/><path id="XMLID_2743_" d="m302.065 268.15h-92.83l-9.19 56.35v1.065h111.21v-1.065z" fill="#b04b00"/><path id="XMLID_2742_" d="m311.605 324.849v1.071h-55.606v-57.42h46.41z" fill="#803400"/><path id="XMLID_259_" d="m436.35 394.98v42.69c-12.36 12.27-25.96 6.78-40.6 16.33-40.18 26.24-88.18 16.5-139.75 16.5s-99.57 4.24-139.75-22c-14.64-9.55-28.24 1.44-40.6-10.83v-42.69c0-38.65 31.33-69.98 69.98-69.98h220.74c38.65 0 69.98 31.33 69.98 69.98z" fill="#da6200"/><path id="XMLID_256_" d="m436.35 394.98v42.69c-12.36 12.27-45.93 25.08-46.35 25.33-39.92 24.9-82.97 7.5-134 7.5v-145.5h110.37c38.65 0 69.98 31.33 69.98 69.98z" fill="#b04b00"/><path id="XMLID_255_" d="m256 512c72.055 0 137.145-29.781 183.667-77.692v-43.975c0-36.083-29.251-65.333-65.333-65.333h-62.708l-55.626 74-55.605-74h-62.729c-36.083 0-65.333 29.251-65.333 65.333v43.975c46.522 47.911 111.612 77.692 183.667 77.692z" fill="#fff"/><path id="XMLID_253_" d="m439.67 390.33v43.98c-46.52 47.91-111.61 77.69-183.67 77.69v-113l55.625-74h62.705c36.09 0 65.34 29.25 65.34 65.33z" fill="#fff5ca"/><path id="XMLID_751_" d="m142.37 447.029h227.26v37.117h-227.26z" fill="#ff415b"/><path id="XMLID_749_" d="m256 447.029h113.63v37.12h-113.63z" fill="#cf0050"/><path id="XMLID_252_" d="m123.8 413.33v61.93c9.603 5.803 19.627 10.977 30 15.5v-77.43z" fill="#fff5ca"/><path id="XMLID_250_" d="m358.2 413.33v77.43c10.373-4.523 20.397-9.697 30-15.5v-61.93z" fill="#ffec97"/><path id="XMLID_2740_" d="m347.268 158.019c-3.826-56.31-51.848-88.27-91.618-88.27s-87.792 31.959-91.618 88.27c-10.291 1.928-17.594 11.545-16.449 22.12l1.772 16.362c1.202 11.101 11.268 19.199 22.368 17.997l1.912-.207c22.723 59.149 59.393 74.378 82.015 77.837 22.621-3.459 59.292-18.688 82.015-77.837l1.912.207c11.101 1.202 21.166-6.896 22.368-17.997l1.772-16.362c1.145-10.575-6.158-20.192-16.449-22.12z" fill="#da6200"/><path id="XMLID_2739_" d="m363.716 180.14-1.772 16.366c-1.203 11.098-11.265 19.192-22.363 17.989l-1.912-.205c-22.726 59.152-59.395 74.381-82.019 77.841v-222.379c39.774 0 87.791 31.959 91.615 88.267 10.296 1.931 17.598 11.545 16.451 22.121z" fill="#b04b00"/><path id="XMLID_992_" d="m255.649 49.254c-83.429 0-103.823 23.175-100.115 59.791 3.196 31.563 13.905 83.893 13.905 83.893h17.149v-75.086l69.061 5.562 69.061-5.562v75.086h17.149s10.708-52.329 13.905-83.893c3.708-36.616-16.686-59.791-100.115-59.791z" fill="#57545c"/><path id="XMLID_991_" d="m355.769 109.05c-3.2 31.56-13.91 83.89-13.91 83.89h-17.15v-75.09l-28.05 2.26-41.01 3.3v-74.16c30.84 0 53.06 3.17 68.64 9.01 26.57 9.96 33.81 27.7 31.48 50.79z" fill="#262628"/><path id="XMLID_2738_" d="m312.078 163.279h-56.428v66.357h20.046v-47.758h36.382z" fill="#803400"/><path id="XMLID_2735_" d="m196.696 163.279h42.287v18.599h-42.287z" fill="#b04b00"/><path id="XMLID_648_" d="m310.263 325-54.934 64.954-54.934-64.954h-31.395l86.008 102.568v.765l.321-.383.321.383v-.765l86.008-102.568z" fill="#57545c"/><path id="XMLID_1016_" d="m341.66 325-85.66 102.15v-37.99l54.26-64.16z" fill="#262628"/></svg>