<svg id="Capa_1" enable-background="new 0 0 512.097 512.097" height="512" viewBox="0 0 512.097 512.097" width="512" xmlns="http://www.w3.org/2000/svg"><path id="XMLID_1648_" d="m.049 256c0-141.385 114.615-256 256-256s256 114.615 256 256c0 83.18-39.671 157.095-101.126 203.855-43.002 32.72-96.67-26.355-154.874-26.355-58.203 0-111.87 59.076-154.872 26.357-61.456-46.76-101.128-120.676-101.128-203.857z" fill="#99f9ff"/><path id="XMLID_1166_" d="m256.049 433.5c58.205 0 111.872 59.076 154.874 26.355 58.718-44.678 97.546-114.148 100.888-192.803l-179.256-179.255c-13.75-14.979-239.506 228.536-239.506 228.536l31.493 32.371c-14.183 10.94-23.363 111.146-23.363 111.146.13.099.262.194.392.293 42.935 32.064 96.451-26.643 154.478-26.643z" fill="#00dae1"/><path id="XMLID_1575_" d="m256.048 52.152s108.93 3.848 105.475 126.695c-3.206 113.983-60.459 91.486-60.459 91.486l-90.033-182z" fill="#803400"/><path id="XMLID_1165_" d="m211.032 274.333h90.033v84h-90.033z" fill="#ffc473"/><path id="XMLID_1164_" d="m256.049 274.333h45.016v84h-45.016z" fill="#ffaa20"/><path id="XMLID_1728_" d="m211.032 310.194h90.033v30h-90.033z" fill="#58235e"/><path id="XMLID_1758_" d="m256.049 310.194h45.016v30h-45.016z" fill="#290a2d"/><path id="XMLID_1163_" d="m348.3 170.093c-3.852-56.7-52.206-88.88-92.251-88.88s-88.399 32.18-92.251 88.88c-10.362 1.941-17.716 11.625-16.563 22.273l1.784 16.476c1.211 11.177 11.346 19.331 22.523 18.121l1.925-.209c22.88 59.558 59.804 74.892 82.581 78.375 22.778-3.483 59.701-18.817 82.582-78.375l1.925.209c11.177 1.211 21.312-6.944 22.523-18.121l1.784-16.476c1.153-10.648-6.2-20.332-16.562-22.273z" fill="#ffdba9"/><path id="XMLID_1162_" d="m197.094 182.169h42.287v18.599h-42.287z" fill="#ffc473"/><path id="XMLID_1161_" d="m364.859 192.37-1.78 16.47c-1.21 11.18-11.35 19.33-22.52 18.12l-1.93-.21c-22.88 59.56-59.8 74.9-82.58 78.38v-223.92c40.04 0 88.4 32.18 92.25 88.88 10.36 1.94 17.72 11.63 16.56 22.28z" fill="#ffc473"/><path id="XMLID_1158_" d="m267.049 73s4 83.68 81.25 97.09c0 0 12.25-69.59-81.25-97.09z" fill="#803400"/><path id="XMLID_1157_" d="m310.609 182.169h-54.56v64.162h19.382v-46.179h35.178z" fill="#ffaa20"/><path id="XMLID_1156_" d="m410.919 395.97v63.88c-43 32.72-96.67 52.15-154.87 52.15s-111.87-19.43-154.87-52.15v-63.88c0-32.83 26.85-59.7 59.71-59.7h41.946 106.428 42.206c32.73.14 59.45 26.96 59.45 59.7z" fill="#ffdba9"/><path id="XMLID_1155_" d="m410.919 395.97v63.88c-43 32.72-96.67 52.15-154.87 52.15v-175.73h53.214 42.206c32.73.14 59.45 26.96 59.45 59.7z" fill="#ffc473"/><path id="XMLID_1618_" d="m305.001 70.81c-57.286-51.81-166.152-6.81-166.152 111.359 0 57.457-45.8 134.165-45.8 134.165s79 19.937 128.667 0l-5.269-17.635c-19.53-78.548 7.8-161.33 70.259-212.809z" fill="#b04b00"/><path id="XMLID_1154_" d="m304.999 70.81-18.29 15.08c-11.42 9.41-21.66 19.87-30.66 31.15v-67.21c17.84 1.42 34.94 8.3 48.95 20.98z" fill="#803400"/><g fill="#fff"><path id="XMLID_1153_" d="m346.38 207.578 6.865 13.91 15.35 2.23-11.107 10.827 2.622 15.288-13.73-7.218-13.729 7.218 2.622-15.288-11.108-10.827 15.35-2.23z"/><circle id="XMLID_1883_" cx="229.048" cy="323.333" r="7"/><circle id="XMLID_1886_" cx="283.048" cy="323.333" r="7"/><circle id="XMLID_1885_" cx="256.048" cy="323.333" r="7"/></g><path id="XMLID_1144_" d="m410.919 413.33v39h-47.27v37.77c-32.7 15.02-69.12 22.98-107.52 21.9-38.78-1.09-75.82-11.75-109.08-29.1v-30.57h-45.87v-39h51.76c10.55-20.99 51.39-24.96 65.52-23.33 10.36 1.19 25.37 4.13 37.59 9.74 12.22-5.61 27.23-8.55 37.59-9.74 14.13-1.63 54.97 2.34 65.52 23.33z" fill="#58235e"/><path id="XMLID_1039_" d="m410.919 413.33v39h-47.27v37.77c-32.7 15.02-69.12 22.98-107.52 21.9h-.08v-112.26c12.22-5.61 27.23-8.55 37.59-9.74 14.13-1.63 54.97 2.34 65.52 23.33z" fill="#290a2d"/></svg>