<svg id="Capa_1" enable-background="new 0 0 512 512" height="512" viewBox="0 0 512 512" width="512" xmlns="http://www.w3.org/2000/svg"><path id="XMLID_1557_" d="m0 256c0-141.385 114.615-256 256-256s256 114.615 256 256c0 71.028-28.927 135.3-75.642 181.678-46.274 45.94-110.001 14.367-180.358 14.367-70.358 0-134.087 31.572-180.361-14.37-46.713-46.377-75.639-110.648-75.639-181.675z" fill="#9adb05"/><path id="XMLID_2257_" d="m256 452.045c70.357 0 134.085 31.573 180.358-14.367 45.547-45.218 74.17-107.45 75.574-176.365l-188.787-189.87-167.292 139.184 28.926 28.595c5.641 10.11 59.197 11.73 65.471 18.528l3.268 117.982-177.868 61.938c.745.739 1.509 1.458 2.265 2.187 46.077 42.737 108.873 12.188 178.085 12.188z" fill="#00ca76"/><path id="XMLID_2079_" d="m202.786 250.787h106.427v112.88h-106.427z" fill="#b04b00"/><path id="XMLID_2078_" d="m256 250.787h53.214v112.88h-53.214z" fill="#803400"/><path id="XMLID_2077_" d="m347.618 159.71c-3.826-56.31-51.848-88.27-91.618-88.27s-87.792 31.959-91.618 88.27c-10.291 1.928-17.594 11.545-16.449 22.12l1.772 16.362c1.202 11.101 11.268 19.199 22.368 17.997l1.912-.207c22.723 59.149 59.393 74.378 82.015 77.837 22.621-3.46 59.291-18.688 82.015-77.837l1.912.207c11.101 1.202 21.166-6.896 22.368-17.997l1.772-16.362c1.145-10.575-6.158-20.193-16.449-22.12z" fill="#da6200"/><path id="XMLID_2076_" d="m364.065 181.83-1.772 16.366c-1.203 11.098-11.265 19.192-22.363 17.989l-1.912-.205c-22.726 59.152-59.395 74.381-82.019 77.841v-222.378c39.774 0 87.791 31.959 91.615 88.267 10.296 1.931 17.598 11.545 16.451 22.12z" fill="#b04b00"/><path id="XMLID_2075_" d="m312.427 173.637h-56.427v66.357h20.046v-47.759h36.381z" fill="#803400"/><path id="XMLID_1364_" d="m436.35 394.98v42.69c-13.88 13.78-29.33 25.98-46.06 36.31-39.04 24.11-85.04-43.48-134.29-43.48s-95.25 67.59-134.29 43.48c-16.73-10.33-32.18-22.53-46.06-36.31v-42.69c0-30.25 19.19-56.01 46.06-65.78 7.46-2.72 15.52 12.3 23.92 12.3l57.16-16.5h106.42l57.16 16.5c8.4 0 16.46-15.02 23.92-12.3 26.87 9.77 46.06 35.53 46.06 65.78z" fill="#da6200"/><path id="XMLID_2069_" d="m123.8 413.33v61.93c9.603 5.803 19.627 10.977 30 15.5v-77.43z" fill="#b04b00"/><path id="XMLID_2068_" d="m358.2 413.33v77.43c10.373-4.523 20.397-9.697 30-15.5v-61.93z" fill="#803400"/><path id="XMLID_2067_" d="m197.046 173.637h42.287v18.599h-42.287z" fill="#b04b00"/><path id="XMLID_677_" d="m280.78 58.23c-15.29-10.929-35.618-19.985-62.591-23.897 0 0-3.719 12.258-10.029 29.661-79.947 29.56-46.16 136.506-46.16 136.506h17l12.401-71.843c11.789 2.608 34.005 6.343 64.599 6.343 33.746 0 54.946-5.457 64.22-8.535l12.78 74.035h17s39.804-125.989-69.22-142.27z" fill="#57545c"/><path id="XMLID_1087_" d="m350 200.5h-17l-12.78-74.04c-9.27 3.08-30.47 8.54-64.22 8.54v-90.48c9.46 3.95 17.67 8.62 24.78 13.71 109.02 16.28 69.22 142.27 69.22 142.27z" fill="#262628"/><path id="XMLID_1476_" d="m390.29 329.2v144.79c-39.04 24.1-85.04 38.01-134.29 38.01s-95.25-13.91-134.29-38.01v-144.79c7.46-2.72 15.52-4.2 23.92-4.2h57.16c0 29.39 23.82 53.21 53.21 53.21s53.21-23.82 53.21-53.21h57.16c8.4 0 16.46 1.48 23.92 4.2z" fill="#ffe767"/><path id="XMLID_1780_" d="m390.29 329.2v144.79c-39.04 24.1-85.04 38.01-134.29 38.01v-133.79c29.39 0 53.21-23.82 53.21-53.21h57.16c8.4 0 16.46 1.48 23.92 4.2z" fill="#ffd000"/><path id="XMLID_1507_" d="m121.71 398.634h268.58v62.405h-268.58z" fill="#ffb942"/><path id="XMLID_1766_" d="m256 398.63h134.29v62.41h-134.29z" fill="#ff8a00"/><path id="XMLID_2130_" d="" fill="#00ca76"/></svg>