<svg id="Capa_1" enable-background="new 0 0 512 512" height="512" viewBox="0 0 512 512" width="512" xmlns="http://www.w3.org/2000/svg"><path id="XMLID_2302_" d="m0 256c0-141.385 114.615-256 256-256s256 114.615 256 256c0 83.18-39.671 157.095-101.126 203.855-43.002 32.721-96.67-17.855-154.874-17.855s-111.87 50.576-154.872 17.857c-61.456-46.76-101.128-120.676-101.128-203.857z" fill="#9adb05"/><path id="XMLID_27_" d="m334.047 94.005-121.915 86.784-44.895 52.597-4.187 15.114 64.168 61.482v42.522l-126.088 107.346c.158.12.319.236.477.356 42.921 31.986 96.405-18.206 154.393-18.206 58.204 0 111.872 50.575 154.874 17.855 57.61-43.836 96.077-111.534 100.664-188.359z" fill="#00ca76"/><path id="XMLID_2426_" d="m210.984 274.333h90.033v84h-90.033z" fill="#ffc473"/><path id="XMLID_2407_" d="m256 274.333h45.016v84h-45.016z" fill="#ffaa20"/><path id="XMLID_2393_" d="m410.87 395.97v63.88c-43 32.72-96.67 52.15-154.87 52.15s-111.87-19.43-154.87-52.15v-63.88c0-32.83 26.85-59.7 59.71-59.7h41.946 106.428 42.206c32.73.14 59.45 26.96 59.45 59.7z" fill="#ffec97"/><path id="XMLID_2101_" d="m410.87 395.97v63.88c-43 32.72-96.67 52.15-154.87 52.15v-175.73h53.214 42.206c32.73.14 59.45 26.96 59.45 59.7z" fill="#ffd000"/><path id="XMLID_2492_" d="m169.23 423.18v73.74c-10.33-3.72-20.34-8.09-30-13.05v-60.69z" fill="#ffd000"/><path id="XMLID_2491_" d="m372.77 423.18v60.69c-9.66 4.96-19.67 9.33-30 13.05v-73.74z" fill="#ffb400"/><path id="XMLID_2098_" d="m348.251 170.093c-3.852-56.7-52.206-88.88-92.251-88.88s-88.399 32.18-92.251 88.88c-10.362 1.941-17.716 11.625-16.563 22.273l1.784 16.476c1.211 11.177 11.346 19.331 22.523 18.121l1.925-.209c22.88 59.558 59.804 74.892 82.581 78.375 22.778-3.483 59.701-18.817 82.582-78.375l1.925.209c11.177 1.211 21.312-6.944 22.523-18.121l1.784-16.476c1.154-10.648-6.2-20.332-16.562-22.273z" fill="#ffdba9"/><path id="XMLID_2931_" d="m148.289 212.864h29.522v29.522h-29.522z" fill="#57545c" transform="matrix(.707 .707 -.707 .707 208.711 -48.624)"/><path id="XMLID_1023_" d="m197.046 182.169h42.287v18.599h-42.287z" fill="#ffc473"/><path id="XMLID_2095_" d="m364.81 192.37-1.78 16.47c-1.21 11.18-11.35 19.33-22.52 18.12l-1.93-.21c-22.88 59.56-59.8 74.9-82.58 78.38v-223.92c40.04 0 88.4 32.18 92.25 88.88 10.36 1.94 17.72 11.63 16.56 22.28z" fill="#ffc473"/><path id="XMLID_920_" d="m200.03 79.68s-49.712 25.026-45.599 93.458c0 0 52.91-10.289 72.647-68.521z" fill="#797880"/><path id="XMLID_839_" d="m310.561 182.169h-54.561v64.162h19.383v-46.179h35.178z" fill="#ffaa20"/><path id="XMLID_675_" d="m196.5 67.609s3.077 113.529 104.516 105.529c0 0 21.984 52.529 9.545 213.862 0 0 73.746-104.697 62.639-193.83-22.867-183.503-176.7-125.561-176.7-125.561z" fill="#57545c"/><path id="XMLID_2556_" d="m310.56 387c12.44-161.33-9.54-213.86-9.54-213.86-17.89 1.41-32.72-.96-45.02-5.82v-108.23c45.93 2.14 103.86 27.02 117.2 134.08 11.11 89.13-62.64 193.83-62.64 193.83z" fill="#262628"/></svg>