<svg id="Capa_1" enable-background="new 0 0 512 512" height="512" viewBox="0 0 512 512" width="512" xmlns="http://www.w3.org/2000/svg"><path id="XMLID_2332_" d="m0 256c0-141.385 114.615-256 256-256s256 114.615 256 256c0 83.18-39.671 157.095-101.126 203.855-43.002 32.72-96.67-20.72-154.874-20.72-58.206 0-111.874 53.44-154.877 20.719-61.453-46.761-101.123-120.675-101.123-203.854z" fill="#99f9ff"/><path id="XMLID_3649_" d="m256 439.135c58.204 0 111.872 53.44 154.874 20.72 61.173-46.546 100.756-119.999 101.117-202.713l-216.962-216.962-136.362 202.52c0 2.616 1.199 4.962 3.073 6.521l58.518 58.574v45.947l-119.128 106.108c.147.112.297.22.444.332 42.927 32.01 96.423-21.047 154.426-21.047z" fill="#00dae1"/><circle id="XMLID_3531_" cx="256" cy="72.327" fill="#cf0050" r="50.583"/><path id="XMLID_2659_" d="m306.58 72.327c0 27.94-22.64 50.58-50.58 50.58v-101.16c27.94 0 50.58 22.64 50.58 50.58z" fill="#bb1000"/><path id="XMLID_1772_" d="m202.786 274.333h106.427v123.667h-106.427z" fill="#b04b00"/><path id="XMLID_1767_" d="m256 274.333h53.213v123.667h-53.213z" fill="#803400"/><path id="XMLID_3406_" d="m410.87 395.97v63.88c-43 32.72-96.67 52.15-154.87 52.15s-111.87-19.43-154.87-52.15v-63.88c0-32.83 26.85-59.7 59.71-59.7h41.946 106.428 42.206c32.73.14 59.45 26.96 59.45 59.7z" fill="#da6200"/><path id="XMLID_3405_" d="m410.87 395.97v63.88c-43 32.72-96.67 52.15-154.87 52.15v-175.73h53.214 42.206c32.73.14 59.45 26.96 59.45 59.7z" fill="#b04b00"/><path id="XMLID_1765_" d="m348.251 175.339c-3.852-56.7-52.206-88.88-92.251-88.88s-88.399 32.18-92.251 88.88c-10.362 1.941-17.716 11.625-16.563 22.273l1.784 16.475c1.211 11.177 11.346 19.331 22.523 18.121l1.925-.209c22.88 59.558 59.804 74.892 82.582 78.375 22.778-3.484 59.701-18.817 82.582-78.375l1.925.209c11.177 1.211 21.312-6.944 22.523-18.121l1.784-16.475c1.153-10.648-6.201-20.332-16.563-22.273z" fill="#da6200"/><path id="XMLID_745_" d="m197.046 187.415h42.287v18.599h-42.287z" fill="#b04b00"/><path id="XMLID_1764_" d="m364.812 197.613-1.784 16.48c-1.211 11.174-11.343 19.325-22.517 18.113l-1.925-.206c-22.884 59.56-59.806 74.895-82.586 78.378v-223.916c40.049 0 88.398 32.18 92.248 88.877 10.367 1.944 17.719 11.625 16.564 22.274z" fill="#b04b00"/><path id="XMLID_2423_" d="m256 60.917c-115 0-100.01 117.652-100.01 117.652 62.081.426 100.008-43.317 100.01-43.319.001.001 37.929 43.745 100.01 43.319 0 0 14.99-117.652-100.01-117.652z" fill="#ff415b"/><path id="XMLID_2421_" d="m356.01 178.57c-62.08.42-100.01-43.32-100.01-43.32v-74.33c115 0 100.01 117.65 100.01 117.65z" fill="#cf0050"/><path id="XMLID_1763_" d="m310.561 187.415h-54.561v64.162h19.383v-46.179h35.178z" fill="#803400"/><path id="XMLID_3508_" d="m152.83 400v90.341c31.563 13.916 66.46 21.659 103.17 21.659s71.607-7.743 103.17-21.659v-90.341z" fill="#ffdc00"/><path id="XMLID_3666_" d="m359.17 400v90.34c-31.56 13.92-66.46 21.66-103.17 21.66v-112z" fill="#ffc100"/><g fill="#ffd000"><path id="XMLID_2678_" d="m344.833 251.2c-4.675 0-8.5-3.825-8.5-8.5v-14.525c0-4.675 3.825-8.5 8.5-8.5 4.675 0 8.5 3.825 8.5 8.5v14.525c0 4.675-3.825 8.5-8.5 8.5z"/><path id="XMLID_2506_" d="m167.167 251.2c-4.675 0-8.5-3.825-8.5-8.5v-14.525c0-4.675 3.825-8.5 8.5-8.5 4.675 0 8.5 3.825 8.5 8.5v14.525c0 4.675-3.825 8.5-8.5 8.5z"/></g></svg>