<svg id="Capa_1" enable-background="new 0 0 512 512" height="512" viewBox="0 0 512 512" width="512" xmlns="http://www.w3.org/2000/svg"><path id="XMLID_2351_" d="m0 256.024c0-141.385 114.615-256 256-256s256 114.615 256 256c0 83.17-39.661 157.076-101.102 203.838-43.006 32.731-96.683-35.751-154.898-35.751-58.214 0-111.89 68.483-154.896 35.753-61.442-46.762-101.104-120.669-101.104-203.84z" fill="#00aeed"/><path id="XMLID_2745_" d="m256 424.111c58.215 0 111.892 68.482 154.898 35.751 61.441-46.762 101.102-120.668 101.102-203.838 0-1.531-.031-3.055-.058-4.58l-174.673-174.672-236.139 383.054c.738.561 1.493 1.1 2.237 1.653 42.62 28.736 95.435-37.368 152.633-37.368z" fill="#0083d5"/><path id="XMLID_826_" d="m160.318 151.476h184.969v212.5h-184.969z" fill="#57545c"/><path id="XMLID_439_" d="m256 151.476h89.29v212.5h-89.29z" fill="#262628"/><path id="XMLID_2380_" d="m210.984 274.309h90.033v84h-90.033z" fill="#ffc473"/><path id="XMLID_2379_" d="m256 274.309h45.016v84h-45.016z" fill="#ffaa20"/><path id="XMLID_2378_" d="m348.251 170.069c-3.852-56.7-52.206-88.88-92.251-88.88s-88.399 32.18-92.251 88.88c-10.362 1.941-17.716 11.625-16.563 22.273l1.784 16.476c1.211 11.177 11.346 19.331 22.523 18.121l1.925-.209c22.88 59.558 59.804 74.892 82.582 78.375 22.778-3.483 59.701-18.817 82.582-78.375l1.925.209c11.177 1.211 21.312-6.944 22.523-18.121l1.784-16.476c1.153-10.649-6.201-20.333-16.563-22.273z" fill="#ffdba9"/><path id="XMLID_2377_" d="m197.046 182.144h42.287v18.599h-42.287z" fill="#ffc473"/><path id="XMLID_2376_" d="m364.81 192.346-1.78 16.47c-1.21 11.18-11.35 19.33-22.52 18.12l-1.93-.21c-22.88 59.56-59.8 74.9-82.58 78.38v-223.92c40.04 0 88.4 32.18 92.25 88.88 10.36 1.94 17.72 11.63 16.56 22.28z" fill="#ffc473"/><path id="XMLID_2375_" d="m310.561 182.144h-54.561v64.163h19.383v-46.179h35.178z" fill="#ffaa20"/><path id="XMLID_2374_" d="m410.87 395.946v63.88c-43 32.72-96.67 52.15-154.87 52.15s-111.87-19.43-154.87-52.15v-63.88c0-32.83 26.85-59.7 59.71-59.7h41.946 106.428 42.206c32.73.14 59.45 26.96 59.45 59.7z" fill="#ffdba9"/><path id="XMLID_2518_" d="m410.87 395.946v63.88c-43 32.72-96.67 52.15-154.87 52.15v-175.73h53.214 42.206c32.73.14 59.45 26.96 59.45 59.7z" fill="#ffc473"/><path id="XMLID_2483_" d="m372.5 424.116v59.87c-34.94 17.89-74.54 27.99-116.5 27.99s-81.56-10.1-116.5-27.99v-59.87l9.04-8.82c12.23-11.93 19.13-28.28 19.13-45.36v-33.69h29.8v32.72c0 27.07 21.95 49.01 49.02 49.01h19.02c27.07 0 49.02-21.94 49.02-49.01v-32.72h29.8v33.69c0 17.08 6.9 33.43 19.13 45.36z" fill="#58235e"/><path id="XMLID_2482_" d="m372.5 424.116v59.87c-34.94 17.89-74.54 27.99-116.5 27.99v-94h9.51c27.07 0 49.02-21.94 49.02-49.01v-32.72h29.8v33.69c0 17.08 6.9 33.43 19.13 45.36z" fill="#290a2d"/><path id="XMLID_824_" d="m162.134 197.096s42.528-26.628 54.976-68.809c0 0 3.631 47.368 79.352 49.442l-3.631-28.007s27.851 47.751 59.825 55.253c0 0 43.384-159.499-93.536-159.499-17.288 0-61.152-2.593-92.577 45.121-28.956 43.965-4.409 106.499-4.409 106.499z" fill="#c639d1"/><path id="XMLID_437_" d="m352.66 204.976c-2.48-.58-4.94-1.41-7.37-2.43-25.19-10.69-46.49-43.16-51.4-51.07-.69-1.12-1.06-1.75-1.06-1.75l.23 1.75 3.4 26.25c-16.78-.46-30.02-3.14-40.46-7.04v-125.22c1.12 0 2.16.01 3.12.01 136.92 0 93.54 159.5 93.54 159.5z" fill="#7c1984"/><path id="XMLID_335_" d="m101.13 424.111h38.37v30h-38.37z" fill="#57545c"/></svg>