<svg id="Capa_1" enable-background="new 0 0 512 512" height="512" viewBox="0 0 512 512" width="512" xmlns="http://www.w3.org/2000/svg"><path id="XMLID_2366_" d="m512 256c0 2.21-.03 4.42-.09 6.61-2.03 80.48-41.21 151.72-101.04 197.24-43 32.72-96.67-9.39-154.87-9.39-40.53 0-140.7 18.88-154.61 9.58-.09-.06-.17-.12-.26-.19h-.01c-61.45-46.76-101.12-120.68-101.12-203.85 0-141.38 114.62-256 256-256s256 114.62 256 256z" fill="#ff415b"/><path id="XMLID_2057_" d="m256 450.46c58.2 0 111.87 42.11 154.87 9.39 59.83-45.52 99.01-116.76 101.04-197.24.05-1.845.068-3.708.076-5.569l-204.568-204.568-158.447 172.619c.516 4.765 2.657 8.977 5.808 12.15l35.811 35.755c2.124 3.766 39.41 104.503 39.41 104.503l-128.87 82.35c.09.07.17.13.26.19 13.91 9.3 114.08-9.58 154.61-9.58z" fill="#cf0050"/><path id="XMLID_2762_" d="m320.789 442.998h-129.578v-354.369c0-30.723 24.906-55.629 55.629-55.629h18.32c30.723 0 55.629 24.906 55.629 55.629z" fill="#ffe767"/><path id="XMLID_2815_" d="m320.79 88.63v354.37h-64.79v-410h9.16c30.72 0 55.63 24.91 55.63 55.63z" fill="#ffd000"/><path id="XMLID_511_" d="m202.786 274.333h106.427v123.667h-106.427z" fill="#ffc473"/><path id="XMLID_510_" d="m256 274.333h53.214v123.667h-53.214z" fill="#ffaa20"/><path id="XMLID_509_" d="m348.251 186.343c-3.852-56.7-52.206-88.88-92.251-88.88s-88.399 32.18-92.251 88.88c-10.362 1.941-17.716 11.625-16.563 22.273l1.784 16.476c1.211 11.177 11.346 19.331 22.523 18.121l1.925-.209c22.88 59.558 59.804 74.892 82.581 78.375 22.778-3.483 59.701-18.817 82.582-78.375l1.925.209c11.177 1.211 21.312-6.944 22.523-18.121l1.784-16.476c1.154-10.648-6.2-20.332-16.562-22.273z" fill="#ffdba9"/><path id="XMLID_504_" d="m197.046 198.419h42.287v18.599h-42.287z" fill="#ffc473"/><path id="XMLID_503_" d="m364.812 208.617-1.784 16.479c-1.211 11.174-11.343 19.325-22.517 18.114l-1.925-.206c-22.883 59.561-59.805 74.895-82.586 78.379v-223.917c40.049 0 88.398 32.18 92.248 88.877 10.367 1.944 17.719 11.625 16.564 22.274z" fill="#ffc473"/><path id="XMLID_2526_" d="m256 72.686c-119.232-.616-92.251 113.658-92.251 113.658 72.887-2.686 92.251-56.162 92.251-56.162s19.364 53.475 92.251 56.161c0 0 26.981-114.274-92.251-113.657z" fill="#fff5ca"/><path id="XMLID_2525_" d="m348.25 186.34c-72.89-2.68-92.25-56.16-92.25-56.16v-57.49c119.23-.62 92.25 113.65 92.25 113.65z" fill="#ffe767"/><path id="XMLID_502_" d="m310.561 198.419h-54.561v64.162h19.383v-46.179h35.178z" fill="#ffaa20"/><path id="XMLID_699_" d="m227.86 185.603h56.279v30h-56.279z" fill="#797880"/><path id="XMLID_695_" d="m256 185.599h28.14v30h-28.14z" fill="#57545c"/><circle id="XMLID_690_" cx="218.5" cy="205.603" fill="#fff" r="30.548"/><circle id="XMLID_687_" cx="293.5" cy="205.603" fill="#fff5ca" r="30.548"/><path id="XMLID_501_" d="m410.87 395.97v63.88c-43 32.72-96.67 52.15-154.87 52.15s-111.87-19.43-154.87-52.15v-63.88c0-32.83 26.85-59.7 59.71-59.7h41.946l53.214 60.063 53.213-60.063h42.206c32.731.14 59.451 26.96 59.451 59.7z" fill="#00aeed"/><path id="XMLID_436_" d="m410.87 395.97v63.88c-43 32.72-96.67 52.15-154.87 52.15v-115.667l53.214-60.063h42.206c32.73.14 59.45 26.96 59.45 59.7z" fill="#0083d5"/><path id="XMLID_435_" d="m168.6 424.135v72.555c-10.33-3.75-20.34-8.15-30-13.14v-59.415z" fill="#0083d5"/><path id="XMLID_433_" d="m373.4 424.135v59.415c-9.66 4.99-19.67 9.39-30 13.14v-72.555z" fill="#005c9a"/></svg>