<svg id="Capa_1" enable-background="new 0 0 512 512" height="512" viewBox="0 0 512 512" width="512" xmlns="http://www.w3.org/2000/svg"><path id="XMLID_3448_" d="m0 256c0-141.385 114.615-256 256-256s256 114.615 256 256c0 83.18-39.671 157.095-101.126 203.855-43.002 32.72-96.67-15.522-154.874-15.522s-111.87 48.243-154.872 15.524c-61.456-46.76-101.128-120.676-101.128-203.857z" fill="#99f9ff"/><path id="XMLID_1698_" d="m256 444.333c58.205 0 111.872 48.242 154.874 15.522 61.029-46.437 100.568-119.654 101.113-202.13l-180.223-180.223-230.634 382.348c.248.189.503.369.752.557 42.875 31.595 96.253-16.074 154.118-16.074z" fill="#00dae1"/><path id="XMLID_1389_" d="m384.362 299.462c0-14.311-8.194-26.699-20.142-32.754 3.042-4.902 4.803-10.681 4.803-16.875 0-17.703-14.351-32.054-32.054-32.054-9.829 0-18.62 4.428-24.499 11.393-5.88-6.965-14.671-11.393-24.499-11.393-15.018 0-27.62 10.33-31.097 24.272-3.478-13.941-16.079-24.272-31.097-24.272-10.377 0-19.597 4.936-25.456 12.583-5.858-7.647-15.078-12.583-25.456-12.583-17.703 0-32.054 14.351-32.054 32.054 0 6.193 1.761 11.973 4.803 16.875-11.948 6.055-20.142 18.444-20.142 32.754 0 11.408 5.204 21.599 13.367 28.332-6.197 6.572-10.003 15.425-10.003 25.171 0 20.273 16.435 36.708 36.708 36.708 9.888 0 18.855-3.917 25.456-10.274 6.6 6.357 15.568 10.274 25.456 10.274h76.836c9.416 0 18.001-3.549 24.499-9.378 6.498 5.829 15.083 9.378 24.499 9.378 20.273 0 36.707-16.435 36.707-36.708 0-9.746-3.805-18.599-10.003-25.171 8.164-6.732 13.368-16.924 13.368-28.332z" fill="#b04b00"/><path id="XMLID_1386_" d="m370.99 327.79c6.2 6.58 10.01 15.43 10.01 25.18 0 20.27-16.44 36.7-36.71 36.7-9.42 0-18-3.55-24.5-9.37-6.5 5.82-15.08 9.37-24.5 9.37h-39.29v-150.52c.33.95.63 1.91.87 2.9 3.48-13.94 16.08-24.27 31.1-24.27 9.83 0 18.62 4.43 24.5 11.39 5.88-6.96 14.67-11.39 24.5-11.39 17.7 0 32.05 14.35 32.05 32.05 0 6.2-1.76 11.98-4.8 16.88 11.95 6.05 20.14 18.44 20.14 32.75 0 11.41-5.2 21.6-13.37 28.33z" fill="#803400"/><path id="XMLID_1200_" d="m202.786 274.333h106.427v123.667h-106.427z" fill="#ffc473"/><path id="XMLID_1199_" d="m256 274.333h53.214v123.667h-53.214z" fill="#ffaa20"/><path id="XMLID_3160_" d="m410.87 395.97v63.88c-43 32.72-96.67 52.15-154.87 52.15s-111.87-19.43-154.87-52.15v-63.88c0-32.83 26.85-59.7 59.71-59.7h41.946 106.428 42.206c32.73.14 59.45 26.96 59.45 59.7z" fill="#b0afb5"/><path id="XMLID_3159_" d="m410.87 395.97v63.88c-43 32.72-96.67 52.15-154.87 52.15v-175.73h53.214 42.206c32.73.14 59.45 26.96 59.45 59.7z" fill="#8d8a94"/><path id="XMLID_3169_" d="m256 407.473c-53.88-40.261-108.877-2.469-108.877-2.469v82.737c33.042 15.551 69.94 24.259 108.877 24.259s75.835-8.708 108.877-24.259v-82.737s-54.997-37.793-108.877 2.469z" fill="#57545c"/><path id="XMLID_3168_" d="m364.88 405v82.74c-33.04 15.55-69.94 24.26-108.88 24.26v-104.53c53.88-40.26 108.88-2.47 108.88-2.47z" fill="#262628"/><path id="XMLID_1198_" d="m348.251 175.343c-3.852-56.7-52.206-88.88-92.251-88.88s-88.399 32.18-92.251 88.88c-10.362 1.941-17.716 11.625-16.563 22.273l1.784 16.476c1.211 11.177 11.346 19.331 22.523 18.121l1.925-.209c22.88 59.558 59.804 74.892 82.581 78.375 22.778-3.483 59.701-18.817 82.582-78.375l1.925.209c11.177 1.211 21.312-6.944 22.523-18.121l1.784-16.476c1.154-10.648-6.2-20.332-16.562-22.273z" fill="#ffdba9"/><path id="XMLID_843_" d="m197.046 187.419h42.287v18.599h-42.287z" fill="#ffc473"/><path id="XMLID_1197_" d="m364.812 197.617-1.784 16.479c-1.211 11.174-11.343 19.325-22.517 18.114l-1.925-.206c-22.883 59.561-59.805 74.895-82.586 78.379v-223.917c40.049 0 88.398 32.18 92.248 88.877 10.367 1.944 17.719 11.625 16.564 22.274z" fill="#ffc473"/><path id="XMLID_1213_" d="m353.666 147.687h-195.333v-14.02c0-45.84 37.16-83 83-83h29.333c45.84 0 83 37.16 83 83z" fill="#57545c"/><path id="XMLID_1569_" d="m353.67 133.67v14.02h-97.67v-97.02h14.67c45.84 0 83 37.16 83 83z" fill="#262628"/><path id="XMLID_3295_" d="m147.72 146.351h216.559v30h-216.559z" fill="#8d8a94"/><path id="XMLID_3293_" d="m256 146.353h108.28v30h-108.28z" fill="#797880"/><path id="XMLID_1143_" d="m310.561 187.419h-54.561v64.162h19.383v-46.179h35.178z" fill="#ffaa20"/></svg>