<svg id="Capa_1" enable-background="new 0 0 512 512" height="512" viewBox="0 0 512 512" width="512" xmlns="http://www.w3.org/2000/svg"><path id="XMLID_544_" d="m72.332 434.332c-44.768-46.099-72.332-108.997-72.332-178.332 0-141.385 114.615-256 256-256s256 114.615 256 256c0 69.335-27.564 132.232-72.331 178.331z" fill="#99f9ff"/><path id="XMLID_546_" d="m439.669 434.331c44.767-46.099 72.331-108.996 72.331-178.331 0-4.067-.106-8.109-.294-12.13l-175.513-175.513-180.908 140.356 29.297 29.09c63.418 9.697 51.668 104.697 51.668 104.697l-163.917 91.808z" fill="#00dae1"/><path id="XMLID_3357_" d="m202.786 253h106.427v84h-106.427z" fill="#b04b00"/><path id="XMLID_3356_" d="m256 253h53.214v84h-53.214z" fill="#803400"/><path id="XMLID_964_" d="m436.35 394.98v42.69c-12.36 12.27-25.96 6.78-40.6 16.33-40.18 26.24-88.18 16.5-139.75 16.5s-75.102-2.491-122.5-10c-8.417-1.333-45.49-10.56-57.85-22.83v-42.69c0-38.65 31.33-69.98 69.98-69.98h220.74c38.65 0 69.98 31.33 69.98 69.98z" fill="#da6200"/><path id="XMLID_962_" d="m436.35 394.98v42.69c-12.36 12.27-45.93 25.08-46.35 25.33-39.92 24.9-82.97 7.5-134 7.5v-145.5h110.37c38.65 0 69.98 31.33 69.98 69.98z" fill="#b04b00"/><path id="XMLID_3104_" d="m256 512c72.055 0 137.145-29.781 183.667-77.692v-43.975c0-36.083-29.251-65.333-65.333-65.333h-65.12l-53.214 78.585-53.214-78.585h-65.12c-36.083 0-65.333 29.251-65.333 65.333v43.975c46.522 47.911 111.612 77.692 183.667 77.692z" fill="#fff"/><path id="XMLID_3103_" d="m439.67 390.33v43.98c-46.52 47.91-111.61 77.69-183.67 77.69v-108.41l53.21-78.59h65.12c36.09 0 65.34 29.25 65.34 65.33z" fill="#fff5ca"/><path id="XMLID_3102_" d="m123.8 413.33v61.93c9.603 5.803 19.627 10.977 30 15.5v-77.43z" fill="#fff5ca"/><path id="XMLID_3101_" d="m358.2 413.33v77.43c10.373-4.523 20.397-9.697 30-15.5v-61.93z" fill="#ffec97"/><path id="XMLID_961_" d="m347.268 158.019c-3.826-56.31-51.848-88.27-91.618-88.27s-87.792 31.959-91.618 88.27c-10.291 1.928-17.594 11.545-16.449 22.12l1.772 16.362c1.202 11.101 11.268 19.199 22.368 17.997l1.912-.207c22.723 59.149 59.393 74.378 82.015 77.837 22.621-3.459 59.292-18.688 82.015-77.837l1.912.207c11.101 1.202 21.166-6.896 22.368-17.997l1.772-16.362c1.145-10.575-6.158-20.192-16.449-22.12z" fill="#da6200"/><path id="XMLID_960_" d="m363.716 180.14-1.772 16.366c-1.203 11.098-11.265 19.192-22.363 17.989l-1.912-.205c-22.726 59.152-59.395 74.381-82.019 77.841v-222.379c39.774 0 87.791 31.959 91.615 88.267 10.296 1.931 17.598 11.545 16.451 22.121z" fill="#b04b00"/><path id="XMLID_2620_" d="m256 155.667-63.13-44.5-13.87 72h-17s-45.5-144.001 94-144z" fill="#57545c"/><path id="XMLID_2619_" d="m256 155.667 63.13-44.5 13.87 72h17s45.5-144.001-94-144z" fill="#262628"/><path id="XMLID_958_" d="m312.078 167.279h-56.428v66.357h20.046v-47.758h36.382z" fill="#803400"/><path id="XMLID_924_" d="m196.696 167.279h42.287v18.599h-42.287z" fill="#b04b00"/></svg>