<svg id="Capa_1" enable-background="new 0 0 512 512" height="512" viewBox="0 0 512 512" width="512" xmlns="http://www.w3.org/2000/svg"><path id="XMLID_3020_" d="m0 256c0-141.385 114.615-256 256-256s256 114.615 256 256c0 70.692-28.654 134.692-74.981 181.019s-110.327 20.824-181.019 20.824c-70.356 0-134.083 25.775-180.357-20.163-46.716-46.378-75.643-110.651-75.643-181.68z" fill="#58235e"/><path id="XMLID_870_" d="m256 457.843c70.692 0 134.692 25.503 181.019-20.824 42.837-42.837 70.543-100.79 74.478-165.166l-217.686-217.686-3.304 3.506-34.507-34.006-100.362 186.745 28.903 28.383s30.014.894 36.376 7.788l22.977 119.524-168.244 71.563c.609.605 1.23 1.197 1.846 1.794 46.115 43.468 109.082 18.379 178.504 18.379z" fill="#290a2d"/><path id="XMLID_1384_" d="m202.786 250.787h106.427v112.88h-106.427z" fill="#ffc473"/><path id="XMLID_1383_" d="m256 250.787h53.213v112.88h-53.213z" fill="#ffaa20"/><path id="XMLID_1381_" d="m347.618 159.71c-3.826-56.31-51.848-88.27-91.618-88.27s-87.792 31.959-91.618 88.27c-10.291 1.928-17.594 11.545-16.449 22.12l1.772 16.362c1.202 11.101 11.268 19.199 22.368 17.997l1.912-.207c22.723 59.149 59.393 74.378 82.015 77.837 22.621-3.46 59.291-18.688 82.015-77.837l1.912.207c11.101 1.202 21.166-6.896 22.368-17.997l1.772-16.362c1.145-10.575-6.158-20.193-16.449-22.12z" fill="#ffdba9"/><path id="XMLID_1380_" d="m364.065 181.83-1.772 16.366c-1.203 11.098-11.265 19.192-22.363 17.989l-1.912-.205c-22.726 59.152-59.395 74.381-82.019 77.841v-222.378c39.774 0 87.791 31.959 91.615 88.267 10.296 1.931 17.598 11.545 16.451 22.12z" fill="#ffc473"/><path id="XMLID_1468_" d="m338.564 117.117c-4.658-10.432-10.837-18.726-17.726-25.322-8.774-8.401-16.102-18.149-21.776-28.89-1.652-3.127-3.402-6.066-5.251-8.739l-11.311 12-26.5-42.5-26.5 42.5-11.31-12c-1.85 2.673-3.6 5.612-5.252 8.739-5.673 10.741-13.002 20.489-21.776 28.89-6.889 6.596-13.068 14.89-17.726 25.323-8.22 18.41-11.842 41.122-9.181 61.108l3.245 24.374h13l6.873-44c1.767-11.309 12.585-18.839 23.817-16.63 25.618 5.038 64.003 5.038 89.62 0 11.231-2.209 22.05 5.32 23.817 16.63l6.873 44h13l3.245-24.374c2.661-19.986-.961-42.699-9.181-61.109z" fill="#fff5ca"/><path id="XMLID_1466_" d="m347.75 178.23-3.25 24.37h-13l-6.87-44c-1.77-11.31-12.59-18.84-23.82-16.63-12.81 2.52-28.81 3.78-44.81 3.78v-122.08l26.5 42.5 11.31-12c1.85 2.67 3.6 5.61 5.25 8.74 5.68 10.74 13 20.48 21.78 28.88 6.89 6.6 13.07 14.9 17.72 25.33 8.22 18.41 11.85 41.12 9.19 61.11z" fill="#ffe767"/><path id="XMLID_1379_" d="m312.427 173.637h-56.427v66.357h20.046v-47.759h36.381z" fill="#ffaa20"/><path id="XMLID_1378_" d="m436.35 394.98v42.69c-46.27 45.94-109.99 74.33-180.35 74.33s-134.08-28.39-180.35-74.33v-42.69c0-38.65 31.33-69.98 69.98-69.98h220.74c38.65 0 69.98 31.33 69.98 69.98z" fill="#ffdba9"/><path id="XMLID_1374_" d="m436.35 394.98v42.69c-46.27 45.94-109.99 74.33-180.35 74.33v-187h110.37c21.46 0 40.66 9.65 53.48 24.86 10.3 12.18 16.5 27.93 16.5 45.12z" fill="#ffc473"/><path id="XMLID_1373_" d="m123.8 413.33v61.93c9.603 5.803 19.627 10.977 30 15.5v-77.43z" fill="#ffc473"/><path id="XMLID_1372_" d="m358.2 413.33v77.43c10.373-4.523 20.397-9.697 30-15.5v-61.93z" fill="#ffaa20"/><path id="XMLID_1371_" d="m197.046 173.637h42.287v18.599h-42.287z" fill="#ffc473"/><path id="XMLID_1664_" d="m256 400.954c43.761 0 79.879-33.34 84.293-75.954h-30.26c-4.221 26.021-26.839 45.954-54.034 45.954s-49.811-19.933-54.033-45.954h-30.26c4.415 42.613 40.533 75.954 84.294 75.954z" fill="#fff"/><path id="XMLID_2932_" d="m340.29 325c-4.41 42.61-40.53 75.95-84.29 75.95v-30c27.19 0 49.81-19.93 54.03-45.95z" fill="#fff5ca"/><path id="XMLID_1696_" d="m256 365.5c-19.795 0-21.873 20.415-4.276 52.829 1.933 3.561 6.619 3.561 8.552 0 17.597-32.414 15.519-52.829-4.276-52.829z" fill="#9adb05"/><path id="XMLID_538_" d="m260.28 418.33c-.97 1.78-2.62 2.67-4.28 2.67v-55.5c19.79 0 21.87 20.41 4.28 52.83z" fill="#00ca76"/><path id="XMLID_1714_" d="m223.272 348.618c-12.895-15.018-29.738-3.296-42.867 31.171-1.442 3.787 1.61 7.341 5.571 6.488 36.057-7.765 50.192-22.641 37.296-37.659z" fill="#ff415b"/><path id="XMLID_477_" d="m288.728 348.618c12.895-15.018 29.738-3.296 42.867 31.171 1.442 3.787-1.61 7.341-5.571 6.488-36.057-7.765-50.192-22.641-37.296-37.659z" fill="#cf0050"/></svg>