<svg id="Capa_1" enable-background="new 0 0 512 512" height="512" viewBox="0 0 512 512" width="512" xmlns="http://www.w3.org/2000/svg"><path id="XMLID_3035_" d="m0 256c0-141.385 114.615-256 256-256s256 114.615 256 256c0 69.329-27.559 132.221-72.32 178.319-46.521 47.911-111.624 7.802-183.68 7.802-72.055 0-137.158 40.11-183.679-7.801-44.761-46.098-72.321-108.991-72.321-178.32z" fill="#9adb05"/><path id="XMLID_1682_" d="m256 442.121c72.056 0 137.158 40.109 183.68-7.802 44.761-46.098 72.32-108.99 72.32-178.319 0-9.378-.519-18.634-1.502-27.751l-182.438-182.437-206.692 208.94 91.566 91.648-140.601 87.908c.65.67 1.314 1.326 1.974 1.987 46.379 44.804 110.657 5.826 181.693 5.826z" fill="#00ca76"/><path id="XMLID_1062_" d="m373.75 144.5c-21.26-3.148-31.298-1.791-31.298-1.791l-86.452-19.086v.156l-86.452 19.085s-10.038-1.356-31.298 1.791c-61.917 9.168-81.852 147.835 117.75 147.835v-.156c199.602-.001 179.667-138.667 117.75-147.834z" fill="#57545c"/><path id="XMLID_1061_" d="m342.452 142.709s10.038-1.356 31.298 1.791c61.917 9.167 81.852 147.833-117.75 147.833v-168.71z" fill="#262628"/><path id="XMLID_2096_" d="m202.786 276.12h106.427v60.88h-106.427z" fill="#ffc473"/><path id="XMLID_2065_" d="m256 276.12h53.214v60.88h-53.214z" fill="#ffaa20"/><path id="XMLID_1294_" d="m347.618 179.035c-3.826-56.31-51.848-88.27-91.618-88.27s-87.792 31.959-91.618 88.27c-10.291 1.928-17.594 11.545-16.449 22.12l1.772 16.362c1.202 11.101 11.268 19.199 22.368 17.997l1.912-.207c22.723 59.149 59.393 74.378 82.015 77.837 22.621-3.46 59.291-18.688 82.015-77.837l1.912.207c11.101 1.202 21.166-6.896 22.368-17.997l1.772-16.362c1.145-10.575-6.158-20.192-16.449-22.12z" fill="#ffdba9"/><path id="XMLID_1273_" d="m364.065 201.156-1.772 16.366c-1.203 11.098-11.265 19.192-22.363 17.989l-1.912-.205c-22.726 59.152-59.395 74.381-82.019 77.841v-222.378c39.774 0 87.791 31.959 91.615 88.267 10.296 1.93 17.598 11.545 16.451 22.12z" fill="#ffc473"/><path id="XMLID_1390_" d="m256 134.358-57.431 1.046-12.618 73.096h-15.465s-41.392-131.001 85.514-131z" fill="#b04b00"/><path id="XMLID_1385_" d="m256 134.358 57.431 1.046 12.618 73.096h15.465s41.392-131.001-85.514-131z" fill="#803400"/><path id="XMLID_1267_" d="m312.427 192.962h-56.427v66.357h20.046v-47.758h36.381z" fill="#ffaa20"/><path id="XMLID_2418_" d="m285.306 253.732h-58.611c-6.827 0-12.361 5.534-12.361 12.361v27.766c0 5.049 2.898 9.65 7.451 11.831l26.935 12.901c4.603 2.205 9.958 2.205 14.561 0l26.935-12.901c4.554-2.181 7.451-6.782 7.451-11.831v-27.766c0-6.827-5.534-12.361-12.361-12.361zm-.284 41.139-14.022 5.737v-16.222h-30v16.222l-14.023-5.738v-29.083h58.047z" fill="#b04b00"/><path id="XMLID_2410_" d="m285.31 253.731h-29.31v12.06h29.02v29.08l-14.02 5.74v-16.22h-15v35.85c2.49 0 4.98-.55 7.28-1.65l26.94-12.9c4.55-2.18 7.45-6.78 7.45-11.83v-27.77c0-6.82-5.54-12.36-12.36-12.36z" fill="#803400"/><path id="XMLID_1266_" d="m436.35 394.98v42.69c-12.36 12.27-25.96 23.29-40.6 32.84-40.18 26.24-88.18-.01-139.75-.01s-99.57 26.25-139.75.01c-14.64-9.55-28.24-20.57-40.6-32.84v-42.69c0-38.65 31.33-69.98 69.98-69.98h220.74c38.65 0 69.98 31.33 69.98 69.98z" fill="#ffdba9"/><path id="XMLID_1265_" d="m436.35 394.98v42.69c-12.36 12.27-25.96 23.29-40.6 32.84-.42.27-.84.55-1.26.8-39.92 24.9-87.46-.81-138.49-.81v-145.5h110.37c38.65 0 69.98 31.33 69.98 69.98z" fill="#ffc473"/><path id="XMLID_1264_" d="m197.046 192.962h42.287v18.599h-42.287z" fill="#ffc473"/><path id="XMLID_1263_" d="m256 512c72.055 0 137.145-29.781 183.667-77.692v-43.975c0-36.083-29.251-65.333-65.333-65.333h-65.12l-53.214 78.585-53.214-78.585h-65.12c-36.083 0-65.333 29.251-65.333 65.333v43.975c46.522 47.911 111.612 77.692 183.667 77.692z" fill="#00aeed"/><path id="XMLID_1262_" d="m439.67 390.33v43.98c-46.52 47.91-111.61 77.69-183.67 77.69v-108.41l53.21-78.59h65.12c36.09 0 65.34 29.25 65.34 65.33z" fill="#0083d5"/><path id="XMLID_1261_" d="m123.8 413.33v61.93c9.603 5.803 19.627 10.977 30 15.5v-77.43z" fill="#0083d5"/><path id="XMLID_1260_" d="m358.2 413.33v77.43c10.373-4.523 20.397-9.697 30-15.5v-61.93z" fill="#005c97"/><path id="XMLID_1060_" d="m295.966 34.274-23.125 7.295c-11.047 3.485-22.636 3.485-33.682 0l-23.125-7.295c-17.357-5.476-35.074 7.201-39.669 28.382l-13.294 80.497h185.724l-13.161-80.497c-4.594-21.181-22.312-33.858-39.668-28.382z" fill="#ff7600"/><path id="XMLID_1059_" d="m348.8 143h-92.8v-98.97c5.66 0 11.32-.87 16.84-2.62l23.13-7.29c17.35-5.48 35.07 7.2 39.66 28.38l13.13 80.23z" fill="#da6200"/><path id="XMLID_2268_" d="m202.786 325-48.986 24.667 64.39 92.666 37.81-38.743z" fill="#0083d5"/><path id="XMLID_2270_" d="m309.214 325 48.986 24.667-64.39 92.666-37.81-38.743z" fill="#005c97"/></svg>