<svg id="Capa_1" enable-background="new 0 0 512 512" height="512" viewBox="0 0 512 512" width="512" xmlns="http://www.w3.org/2000/svg"><path id="XMLID_3004_" d="m0 256c0-141.385 114.615-256 256-256s256 114.615 256 256c0 71.028-28.927 135.3-75.642 181.678-46.274 45.94-110.001 14.367-180.358 14.367-70.358 0-134.087 31.572-180.361-14.37-46.713-46.377-75.639-110.648-75.639-181.675z" fill="#00aeed"/><path id="XMLID_888_" d="m256 452.045c70.357 0 134.085 31.573 180.358-14.367 46.715-46.378 75.642-110.65 75.642-181.678 0-1.238-.029-2.469-.047-3.703l-177.691-177.691-178.577 144.635 66.923 66.505c7.527 13.534 15.866 23.843 24.361 31.653l-174.636 116.909c1.867 1.923 3.778 3.801 5.707 5.662 46.066 42.566 108.811 12.075 177.96 12.075z" fill="#0083d5"/><path id="XMLID_2121_" d="m302.415 276.579h-92.83l-9.19 48.421v.916h111.21v-.916z" fill="#ffc473"/><path id="XMLID_2120_" d="m311.605 325v.92h-55.606v-49.34h46.41z" fill="#ffaa20"/><path id="XMLID_2119_" d="m347.618 168.494c-3.826-56.31-51.848-88.27-91.618-88.27s-87.792 31.959-91.618 88.27c-10.291 1.928-17.594 11.545-16.449 22.12l1.772 16.362c1.202 11.101 11.268 19.199 22.368 17.997l1.912-.207c22.723 59.149 59.393 74.378 82.015 77.837 22.621-3.46 59.291-18.688 82.015-77.837l1.912.207c11.101 1.202 21.166-6.896 22.368-17.997l1.772-16.362c1.145-10.575-6.158-20.193-16.449-22.12z" fill="#ffdba9"/><path id="XMLID_2118_" d="m364.065 190.614-1.772 16.366c-1.203 11.098-11.265 19.192-22.363 17.989l-1.912-.205c-22.726 59.152-59.395 74.381-82.019 77.841v-222.378c39.774 0 87.791 31.959 91.615 88.267 10.296 1.93 17.598 11.545 16.451 22.12z" fill="#ffc473"/><path id="XMLID_2117_" d="m312.427 166.754h-56.427v66.357h20.046v-47.758h36.381z" fill="#ffaa20"/><path id="XMLID_2116_" d="m436.35 394.98v42.69c-12.36 12.27-25.96 23.29-40.6 32.84-40.18 26.24-88.18-.01-139.75-.01s-99.57 26.25-139.75.01c-14.64-9.55-28.24-20.57-40.6-32.84v-42.69c0-38.65 31.33-69.98 69.98-69.98h220.74c38.65 0 69.98 31.33 69.98 69.98z" fill="#ffdba9"/><path id="XMLID_2115_" d="m436.35 394.98v42.69c-12.36 12.27-25.96 23.29-40.6 32.84-.42.27-.84.55-1.26.8-39.92 24.9-87.46-.81-138.49-.81v-145.5h110.37c38.65 0 69.98 31.33 69.98 69.98z" fill="#ffc473"/><path id="XMLID_2114_" d="m256 512c72.055 0 137.145-29.781 183.667-77.692v-43.975c0-36.083-29.251-65.333-65.333-65.333h-62.708l-.005.009c-25.087 42.168-86.145 42.163-111.225-.009h-62.729c-36.083 0-65.333 29.251-65.333 65.333v43.975c46.521 47.911 111.611 77.692 183.666 77.692z" fill="#57545c"/><path id="XMLID_514_" d="m439.67 390.33v43.98c-46.52 47.91-111.61 77.69-183.67 77.69v-155.37c21.54.01 43.07-10.53 55.62-31.62v-.01h62.71c36.09 0 65.34 29.25 65.34 65.33z" fill="#3a383f"/><path id="XMLID_2112_" d="m123.8 413.33v61.93c9.603 5.803 19.627 10.977 30 15.5v-77.43z" fill="#262628"/><path id="XMLID_2103_" d="m358.2 413.33v77.43c10.373-4.523 20.397-9.697 30-15.5v-61.93z" fill="#262628"/><path id="XMLID_2102_" d="m197.046 166.754h42.287v18.599h-42.287z" fill="#ffc473"/><path id="XMLID_2236_" d="m256.833 45.513v-.013c-.281 0-.554.006-.833.007-.279-.001-.553-.007-.833-.007v.013c-137.46 1.149-92.334 149.987-92.334 149.987h17l12.666-73.377c5.317 8.638 14.072 17.853 28.501 24.21l15-19.667 20 28 20-28 15 19.667c14.428-6.357 23.183-15.572 28.5-24.209l12.666 73.376h17c.001 0 45.127-148.838-92.333-149.987z" fill="#57545c"/><path id="XMLID_512_" d="m349.17 195.5h-17l-12.67-73.38c-5.32 8.64-14.07 17.86-28.5 24.21l-15-19.66-20 28v-109.16c.28 0 .55-.01.83-.01v.01c137.46 1.15 92.34 149.99 92.34 149.99z" fill="#3a383f"/><path id="XMLID_239_" d="m288.828 391.586c-23.11-6.142-32.828 18.087-32.828 18.087s-9.718-24.23-32.828-18.087c-21.015 5.586-24.532 54.436 32.828 74.002 57.359-19.565 53.843-68.416 32.828-74.002z" fill="#ffed93"/><path id="XMLID_421_" d="m256 465.59v-55.92s9.72-24.23 32.83-18.08c21.01 5.58 24.53 54.43-32.83 74z" fill="#ffdc00"/></svg>