<svg id="Capa_1" enable-background="new 0 0 512 512" height="512" viewBox="0 0 512 512" width="512" xmlns="http://www.w3.org/2000/svg"><path id="XMLID_247_" d="m101.13 459.859c-61.457-46.76-101.13-120.677-101.13-203.859 0-141.385 114.615-256 256-256s256 114.615 256 256c0 83.103-39.598 156.958-100.955 203.726z" fill="#ff415b"/><path id="XMLID_248_" d="m410.87 459.859c61.457-46.76 101.13-120.677 101.13-203.859 0-7.122-.305-14.171-.875-21.146l-175.477-175.477-133.398 79.831-103.18 12.906 49.55 49.693c1.209 5.472 3.91 16.645 6.297 19.027l26.677 26.574c-42.917 15.826-52.008 65.482-52.008 65.482l5.832 5.832 18.317 18.665c-29.503 13.247-52.535 122.227-52.535 122.227z" fill="#cf0050"/><path id="XMLID_3239_" d="m129.515 313.125s84.797-1.402 77.088-77.088c-75.686-7.709-77.088 77.088-77.088 77.088z" fill="#b04b00"/><path id="XMLID_613_" d="m210.984 274.333h90.033v84h-90.033z" fill="#ffc473"/><path id="XMLID_609_" d="m256 274.333h45.016v84h-45.016z" fill="#ffaa20"/><path id="XMLID_607_" d="m348.251 170.093c-3.852-56.7-52.206-88.88-92.251-88.88s-88.399 32.18-92.251 88.88c-10.362 1.941-17.716 11.625-16.563 22.273l1.784 16.476c1.211 11.177 11.346 19.331 22.523 18.121l1.925-.209c22.88 59.558 59.804 74.892 82.581 78.375 22.778-3.483 59.701-18.817 82.582-78.375l1.925.209c11.177 1.211 21.312-6.944 22.523-18.121l1.784-16.476c1.154-10.648-6.2-20.332-16.562-22.273z" fill="#ffdba9"/><path id="XMLID_605_" d="m197.046 182.169h42.287v18.599h-42.287z" fill="#ffc473"/><path id="XMLID_601_" d="m364.81 192.37-1.78 16.47c-1.21 11.18-11.35 19.33-22.52 18.12l-1.93-.21c-22.88 59.56-59.8 74.9-82.58 78.38v-223.92c40.04 0 88.4 32.18 92.25 88.88 10.36 1.94 17.72 11.63 16.56 22.28z" fill="#ffc473"/><path id="XMLID_3173_" d="m326.25 104.5c-16.22-11.75-43.234-28.833-70.249-28.833s-54.031 17.083-70.251 28.833c-25.636 18.572-26.75 50.5-22.75 98.25h15.5l4.25-41.5 5.25 13.5h36.75l9.5-24.315v24.565h21.75 21.75v-24.565l9.5 24.315h36.75l5.25-13.5 4.25 41.5h15.5c4-47.75 2.886-79.678-22.75-98.25z" fill="#b04b00"/><path id="XMLID_3172_" d="m349.89 191.02c-.25 3.8-.55 7.71-.89 11.73h-15.5l-4.25-41.5-5.25 13.5h-36.75l-9.5-24.31v24.56h-21.75v-99.33c27.02 0 54.03 17.08 70.25 28.83 12.83 9.29 19.52 21.93 22.49 38.22.02.09.04.18.05.28.03.1.04.21.06.32 2.37 13.4 2.27 29.24 1.04 47.7z" fill="#803400"/><path id="XMLID_2267_" d="m237.838 32.333h36.258c45.801 0 82.929 37.129 82.929 82.929v31.423h-202.117v-31.423c0-45.8 37.129-82.929 82.93-82.929z" fill="#99f9ff"/><path id="XMLID_2266_" d="m357.03 115.267v31.42h-101.03v-114.35h18.1c45.8 0 82.93 37.13 82.93 82.93z" fill="#00dae1"/><path id="XMLID_2265_" d="m99 122.35h265.279v30h-265.279z" fill="#fff"/><path id="XMLID_2263_" d="m255.999 122.352h108.282v30h-108.282z" fill="#fff5ca"/><path id="XMLID_587_" d="m310.561 182.169h-54.561v64.162h19.383v-46.179h35.178z" fill="#ffaa20"/><path id="XMLID_585_" d="m410.87 395.97v63.88c-43 32.72-96.67 52.15-154.87 52.15s-111.87-19.43-154.87-52.15v-63.88c0-32.83 26.85-59.7 59.71-59.7h41.946 106.428 42.206c32.73.14 59.45 26.96 59.45 59.7z" fill="#ffdba9"/><path id="XMLID_584_" d="m410.87 395.97v63.88c-43 32.72-96.67 52.15-154.87 52.15v-175.73h53.214 42.206c32.73.14 59.45 26.96 59.45 59.7z" fill="#ffc473"/><path id="XMLID_3267_" d="m367.857 410.209c-11.096-16.43-17.024-35.803-17.024-55.629v-18.31h-24v17.061c0 18.325-13.137 34.013-31.177 37.231-26.23 4.68-53.081 4.68-79.311 0-18.04-3.219-31.177-18.907-31.177-37.231v-17.061h-24v18.31c0 19.826-5.929 39.199-17.025 55.629l-17.642 26.124v40.524c37.993 22.326 82.246 35.143 129.499 35.143s91.506-12.817 129.499-35.143v-40.524z" fill="#fff"/><path id="XMLID_3331_" d="m385.5 436.33v40.53c-37.99 22.32-82.25 35.14-129.5 35.14v-117.93c13.27 0 26.54-1.17 39.66-3.51 18.04-3.22 31.17-18.9 31.17-37.23v-17.06h24v18.31c0 19.83 5.93 39.2 17.03 55.63z" fill="#fff5ca"/><path id="XMLID_3271_" d="m307.931 336.27v23.264c0 10.198-8.267 18.466-18.466 18.466h-32.183-2.565-32.183c-10.198 0-18.466-8.267-18.466-18.466v-23.264h-22.786v26.621c0 24.085 19.524 43.609 43.609 43.609h29.826 2.565 29.826c24.084 0 43.609-19.524 43.609-43.609v-26.621z" fill="#99f9ff"/><path id="XMLID_3330_" d="m330.72 336.27v26.62c0 24.09-19.53 43.61-43.61 43.61h-31.11v-28.5h33.47c10.19 0 18.46-8.27 18.46-18.47v-23.26z" fill="#00dae1"/></svg>