<svg id="Capa_1" enable-background="new 0 0 512 512" height="512" viewBox="0 0 512 512" width="512" xmlns="http://www.w3.org/2000/svg"><path id="XMLID_3055_" d="m0 256c0-141.385 114.615-256 256-256s256 114.615 256 256c0 71.028-28.927 135.3-75.642 181.678-46.274 45.94-110.001 21.322-180.358 21.322-70.356 0-134.083 24.618-180.357-21.32-46.716-46.378-75.643-110.651-75.643-181.68z" fill="#ff415b"/><path id="XMLID_2061_" d="m256 459c70.357 0 134.085 24.618 180.358-21.322 41.213-40.916 68.567-95.763 74.442-156.886l-192.3-192.292-162.838 141.256 25.217 24.328c1.129 1.901 2.556 3.59 4.21 5.019 21.661-4.852 25.161 6.148 17.698 24.663v41.234l-127.137 112.67c.728.722 1.47 1.43 2.208 2.142 46.082 43.031 108.902 19.188 178.142 19.188z" fill="#cf0050"/><path id="XMLID_2668_" d="m436.35 394.98v42.69c-12.36 12.27-25.96 23.29-40.6 32.84-40.18 26.24-88.18-.01-139.75-.01s-99.57 26.25-139.75.01c-14.64-9.55-28.24-20.57-40.6-32.84v-42.69c0-38.65 31.33-69.98 69.98-69.98h220.74c38.65 0 69.98 31.33 69.98 69.98z" fill="#ffdba9"/><path id="XMLID_2667_" d="m436.35 394.98v42.69c-12.36 12.27-25.96 23.29-40.6 32.84-.42.27-.84.55-1.26.8-39.92 24.9-87.46-.81-138.49-.81v-145.5h110.37c38.65 0 69.98 31.33 69.98 69.98z" fill="#ffc473"/><path id="XMLID_2666_" d="m202.786 276.12h106.427v112.88h-106.427z" fill="#ffc473"/><path id="XMLID_2665_" d="m256 276.12h53.214v112.88h-53.214z" fill="#ffaa20"/><path id="XMLID_2664_" d="m347.618 179.035c-3.826-56.31-51.848-88.27-91.618-88.27s-87.792 31.959-91.618 88.27c-10.291 1.928-17.594 11.545-16.449 22.12l1.772 16.362c1.202 11.101 11.268 19.199 22.368 17.997l1.912-.207c22.723 59.149 59.393 74.378 82.015 77.837 22.621-3.46 59.291-18.688 82.015-77.837l1.912.207c11.101 1.202 21.166-6.896 22.368-17.997l1.772-16.362c1.145-10.575-6.158-20.192-16.449-22.12z" fill="#ffdba9"/><path id="XMLID_1839_" d="m204.863 92.596s-49.712 25.026-45.599 93.458c0 0 52.91-10.289 72.647-68.521z" fill="#fff5ca"/><path id="XMLID_2663_" d="m364.065 201.156-1.772 16.366c-1.203 11.098-11.265 19.192-22.363 17.989l-1.912-.205c-22.726 59.152-59.395 74.381-82.019 77.841v-222.378c39.774 0 87.791 31.959 91.615 88.267 10.296 1.93 17.598 11.545 16.451 22.12z" fill="#ffc473"/><path id="XMLID_2662_" d="m312.427 192.962h-56.427v66.357h20.046v-47.758h36.381z" fill="#ffaa20"/><path id="XMLID_2661_" d="m197.046 192.962h42.287v18.599h-42.287z" fill="#ffc473"/><path id="XMLID_2658_" d="m436.35 394.98v29.69h-40.6v45.84c-.42.27-.84.55-1.26.8-39.92 25.76-87.46 40.69-138.49 40.69s-98.57-14.93-138.49-40.69c-.42-.25-.84-.53-1.26-.8v-45.84h-40.6v-29.69c0-38.65 31.33-69.98 69.98-69.98h57.156c7.8 45.72 49.154 60.4 53.214 61.44 4.06-1.04 58.36-15.72 66.16-61.44h44.21c38.65 0 69.98 31.33 69.98 69.98z" fill="#58235e"/><path id="XMLID_2657_" d="m436.35 394.98v29.69h-40.6v45.84c-.42.27-.84.55-1.26.8-39.92 25.76-87.46 40.69-138.49 40.69v-125.56c4.06-1.04 46.292-15.72 54.092-61.44h56.278c38.65 0 69.98 31.33 69.98 69.98z" fill="#290a2d"/><path id="XMLID_479_" d="m182 85.266s15.046 75.234 89 80.234c0 0 22.87 70.231 62.435 97.615 0 0 60.696-105.052-14.935-174.615-59.5-54.727-136.5-3.234-136.5-3.234z" fill="#ab2cb7"/><path id="XMLID_1946_" d="m333.44 263.089c-39.57-27.38-62.44-97.61-62.44-97.61-5.3-.36-10.29-1.08-15-2.11v-100.06c20.41.35 42.45 6.73 62.5 25.17 75.63 69.56 14.94 174.61 14.94 174.61z" fill="#58235e"/></svg>