<svg id="Capa_1" enable-background="new 0 0 512 512" height="512" viewBox="0 0 512 512" width="512" xmlns="http://www.w3.org/2000/svg"><path id="XMLID_539_" d="m0 256c0-141.385 114.615-256 256-256s256 114.615 256 256c0 71.029-28.927 135.302-75.643 181.68-46.274 45.938-110.001 21.32-180.357 21.32s-134.083 24.618-180.357-21.32c-46.716-46.378-75.643-110.651-75.643-181.68z" fill="#9adb05"/><path id="XMLID_1246_" d="m256 459c70.356 0 134.083 24.618 180.357-21.32 46.716-46.378 75.643-110.651 75.643-181.68l-199-199-9.667 33.769s-40.148-56.88-47.333-62.269c-22 16.5-53.612 63.206-54.946 72.446-26.574 9.961-47.388 135.847-47.388 135.847l68.531 68.413-9.16 43.236-137.387 89.228.464.463c46.235 45.311 109.767 20.867 179.886 20.867z" fill="#00ca76"/><path id="XMLID_2473_" d="m312.049 276.116h-112.098l-11.097 52.383h134.292z" fill="#ffc473"/><path id="XMLID_2472_" d="m323.15 328.5h-67.15v-52.38h56.05z" fill="#ffaa20"/><path id="XMLID_2468_" d="m347.618 179.035c-3.826-56.31-51.848-88.27-91.618-88.27s-87.792 31.959-91.618 88.27c-10.291 1.928-17.594 11.545-16.449 22.12l1.772 16.362c1.202 11.101 11.268 19.199 22.368 17.997l1.912-.207c22.723 59.149 59.393 74.378 82.015 77.837 22.621-3.46 59.291-18.688 82.015-77.837l1.912.207c11.101 1.202 21.166-6.896 22.368-17.997l1.772-16.362c1.145-10.575-6.158-20.192-16.449-22.12z" fill="#ffdba9"/><path id="XMLID_2467_" d="m364.065 201.156-1.772 16.366c-1.203 11.098-11.265 19.192-22.363 17.989l-1.912-.205c-22.726 59.152-59.395 74.381-82.019 77.841v-222.378c39.774 0 87.791 31.959 91.615 88.267 10.296 1.93 17.598 11.545 16.451 22.12z" fill="#ffc473"/><path id="XMLID_2466_" d="m312.427 192.962h-56.427v66.357h20.046v-47.758h36.381z" fill="#ffaa20"/><path id="XMLID_442_" d="m436.35 394.98v42.69c-12.36 12.27-25.96 23.29-40.6 32.84-40.18 26.24-88.18-.01-139.75-.01s-99.57 26.25-139.75.01c-14.64-9.55-28.24-20.57-40.6-32.84v-42.69c0-38.65 31.33-69.98 69.98-69.98h220.74c38.65 0 69.98 31.33 69.98 69.98z" fill="#ffdba9"/><path id="XMLID_1035_" d="m436.35 394.98v42.69c-12.36 12.27-25.96 23.29-40.6 32.84-.42.27-.84.55-1.26.8-39.92 24.9-87.46-.81-138.49-.81v-145.5h110.37c38.65 0 69.98 31.33 69.98 69.98z" fill="#ffc473"/><path id="XMLID_2415_" d="m256 78.254c-83.429 0-103.823 23.175-100.115 59.791 3.196 31.563 13.905 83.893 13.905 83.893h17.149v-75.086l69.061 5.562 69.061-5.562v75.086h17.149s10.708-52.329 13.905-83.893c3.708-36.616-16.686-59.791-100.115-59.791z" fill="#797880"/><path id="XMLID_2414_" d="m356.12 138.05c-3.2 31.56-13.91 83.89-13.91 83.89h-17.15v-75.09l-28.05 2.26-41.01 3.3v-74.16c30.84 0 53.06 3.17 68.64 9.01 26.57 9.96 33.81 27.7 31.48 50.79z" fill="#57545c"/><path id="XMLID_2413_" d="m313 57-15.991 14.5s-19.009-26.5-41.009-43c-22 16.5-41.009 43-41.009 43l-15.991-14.5c-35 56.5 15.991 92.111 15.991 92.111l41.009 3.303 41.009-3.303s50.991-35.611 15.991-92.111z" fill="#57545c"/><path id="XMLID_2412_" d="m297.01 149.11-41.01 3.3v-123.91c22 16.5 41.01 43 41.01 43l15.99-14.5c6.75 10.9 10.3 21.02 11.64 30.26 5.59 38.65-27.63 61.85-27.63 61.85z" fill="#262628"/><path id="XMLID_752_" d="m197.046 192.962h42.287v18.599h-42.287z" fill="#ffc473"/><path id="XMLID_766_" d="m160 239.5c-4.849 0-8.78-3.931-8.78-8.78 0-4.849 3.931-8.78 8.78-8.78 4.849 0 8.78 3.931 8.78 8.78 0 4.849-3.931 8.78-8.78 8.78z" fill="#797880"/><path id="XMLID_438_" d="m395.75 415.5v55.01c-40.18 26.24-88.18 41.49-139.75 41.49s-99.57-15.25-139.75-41.49v-55.01c35.5-31.5 29.63-90.5 29.63-90.5h43.96c7.8 45.72 62.1 60.4 66.16 61.44 4.06-1.04 58.36-15.72 66.16-61.44h43.96s-5.87 59 29.63 90.5z" fill="#ff415b"/><path id="XMLID_1033_" d="m395.75 415.5v55.01c-.42.27-.84.55-1.26.8-39.92 25.76-87.46 40.69-138.49 40.69v-125.56c4.06-1.04 58.36-15.72 66.16-61.44h43.96s-5.87 59 29.63 90.5z" fill="#cf0050"/></svg>