<svg id="Capa_1" enable-background="new 0 0 512 512" height="512" viewBox="0 0 512 512" width="512" xmlns="http://www.w3.org/2000/svg"><path id="XMLID_127_" d="m0 256c0-141.385 114.615-256 256-256s256 114.615 256 256c0 70.692-28.654 134.692-74.981 181.019s-110.327 5.655-181.019 5.655c-70.358 0-134.087 40.943-180.361-4.999-46.714-46.377-75.639-110.648-75.639-181.675z" fill="#99f9ff"/><path id="XMLID_410_" d="m256 442.674c70.692 0 134.692 40.672 181.019-5.655s74.981-110.327 74.981-181.019c0-13.301-1.016-26.365-2.972-39.12l-126.111-126.111c-76-34.435-228.352 74.572-226.022 91.34-6.089 4.071-4.479 44.452-1.267 47.616l36.589 36.226s19.683 3.353 25.973 10.17l7.81 85.379-150.35 76.17c.394.391.797.772 1.194 1.16 46.173 44.067 109.405 3.844 179.156 3.844z" fill="#00dae1"/><path id="XMLID_918_" d="m202.786 276.12h106.427v112.88h-106.427z" fill="#ffc473"/><path id="XMLID_1368_" d="m256 276.12h53.213v112.88h-53.213z" fill="#ffaa20"/><path id="XMLID_917_" d="m347.618 179.035c-3.826-56.31-51.848-88.27-91.618-88.27s-87.792 31.959-91.618 88.27c-10.291 1.928-17.594 11.545-16.449 22.12l1.772 16.362c1.202 11.101 11.268 19.199 22.368 17.997l1.912-.207c22.723 59.149 59.393 74.378 82.015 77.837 22.621-3.46 59.291-18.688 82.015-77.837l1.912.207c11.101 1.202 21.166-6.896 22.368-17.997l1.772-16.362c1.145-10.575-6.158-20.192-16.449-22.12z" fill="#ffdba9"/><path id="XMLID_916_" d="m364.065 201.156-1.772 16.366c-1.203 11.098-11.265 19.192-22.363 17.989l-1.912-.205c-22.726 59.152-59.395 74.381-82.019 77.841v-222.378c39.774 0 87.791 31.959 91.615 88.267 10.296 1.93 17.598 11.545 16.451 22.12z" fill="#ffc473"/><path id="XMLID_915_" d="m312.427 192.962h-56.427v66.357h20.046v-47.758h36.381z" fill="#ffaa20"/><path id="XMLID_1375_" d="m436.35 394.98v42.69c-46.27 45.94-109.99 74.33-180.35 74.33s-134.08-28.39-180.35-74.33v-42.69c0-38.65 31.33-69.98 69.98-69.98h57.16c0 29.39 23.82 53.21 53.21 53.21s53.21-23.82 53.21-53.21h57.16c38.65 0 69.98 31.33 69.98 69.98z" fill="#58235e"/><path id="XMLID_1377_" d="m436.35 394.98v42.69c-46.27 45.94-109.99 74.33-180.35 74.33v-133.79c29.39 0 53.21-23.82 53.21-53.21h57.16c21.46 0 40.66 9.65 53.48 24.86 10.3 12.18 16.5 27.93 16.5 45.12z" fill="#411544"/><path id="XMLID_912_" d="m123.8 413.33v61.93c9.603 5.803 19.627 10.977 30 15.5v-77.43z" fill="#411544"/><path id="XMLID_911_" d="m358.2 413.33v77.43c10.373-4.523 20.397-9.697 30-15.5v-61.93z" fill="#290a2d"/><path id="XMLID_910_" d="m197.046 192.962h42.287v18.599h-42.287z" fill="#ffc473"/><path id="XMLID_1411_" d="m337.435 214-9.333-92.333 22.917-10.279s14.749 40.946-3.084 102.613h-10.5z" fill="#e30058"/><path id="XMLID_36_" d="m180.25 75.5c-9.469 10.731-15.674 23.08-19.584 35.888-.002.005-1.45 4.028-2.889 11.446-9.098 44.87 5.973 91.166 5.973 91.166h10.5l5.255-51.678c145 35.5 203.411-71.554 203.411-71.554-75.999-34.435-154.8-69.516-202.666-15.268z" fill="#ff415b"/><path id="XMLID_197_" d="m382.92 90.77s-37.48 68.69-126.92 77.77v-120.66c39.01 3.26 83.42 23.18 126.92 42.89z" fill="#cf0050"/></svg>