<svg id="Capa_1" enable-background="new 0 0 512 512" height="512" viewBox="0 0 512 512" width="512" xmlns="http://www.w3.org/2000/svg"><path id="XMLID_697_" d="m512 256c0 68.98-27.29 131.59-71.65 177.63-39.1 40.56-172.74-15.13-184.35-15.13s-145.25 55.69-184.35 15.13c-44.36-46.04-71.65-108.65-71.65-177.63 0-141.38 114.62-256 256-256s256 114.62 256 256z" fill="#00aeed"/><path id="XMLID_1037_" d="m256 418.5c11.61 0 145.25 55.69 184.35 15.13 44.36-46.04 71.65-108.65 71.65-177.63 0-.072-.003-.144-.003-.216-68.865-69.461-221.497-220.284-221.497-220.284s-138.276 190.687-135.294 193.803l41.692 41.049c145.602 139.148-125.248 163.278-125.248 163.278 39.1 40.56 172.74-15.13 184.35-15.13z" fill="#0083d5"/><path id="XMLID_469_" d="m202.786 276.12h106.427v112.88h-106.427z" fill="#ffc473"/><path id="XMLID_468_" d="m256 276.12h53.214v112.88h-53.214z" fill="#ffaa20"/><path id="XMLID_494_" d="m436.35 394.98v42.69c-46.27 45.94-109.99 74.33-180.35 74.33s-134.08-28.39-180.35-74.33v-42.69c0-38.65 31.33-69.98 69.98-69.98h57.16c0 29.39 23.82 53.21 53.21 53.21s53.21-23.82 53.21-53.21h57.16c38.65 0 69.98 31.33 69.98 69.98z" fill="#fff"/><path id="XMLID_493_" d="m436.35 394.98v42.69c-46.27 45.94-109.99 74.33-180.35 74.33v-133.79c29.39 0 53.21-23.82 53.21-53.21h57.16c21.46 0 40.66 9.65 53.48 24.86 10.3 12.18 16.5 27.93 16.5 45.12z" fill="#fff5ca"/><path id="XMLID_692_" d="m221.75 509.72c-58.64-7.83-111-35.53-150.1-76.09v-60.46c0-26.61 21.56-48.17 48.17-48.17h69.5z" fill="#ffe767"/><path id="XMLID_696_" d="m440.35 373.17v60.46c-39.1 40.56-91.46 68.26-150.1 76.09l32.43-184.72h69.5c26.61 0 48.17 21.56 48.17 48.17z" fill="#ffdc00"/><path id="XMLID_784_" d="m290.25 509.72 32.75-47.053-3-40.667h17l42-97h-56.32z" fill="#58235e"/><path id="XMLID_467_" d="m347.618 179.035c-3.826-56.31-51.848-88.27-91.618-88.27s-87.792 31.959-91.618 88.27c-10.291 1.928-17.594 11.545-16.449 22.12l1.772 16.362c1.202 11.101 11.268 19.199 22.368 17.997l1.912-.207c22.723 59.149 59.393 74.378 82.015 77.837 22.621-3.46 59.291-18.688 82.015-77.837l1.912.207c11.101 1.202 21.166-6.896 22.368-17.997l1.772-16.362c1.145-10.575-6.158-20.192-16.449-22.12z" fill="#ffdba9"/><path id="XMLID_1044_" d="m197.046 192.962h42.287v18.599h-42.287z" fill="#ffc473"/><path id="XMLID_466_" d="m364.065 201.156-1.772 16.366c-1.203 11.098-11.265 19.192-22.363 17.989l-1.912-.205c-22.726 59.152-59.395 74.381-82.019 77.841v-222.378c39.774 0 87.791 31.959 91.615 88.267 10.296 1.93 17.598 11.545 16.451 22.12z" fill="#ffc473"/><path id="XMLID_465_" d="m312.427 192.962h-56.427v66.357h20.046v-47.758h36.381z" fill="#ffaa20"/><path id="XMLID_462_" d="m123.8 413.33v61.93c9.603 5.803 19.627 10.977 30 15.5v-77.43z" fill="#ffd500"/><path id="XMLID_461_" d="m358.2 413.33v77.43c10.373-4.523 20.397-9.697 30-15.5v-61.93z" fill="#ffc100"/><path id="XMLID_524_" d="m256 35.5h-34.5l12 100.167h45l12-100.167z" fill="#58235e"/><path d="m256 35.5v100.167h22.5l12-100.167z" fill="#290a2d"/><path id="XMLID_756_" d="m189.32 325h-56.32l42 97h17l-3 40.667 32.75 47.053" fill="#75387f"/></svg>