<svg id="Capa_1" enable-background="new 0 0 512 512" height="512" viewBox="0 0 512 512" width="512" xmlns="http://www.w3.org/2000/svg"><path id="XMLID_1128_" d="m0 256c0-141.385 114.615-256 256-256s256 114.615 256 256c0 71.029-28.927 135.302-75.643 181.68-46.274 45.938-110.001 21.32-180.357 21.32s-134.083 24.618-180.357-21.32c-46.716-46.378-75.643-110.651-75.643-181.68z" fill="#ff415b"/><path id="XMLID_626_" d="m256 459c70.356 0 134.083 24.618 180.357-21.32 46.506-46.169 75.372-110.075 75.631-180.723l-183.768-183.768c-13.538-15.376-180.5 98.828-180.5 98.828l22.361 22.951c-6.208 4.043-17.633 31.655-14.382 34.827l35.442 35.062c12.334 5.322 14.108 7.392 11.644 18.907l29.482 70.717-156.617 83.189c.712.707 1.438 1.401 2.16 2.098 46.087 43.092 108.926 19.232 178.19 19.232z" fill="#cf0050"/><path id="XMLID_1074_" d="m436.35 394.98v42.69c-12.36 12.27-25.96 23.29-40.6 32.84-40.18 26.24-88.18-.01-139.75-.01s-99.57 26.25-139.75.01c-14.64-9.55-28.24-20.57-40.6-32.84v-42.69c0-38.65 31.33-69.98 69.98-69.98h220.74c38.65 0 69.98 31.33 69.98 69.98z" fill="#ffdba9"/><path id="XMLID_1073_" d="m436.35 394.98v42.69c-12.36 12.27-25.96 23.29-40.6 32.84-.42.27-.84.55-1.26.8-39.92 24.9-87.46-.81-138.49-.81v-145.5h110.37c38.65 0 69.98 31.33 69.98 69.98z" fill="#ffc473"/><path id="XMLID_53_" d="m202.786 276.12h106.427v112.88h-106.427z" fill="#ffc473"/><path id="XMLID_52_" d="m256 276.12h53.214v112.88h-53.214z" fill="#ffaa20"/><path id="XMLID_1078_" d="m347.618 179.035c-3.826-56.31-51.848-88.27-91.618-88.27s-87.792 31.959-91.618 88.27c-10.291 1.928-17.594 11.545-16.449 22.12l1.772 16.362c1.202 11.101 11.268 19.199 22.368 17.997l1.912-.207c22.723 59.149 59.393 74.378 82.015 77.837 22.621-3.46 59.291-18.688 82.015-77.837l1.912.207c11.101 1.202 21.166-6.896 22.368-17.997l1.772-16.362c1.145-10.575-6.158-20.192-16.449-22.12z" fill="#ffdba9"/><path id="XMLID_1076_" d="m364.065 201.156-1.772 16.366c-1.203 11.098-11.265 19.192-22.363 17.989l-1.912-.205c-22.726 59.152-59.395 74.381-82.019 77.841v-222.378c39.774 0 87.791 31.959 91.615 88.267 10.296 1.93 17.598 11.545 16.451 22.12z" fill="#ffc473"/><path id="XMLID_1075_" d="m312.427 192.962h-56.427v66.357h20.046v-47.758h36.381z" fill="#ffaa20"/><path id="XMLID_1072_" d="m197.046 192.962h42.287v18.599h-42.287z" fill="#ffc473"/><path id="XMLID_1248_" d="m436.35 394.98v29.69h-40.6v45.84c-.42.27-.84.55-1.26.8-39.92 25.76-87.46 40.69-138.49 40.69s-98.57-14.93-138.49-40.69c-.42-.25-.84-.53-1.26-.8v-45.84h-40.6v-29.69c0-38.65 31.33-69.98 69.98-69.98h57.156c7.8 45.72 49.154 60.4 53.214 61.44 4.06-1.04 58.36-15.72 66.16-61.44h44.21c38.65 0 69.98 31.33 69.98 69.98z" fill="#99f9ff"/><path id="XMLID_1289_" d="m436.35 394.98v29.69h-40.6v45.84c-.42.27-.84.55-1.26.8-39.92 25.76-87.46 40.69-138.49 40.69v-125.56c4.06-1.04 46.292-15.72 54.092-61.44h56.278c38.65 0 69.98 31.33 69.98 69.98z" fill="#00dae1"/><circle id="XMLID_621_" cx="338.269" cy="429.5" fill="#00aeed" r="25.915"/><path id="XMLID_393_" d="m254.414 85.583c-27.371 0-63.214 13.654-80.146 44.804-.003.004-.005.007-.008.011-22.318 34.768-6.01 89.102-6.01 89.102h13.583l.167-27.538c27.8-1.413 59.825-26.369 72.219-36.948l.195-.052 89.456 24.073c5.285-65.964-50.618-93.452-89.456-93.452z" fill="#57545c"/><path id="XMLID_340_" d="m253.839 154.962s23.661 59.371 76.661 83.038c0 0 31.25-43.95 11.484-87.9z" fill="#262628"/><path id="XMLID_184_" d="m346.644 150.1h-181.288v-28.125c0-40.8 33.075-73.875 73.875-73.875h33.537c40.8 0 73.875 33.075 73.875 73.875v28.125z" fill="#fff"/><path id="XMLID_476_" d="m346.64 121.97v28.13h-90.64v-102h16.77c40.8 0 73.87 33.07 73.87 73.87z" fill="#fff5ca"/><path id="XMLID_185_" d="m147.721 142.018h216.559v30h-216.559z" fill="#9adb05"/><path id="XMLID_475_" d="m256 142.02h108.28v30h-108.28z" fill="#00ca76"/></svg>